<?xml version="1.0" encoding="UTF-8"?>
<svg id="Calque_1" xmlns="http://www.w3.org/2000/svg" version="1.1" viewBox="0 0 220.34 68.46">
  <!-- Generator: Adobe Illustrator 30.2.1, SVG Export Plug-In . SVG Version: 2.1.1 Build 1)  -->
  <defs>
    <style>
      .st0 {
        stroke-linecap: round;
        stroke-width: .21px;
      }

      .st0, .st1 {
        fill: none;
        stroke: #138a92;
        stroke-miterlimit: 10;
      }

      .st2 {
        fill: #1f3358;
      }

      .st3 {
        isolation: isolate;
      }

      .st4 {
        fill: #138a92;
      }

      .st5 {
        fill: #e95c67;
      }

      .st1 {
        stroke-width: .43px;
      }
    </style>
  </defs>
  <g class="st3">
    <g class="st3">
      <path class="st2" d="M42.11,39.9c-.52.25-1.77.56-3.35.56-4.53,0-6.87-2.84-6.87-6.58,0-4.47,3.19-6.95,7.16-6.95,1.54,0,2.7.29,3.23.58l-.62,2.33c-.58-.25-1.42-.49-2.49-.49-2.33,0-4.16,1.42-4.16,4.34,0,2.63,1.56,4.28,4.18,4.28.91,0,1.89-.17,2.49-.43l.43,2.33Z"/>
      <path class="st2" d="M53.01,35.39c0,3.48-2.47,5.08-5.02,5.08-2.78,0-4.92-1.83-4.92-4.9s2.02-5.06,5.1-5.06c2.9,0,4.84,2,4.84,4.88ZM46.12,35.48c0,1.63.68,2.86,1.95,2.86,1.17,0,1.89-1.15,1.89-2.88,0-1.4-.54-2.84-1.89-2.84s-1.95,1.46-1.95,2.86Z"/>
      <path class="st2" d="M54.83,33.77c0-1.19-.04-2.18-.08-3.04h2.57l.14,1.32h.06c.39-.62,1.34-1.54,2.94-1.54,1.95,0,3.4,1.3,3.4,4.11v5.62h-2.96v-5.27c0-1.23-.43-2.06-1.5-2.06-.82,0-1.3.56-1.52,1.11-.08.19-.1.47-.1.74v5.49h-2.96v-6.48Z"/>
      <path class="st2" d="M75.24,38.87c0,1.83-.37,3.33-1.46,4.28-1.03.9-2.45,1.17-3.85,1.17-1.26,0-2.57-.25-3.42-.72l.58-2.26c.6.35,1.63.72,2.76.72,1.4,0,2.47-.74,2.47-2.51v-.6h-.04c-.56.78-1.48,1.23-2.57,1.23-2.35,0-4.03-1.91-4.03-4.63,0-3.07,1.96-5.02,4.32-5.02,1.3,0,2.12.56,2.61,1.36h.04l.1-1.15h2.57c-.04.62-.08,1.42-.08,2.84v5.29ZM72.28,34.61c0-.18-.02-.37-.06-.54-.21-.78-.78-1.3-1.6-1.3-1.09,0-1.95.97-1.95,2.7,0,1.42.7,2.53,1.93,2.53.78,0,1.38-.51,1.58-1.19.08-.23.1-.54.1-.8v-1.4Z"/>
      <path class="st2" d="M77.61,33.87c0-1.4-.02-2.32-.08-3.13h2.53l.12,1.75h.08c.49-1.4,1.63-1.98,2.57-1.98.27,0,.41.02.62.06v2.78c-.23-.04-.47-.08-.8-.08-1.09,0-1.83.58-2.02,1.5-.04.19-.06.43-.06.66v4.83h-2.96v-6.38Z"/>
      <path class="st2" d="M87.12,36.44c.08,1.23,1.3,1.81,2.69,1.81,1.01,0,1.83-.14,2.63-.41l.39,2c-.97.41-2.16.6-3.44.6-3.23,0-5.08-1.87-5.08-4.84,0-2.41,1.5-5.08,4.81-5.08,3.07,0,4.24,2.39,4.24,4.75,0,.51-.06.95-.1,1.17h-6.13ZM90.6,34.41c0-.72-.31-1.93-1.67-1.93-1.25,0-1.75,1.15-1.83,1.93h3.5ZM92.22,26.59l-2.37,2.96h-2.02l1.67-2.96h2.72Z"/>
      <path class="st2" d="M95.09,37.68c.54.33,1.67.7,2.55.7s1.26-.29,1.26-.78-.29-.74-1.38-1.11c-1.98-.66-2.74-1.73-2.72-2.86,0-1.79,1.52-3.13,3.87-3.13,1.11,0,2.08.27,2.67.56l-.51,2.04c-.43-.23-1.26-.54-2.06-.54-.72,0-1.13.29-1.13.76s.37.7,1.54,1.11c1.81.62,2.55,1.56,2.57,2.94,0,1.79-1.38,3.09-4.1,3.09-1.25,0-2.35-.29-3.07-.68l.53-2.1Z"/>
      <path class="st2" d="M116.7,26.44v10.97c0,1.07.04,2.2.08,2.84h-2.63l-.12-1.38h-.06c-.58,1.05-1.75,1.59-2.98,1.59-2.26,0-4.07-1.93-4.07-4.88-.02-3.21,1.98-5.08,4.26-5.08,1.19,0,2.08.43,2.51,1.07h.04v-5.14h2.96ZM113.75,34.76c0-.16,0-.37-.04-.54-.17-.78-.82-1.44-1.73-1.44-1.36,0-2.04,1.21-2.04,2.7,0,1.62.8,2.63,2.02,2.63.86,0,1.56-.58,1.73-1.42.04-.21.06-.45.06-.68v-1.25Z"/>
      <path class="st2" d="M121.35,36.44c.08,1.23,1.3,1.81,2.69,1.81,1.01,0,1.83-.14,2.63-.41l.39,2c-.97.41-2.16.6-3.44.6-3.23,0-5.08-1.87-5.08-4.84,0-2.41,1.5-5.08,4.8-5.08,3.07,0,4.24,2.39,4.24,4.75,0,.51-.06.95-.1,1.17h-6.13ZM124.83,34.41c0-.72-.31-1.93-1.67-1.93-1.25,0-1.75,1.15-1.83,1.93h3.5Z"/>
      <path class="st2" d="M129.33,37.68c.54.33,1.67.7,2.55.7s1.26-.29,1.26-.78-.29-.74-1.38-1.11c-1.98-.66-2.74-1.73-2.72-2.86,0-1.79,1.52-3.13,3.87-3.13,1.11,0,2.08.27,2.67.56l-.5,2.04c-.43-.23-1.26-.54-2.06-.54-.72,0-1.13.29-1.13.76s.37.7,1.54,1.11c1.81.62,2.55,1.56,2.57,2.94,0,1.79-1.38,3.09-4.11,3.09-1.25,0-2.35-.29-3.07-.68l.53-2.1Z"/>
      <path class="st2" d="M150.68,37.2c0,1.25.04,2.26.08,3.05h-2.57l-.14-1.34h-.06c-.37.58-1.26,1.56-2.98,1.56-1.95,0-3.35-1.21-3.35-4.14v-5.58h2.96v5.12c0,1.38.45,2.22,1.5,2.22.82,0,1.3-.56,1.48-1.03.08-.17.12-.39.12-.64v-5.66h2.96v6.46Z"/>
      <path class="st2" d="M153.05,33.87c0-1.4-.02-2.32-.08-3.13h2.53l.12,1.75h.08c.49-1.4,1.63-1.98,2.57-1.98.27,0,.41.02.62.06v2.78c-.23-.04-.47-.08-.8-.08-1.09,0-1.83.58-2.02,1.5-.04.19-.06.43-.06.66v4.83h-2.96v-6.38Z"/>
      <path class="st2" d="M169.3,38.87c0,1.83-.37,3.33-1.46,4.28-1.03.9-2.45,1.17-3.85,1.17-1.26,0-2.57-.25-3.42-.72l.58-2.26c.6.35,1.63.72,2.76.72,1.4,0,2.47-.74,2.47-2.51v-.6h-.04c-.56.78-1.48,1.23-2.57,1.23-2.35,0-4.03-1.91-4.03-4.63,0-3.07,1.96-5.02,4.32-5.02,1.3,0,2.12.56,2.61,1.36h.04l.1-1.15h2.57c-.04.62-.08,1.42-.08,2.84v5.29ZM166.34,34.61c0-.18-.02-.37-.06-.54-.21-.78-.78-1.3-1.6-1.3-1.09,0-1.95.97-1.95,2.7,0,1.42.7,2.53,1.93,2.53.78,0,1.38-.51,1.58-1.19.08-.23.1-.54.1-.8v-1.4Z"/>
      <path class="st2" d="M173.94,36.44c.08,1.23,1.3,1.81,2.68,1.81,1.01,0,1.83-.14,2.63-.41l.39,2c-.97.41-2.16.6-3.44.6-3.23,0-5.08-1.87-5.08-4.84,0-2.41,1.5-5.08,4.81-5.08,3.07,0,4.24,2.39,4.24,4.75,0,.51-.06.95-.1,1.17h-6.13ZM177.43,34.41c0-.72-.31-1.93-1.67-1.93-1.25,0-1.75,1.15-1.83,1.93h3.5Z"/>
      <path class="st2" d="M181.94,33.77c0-1.19-.04-2.18-.08-3.04h2.57l.14,1.32h.06c.39-.62,1.34-1.54,2.94-1.54,1.95,0,3.41,1.3,3.41,4.11v5.62h-2.96v-5.27c0-1.23-.43-2.06-1.5-2.06-.82,0-1.3.56-1.52,1.11-.08.19-.1.47-.1.74v5.49h-2.96v-6.48Z"/>
      <path class="st2" d="M200.47,40c-.53.25-1.52.45-2.65.45-3.07,0-5.04-1.89-5.04-4.86,0-2.78,1.91-5.06,5.45-5.06.78,0,1.63.14,2.26.37l-.47,2.2c-.35-.16-.88-.29-1.65-.29-1.56,0-2.57,1.11-2.55,2.67,0,1.73,1.17,2.67,2.61,2.67.7,0,1.25-.12,1.69-.31l.35,2.18Z"/>
      <path class="st2" d="M204.17,36.44c.08,1.23,1.3,1.81,2.69,1.81,1.01,0,1.83-.14,2.63-.41l.39,2c-.97.41-2.16.6-3.44.6-3.23,0-5.08-1.87-5.08-4.84,0-2.41,1.5-5.08,4.8-5.08,3.07,0,4.24,2.39,4.24,4.75,0,.51-.06.95-.1,1.17h-6.13ZM207.65,34.41c0-.72-.31-1.93-1.67-1.93-1.25,0-1.75,1.15-1.83,1.93h3.5Z"/>
      <path class="st2" d="M212.14,37.68c.54.33,1.67.7,2.55.7s1.26-.29,1.26-.78-.29-.74-1.38-1.11c-1.98-.66-2.74-1.73-2.72-2.86,0-1.79,1.52-3.13,3.87-3.13,1.11,0,2.08.27,2.67.56l-.5,2.04c-.43-.23-1.26-.54-2.06-.54-.72,0-1.13.29-1.13.76s.37.7,1.54,1.11c1.81.62,2.55,1.56,2.57,2.94,0,1.79-1.38,3.09-4.11,3.09-1.25,0-2.35-.29-3.07-.68l.53-2.1Z"/>
    </g>
    <g class="st3">
      <path class="st5" d="M110.94,57.27c0-1.25-.04-2.29-.08-3.19h2.57l.14,1.32h.04c.7-.99,1.79-1.54,3.17-1.54,2.08,0,3.95,1.81,3.95,4.84,0,3.46-2.2,5.1-4.32,5.1-1.15,0-2.04-.47-2.47-1.09h-.04v4.73h-2.96v-10.18ZM113.89,59.5c0,.23.02.43.06.62.19.8.88,1.4,1.73,1.4,1.28,0,2.04-1.07,2.04-2.68,0-1.52-.68-2.67-2-2.67-.84,0-1.58.62-1.77,1.5-.04.16-.06.35-.06.53v1.3Z"/>
      <path class="st5" d="M124.9,59.78c.08,1.23,1.3,1.81,2.68,1.81,1.01,0,1.83-.14,2.63-.41l.39,2c-.97.41-2.16.6-3.44.6-3.23,0-5.08-1.87-5.08-4.84,0-2.41,1.5-5.08,4.81-5.08,3.07,0,4.24,2.39,4.24,4.75,0,.51-.06.95-.1,1.17h-6.13ZM128.38,57.75c0-.72-.31-1.93-1.67-1.93-1.24,0-1.75,1.15-1.83,1.93h3.5ZM130,49.93l-2.37,2.96h-2.02l1.67-2.96h2.72Z"/>
      <path class="st5" d="M142.12,49.78v10.97c0,1.07.04,2.2.08,2.84h-2.63l-.12-1.38h-.06c-.58,1.05-1.75,1.59-2.98,1.59-2.26,0-4.07-1.93-4.07-4.88-.02-3.21,1.98-5.08,4.26-5.08,1.19,0,2.08.43,2.51,1.07h.04v-5.14h2.96ZM139.16,58.1c0-.16,0-.37-.04-.54-.18-.78-.82-1.44-1.73-1.44-1.36,0-2.04,1.21-2.04,2.7,0,1.62.8,2.63,2.02,2.63.86,0,1.56-.58,1.73-1.42.04-.21.06-.45.06-.68v-1.25Z"/>
      <path class="st5" d="M147.54,51.43c0,.82-.6,1.48-1.59,1.48-.93,0-1.54-.66-1.54-1.48s.62-1.48,1.58-1.48,1.54.64,1.56,1.48ZM144.49,63.59v-9.51h2.96v9.51h-2.96Z"/>
      <path class="st5" d="M157.73,61.29c0,.9.04,1.77.16,2.3h-2.67l-.17-.95h-.06c-.62.76-1.6,1.17-2.72,1.17-1.93,0-3.07-1.4-3.07-2.92,0-2.47,2.22-3.64,5.58-3.64v-.12c0-.53-.27-1.25-1.73-1.25-.97,0-2,.33-2.63.72l-.54-1.91c.66-.37,1.96-.86,3.7-.86,3.17,0,4.16,1.87,4.16,4.12v3.33ZM154.88,59.1c-1.56,0-2.76.37-2.76,1.5,0,.76.51,1.13,1.17,1.13.72,0,1.34-.49,1.54-1.09.04-.16.06-.33.06-.51v-1.03Z"/>
      <path class="st5" d="M163.24,51.51v2.57h2.12v2.18h-2.12v3.44c0,1.15.29,1.67,1.17,1.67.41,0,.6-.02.88-.08l.02,2.24c-.37.14-1.09.25-1.91.25-.95,0-1.75-.33-2.24-.82-.54-.56-.82-1.48-.82-2.82v-3.89h-1.26v-2.18h1.26v-1.77l2.9-.8Z"/>
      <path class="st5" d="M167.07,57.21c0-1.4-.02-2.32-.08-3.13h2.53l.12,1.75h.08c.49-1.4,1.63-1.98,2.57-1.98.27,0,.41.02.62.06v2.78c-.23-.04-.47-.08-.8-.08-1.09,0-1.83.58-2.02,1.5-.04.19-.06.43-.06.66v4.83h-2.96v-6.38Z"/>
      <path class="st5" d="M177.51,51.43c0,.82-.6,1.48-1.6,1.48-.93,0-1.54-.66-1.54-1.48s.62-1.48,1.58-1.48,1.54.64,1.56,1.48ZM174.46,63.59v-9.51h2.96v9.51h-2.96Z"/>
      <path class="st5" d="M186.05,62.38h-.04c-.6.91-1.56,1.42-2.84,1.42-2.06,0-3.93-1.83-3.93-4.84,0-3.42,2.16-5.12,4.2-5.12,1.23,0,2.12.45,2.67,1.34l.04.02.08-1.13h2.84c-.02.93-.06,1.87-.06,2.86v10.51h-2.96v-5.06ZM186.05,58.06c0-.17-.02-.33-.06-.49-.16-.76-.8-1.42-1.71-1.42-1.34,0-2.04,1.15-2.04,2.68s.78,2.63,2.02,2.63c.84,0,1.52-.56,1.71-1.34.06-.19.08-.45.08-.64v-1.42Z"/>
      <path class="st5" d="M200.33,60.54c0,1.25.04,2.26.08,3.05h-2.57l-.14-1.34h-.06c-.37.58-1.26,1.56-2.98,1.56-1.95,0-3.35-1.21-3.35-4.14v-5.58h2.96v5.12c0,1.38.45,2.22,1.5,2.22.82,0,1.3-.56,1.48-1.03.08-.17.12-.39.12-.64v-5.66h2.96v6.46Z"/>
      <path class="st5" d="M204.98,59.78c.08,1.23,1.3,1.81,2.68,1.81,1.01,0,1.83-.14,2.63-.41l.39,2c-.97.41-2.16.6-3.44.6-3.23,0-5.08-1.87-5.08-4.84,0-2.41,1.5-5.08,4.81-5.08,3.07,0,4.24,2.39,4.24,4.75,0,.51-.06.95-.1,1.17h-6.13ZM208.46,57.75c0-.72-.31-1.93-1.67-1.93-1.24,0-1.75,1.15-1.83,1.93h3.5Z"/>
      <path class="st5" d="M212.95,61.02c.54.33,1.67.7,2.55.7s1.27-.29,1.27-.78-.29-.74-1.38-1.11c-1.98-.66-2.74-1.73-2.72-2.86,0-1.79,1.52-3.13,3.87-3.13,1.11,0,2.08.27,2.67.56l-.51,2.04c-.43-.23-1.26-.54-2.06-.54-.72,0-1.13.29-1.13.76s.37.7,1.54,1.11c1.81.62,2.55,1.56,2.57,2.94,0,1.79-1.38,3.09-4.11,3.09-1.24,0-2.35-.29-3.07-.68l.53-2.1Z"/>
    </g>
  </g>
  <g>
    <g class="st3">
      <g class="st3">
        <path class="st4" d="M23.85,31.68v8.19c0,1.11.34,1.36,1.79,1.36v.1h-6.98v-.1c1.45,0,1.84-.24,1.84-1.36v-8.19H1.81v-.29c8.48-3.92,13.76-10.46,10.08-22.14l3.15-2.18c3.29,14.68-2.52,20.64-11.77,24.13h17.25V14.96l.73-1.45h2.62v17.68h5.52v.48h-5.52Z"/>
      </g>
      <g class="st3">
        <path class="st1" d="M23.85,31.68v8.19c0,1.11.34,1.36,1.79,1.36v.1h-6.98v-.1c1.45,0,1.84-.24,1.84-1.36v-8.19H1.81v-.29c8.48-3.92,13.76-10.46,10.08-22.14l3.15-2.18c3.29,14.68-2.52,20.64-11.77,24.13h17.25V14.96l.73-1.45h2.62v17.68h5.52v.48h-5.52Z"/>
      </g>
    </g>
    <g class="st3">
      <g class="st3">
        <path class="st4" d="M24.16,11.2c-.36.6-.98.9-1.63.9-1.02,0-2.06-.75-2.06-2.17,0-1.24.94-2.25,2.1-2.25.59,0,1.21.26,1.56.68l-2.32,2.32-.06-.06,1.79-1.78c.11-.11.11-.24,0-.36-.33-.4-.85-.66-1.31-.66-.73,0-1.38.72-1.38,1.55,0,1.66,1.07,2.38,2.02,2.38.5,0,.98-.21,1.2-.61l.07.05ZM22.94,7.35l-1.29-.53.27-.44,1.07.91-.05.06Z"/>
        <path class="st4" d="M31.14,12v.02h-1.12v-.02c.24,0,.3-.04.3-.23v-2.34c0-1.01-.54-1.51-1.08-1.51s-1.09.5-1.09,1.51v2.34c0,.19.06.23.3.23v.02h-1.13v-.02c.24,0,.31-.04.31-.23v-2.34c0-1.01-.54-1.51-1.08-1.51s-1.09.5-1.09,1.51v2.34c0,.19.06.23.3.23v.02h-1.13v-.02c.24,0,.3-.04.3-.23v-3.55c0-.24-.08-.37-.28-.37h0s.64-.17.64-.17c.09-.02.16.02.16.12v.97c.24-.74.77-1.1,1.3-1.1.57,0,1.14.42,1.33,1.19.23-.81.79-1.18,1.35-1.18.71,0,1.41.61,1.41,1.75v2.34c0,.19.06.23.3.23Z"/>
        <path class="st4" d="M35.36,11.2c-.36.6-.98.9-1.63.9-1.02,0-2.06-.75-2.06-2.17,0-1.24.94-2.25,2.1-2.25.59,0,1.21.26,1.56.68l-2.32,2.32-.06-.06,1.79-1.78c.11-.11.11-.24,0-.36-.33-.4-.85-.66-1.31-.66-.73,0-1.38.72-1.38,1.55,0,1.66,1.07,2.38,2.02,2.38.5,0,.98-.21,1.2-.61l.07.05Z"/>
      </g>
      <g class="st3">
        <path class="st0" d="M24.16,11.2c-.36.6-.98.9-1.63.9-1.02,0-2.06-.75-2.06-2.17,0-1.24.94-2.25,2.1-2.25.59,0,1.21.26,1.56.68l-2.32,2.32-.06-.06,1.79-1.78c.11-.11.11-.24,0-.36-.33-.4-.85-.66-1.31-.66-.73,0-1.38.72-1.38,1.55,0,1.66,1.07,2.38,2.02,2.38.5,0,.98-.21,1.2-.61l.07.05ZM22.94,7.35l-1.29-.53.27-.44,1.07.91-.05.06Z"/>
        <path class="st0" d="M31.14,12v.02h-1.12v-.02c.24,0,.3-.04.3-.23v-2.34c0-1.01-.54-1.51-1.08-1.51s-1.09.5-1.09,1.51v2.34c0,.19.06.23.3.23v.02h-1.13v-.02c.24,0,.31-.04.31-.23v-2.34c0-1.01-.54-1.51-1.08-1.51s-1.09.5-1.09,1.51v2.34c0,.19.06.23.3.23v.02h-1.13v-.02c.24,0,.3-.04.3-.23v-3.55c0-.24-.08-.37-.28-.37h0s.64-.17.64-.17c.09-.02.16.02.16.12v.97c.24-.74.77-1.1,1.3-1.1.57,0,1.14.42,1.33,1.19.23-.81.79-1.18,1.35-1.18.71,0,1.41.61,1.41,1.75v2.34c0,.19.06.23.3.23Z"/>
        <path class="st0" d="M35.36,11.2c-.36.6-.98.9-1.63.9-1.02,0-2.06-.75-2.06-2.17,0-1.24.94-2.25,2.1-2.25.59,0,1.21.26,1.56.68l-2.32,2.32-.06-.06,1.79-1.78c.11-.11.11-.24,0-.36-.33-.4-.85-.66-1.31-.66-.73,0-1.38.72-1.38,1.55,0,1.66,1.07,2.38,2.02,2.38.5,0,.98-.21,1.2-.61l.07.05Z"/>
      </g>
    </g>
  </g>
</svg>