<?xml version="1.0" encoding="UTF-8"?>
<svg id="Calque_1" xmlns="http://www.w3.org/2000/svg" version="1.1" viewBox="0 0 111.96 15.47">
  <!-- Generator: Adobe Illustrator 30.2.1, SVG Export Plug-In . SVG Version: 2.1.1 Build 1)  -->
  <defs>
    <style>
      .st0 {
        fill: #1a8c93;
      }
    </style>
  </defs>
  <path class="st0" d="M0,8.51c20.4-.36,40.81-.44,61.22-.48,0,0,.12.31.12.31l2.12,5.4-.92.05,3.28-12.22.42-1.57.53,1.54,3.05,8.93-.88-.11c.34-.51,3.31-5.09,3.56-5.47.24.56,1.39,3.29,1.66,3.9l-.45-.3c12.76.04,25.51.11,38.27.49-12.86.38-25.72.44-38.59.49.02-.02-1.39-3.2-1.43-3.35,0,0,.86.08.86.08-.39.61-3.29,5.07-3.6,5.55-.05-.11-3.23-9.45-3.38-9.89,0,0,.95-.03.95-.03-.23.84-3.55,13.15-3.68,13.64,0,0-.54-1.38-.54-1.38l-2.11-5.4.45.31c-20.3-.04-40.59-.12-60.89-.48h0Z"/>
</svg>