<?xml version="1.0" encoding="UTF-8"?>
<svg id="Calque_1" xmlns="http://www.w3.org/2000/svg" version="1.1" viewBox="0 0 100.41 15.47">
  <!-- Generator: Adobe Illustrator 30.2.1, SVG Export Plug-In . SVG Version: 2.1.1 Build 1)  -->
  <defs>
    <style>
      .st0 {
        fill: #158a92;
      }
    </style>
  </defs>
  <path class="st0" d="M0,8.51c8.94-.36,17.88-.44,26.83-.48,0,0,.33,0,.33,0l.12.31s2.12,5.4,2.12,5.4l-.92.05,3.28-12.22.42-1.57.53,1.54,3.05,8.93-.88-.11,3.06-4.69.5-.77c.23.55,1.4,3.29,1.66,3.9,0,0-.45-.3-.45-.3,20.26.04,40.52.11,60.77.49-20.36.38-40.73.44-61.1.49,0,0-.13-.3-.13-.3l-1.3-3.05s.86.08.86.08c-.39.61-3.29,5.07-3.6,5.55-.03-.12-3.24-9.45-3.38-9.89,0,0,.95-.03.95-.03-.22.84-3.56,13.16-3.68,13.64-.34-.88-2.26-5.79-2.65-6.78,0,0,.45.31.45.31-8.94-.04-17.89-.12-26.83-.48h0Z"/>
</svg>