<?xml version="1.0" encoding="UTF-8"?>
<svg id="Calque_1" xmlns="http://www.w3.org/2000/svg" version="1.1" viewBox="0 0 16.84 18.88">
  <!-- Generator: Adobe Illustrator 30.2.1, SVG Export Plug-In . SVG Version: 2.1.1 Build 1)  -->
  <defs>
    <style>
      .st0 {
        fill: #1a8c93;
      }
    </style>
  </defs>
  <path class="st0" d="M14.95,18.88H1.89C.79,18.66,0,17.79,0,16.63V4.28c0-1.23.95-2.22,2.19-2.24h.74s.01-.65.01-.65c.01-.68.49-1.27,1.18-1.38.83-.13,1.56.55,1.57,1.38v.64s1.42,0,1.42,0v-.63c.02-.69.5-1.3,1.21-1.4.81-.11,1.54.54,1.55,1.35v.68s1.42,0,1.42,0l.02-.68c.02-.66.49-1.22,1.15-1.34.84-.15,1.6.53,1.61,1.38v.64s.55,0,.55,0c1.25,0,2.23.99,2.23,2.24v12.38c0,1.15-.82,2-1.89,2.22ZM4.91,4.03V1.34c0-.33-.32-.56-.6-.56s-.59.25-.59.57v2.68c0,.33.3.57.59.58s.6-.23.6-.57ZM9.1,4V1.37c0-.33-.29-.58-.59-.59-.28,0-.61.22-.61.55v2.71c0,.33.33.56.6.56.3,0,.59-.25.59-.6ZM13.28,4.03V1.34c0-.33-.32-.56-.6-.56s-.59.25-.59.57v2.68c0,.33.3.57.59.58s.6-.23.6-.57ZM14.63,17.59c.54-.02.9-.4.92-.92V5.28s-14.25,0-14.25,0v11.38c0,.53.4.92.93.92h12.39Z"/>
  <rect class="st0" x="2.46" y="7.58" width="2.38" height="2.12"/>
  <rect class="st0" x="5.64" y="7.58" width="2.38" height="2.12"/>
  <rect class="st0" x="8.82" y="7.58" width="2.38" height="2.12"/>
  <rect class="st0" x="12" y="7.58" width="2.38" height="2.12"/>
  <rect class="st0" x="2.46" y="10.4" width="2.38" height="2.12"/>
  <rect class="st0" x="12" y="10.4" width="2.38" height="2.12"/>
  <rect class="st0" x="5.64" y="10.4" width="2.38" height="2.12"/>
  <rect class="st0" x="8.82" y="10.4" width="2.38" height="2.12"/>
  <rect class="st0" x="2.46" y="13.23" width="2.38" height="2.12"/>
  <rect class="st0" x="5.64" y="13.23" width="2.38" height="2.12"/>
  <rect class="st0" x="8.82" y="13.23" width="2.38" height="2.12"/>
  <rect class="st0" x="12" y="13.23" width="2.38" height="2.12"/>
</svg>