<?xml version="1.0" encoding="UTF-8"?>
<svg id="Calque_1" xmlns="http://www.w3.org/2000/svg" version="1.1" viewBox="0 0 35.03 35.03">
  <!-- Generator: Adobe Illustrator 30.2.1, SVG Export Plug-In . SVG Version: 2.1.1 Build 1)  -->
  <defs>
    <style>
      .st0 {
        fill: #fff;
      }

      .st1 {
        fill: none;
        stroke: #198d93;
        stroke-miterlimit: 10;
        stroke-width: .47px;
      }
    </style>
  </defs>
  <g>
    <path class="st0" d="M25.01,28.36h-15c-1.26-.25-2.17-1.26-2.17-2.59v-14.18c0-1.41,1.1-2.55,2.51-2.57h.85s.01-.75.01-.75c.01-.78.57-1.46,1.36-1.58.95-.15,1.8.63,1.81,1.59v.74s1.63,0,1.63,0v-.72c.03-.8.58-1.49,1.39-1.61.93-.13,1.77.62,1.78,1.55l.02.78h1.61s.02-.78.02-.78c.02-.76.56-1.4,1.32-1.54.96-.17,1.83.61,1.85,1.58v.74s.63,0,.63,0c1.44.01,2.56,1.14,2.56,2.57v14.22c0,1.32-.94,2.3-2.17,2.55ZM13.48,11.3v-3.09c0-.38-.37-.65-.69-.64s-.68.28-.68.66v3.07c0,.38.35.66.68.66s.69-.27.69-.66ZM18.29,11.27v-3.03c0-.38-.34-.66-.67-.67-.32,0-.7.26-.7.64v3.12c0,.38.38.65.69.64.34,0,.68-.29.68-.69ZM23.1,11.3v-3.09c0-.38-.37-.65-.69-.64s-.68.28-.68.66v3.08c0,.38.35.66.68.66s.69-.27.69-.66ZM24.64,26.87c.62-.02,1.04-.46,1.05-1.06v-13.07s-16.36,0-16.36,0v13.07c.01.61.46,1.06,1.07,1.06h14.24Z"/>
    <rect class="st0" x="10.67" y="15.37" width="2.73" height="2.43"/>
    <rect class="st0" x="14.32" y="15.37" width="2.74" height="2.43"/>
    <rect class="st0" x="17.97" y="15.37" width="2.73" height="2.43"/>
    <rect class="st0" x="21.62" y="15.37" width="2.74" height="2.43"/>
    <rect class="st0" x="10.67" y="18.62" width="2.73" height="2.43"/>
    <rect class="st0" x="21.62" y="18.62" width="2.74" height="2.43"/>
    <rect class="st0" x="14.32" y="18.62" width="2.74" height="2.43"/>
    <rect class="st0" x="17.97" y="18.62" width="2.73" height="2.43"/>
    <rect class="st0" x="10.67" y="21.87" width="2.73" height="2.43"/>
    <rect class="st0" x="14.32" y="21.87" width="2.74" height="2.43"/>
    <rect class="st0" x="17.97" y="21.87" width="2.73" height="2.43"/>
    <rect class="st0" x="21.62" y="21.87" width="2.74" height="2.43"/>
  </g>
  <circle class="st1" cx="17.51" cy="17.51" r="17.28"/>
</svg>