<?xml version="1.0" encoding="UTF-8"?>
<svg id="Calque_1" xmlns="http://www.w3.org/2000/svg" version="1.1" viewBox="0 0 8.92 6.8">
  <!-- Generator: Adobe Illustrator 30.2.1, SVG Export Plug-In . SVG Version: 2.1.1 Build 1)  -->
  <defs>
    <style>
      .st0 {
        fill: #203359;
      }
    </style>
  </defs>
  <path class="st0" d="M3.46.65c-1.11.62-1.93,1.48-2.1,2.8.68-.36,1.7-.09,2.16.5.47.57.51,1.35.15,1.99-.21.38-.52.67-.95.79-.67.19-1.42.02-1.92-.49-.33-.33-.56-.73-.68-1.18-.39-1.48.18-2.95,1.27-3.98C1.87.63,2.4.28,3.01,0l.45.65Z"/>
  <path class="st0" d="M8.47.65c-.43.24-.79.49-1.12.82-.54.53-.88,1.21-.97,1.97.62-.32,1.52-.13,2,.35.6.56.72,1.43.31,2.14-.22.38-.52.68-.96.8-.67.19-1.43.02-1.92-.49-.33-.34-.56-.74-.68-1.2-.23-.92-.11-1.87.33-2.71.55-1.05,1.5-1.85,2.56-2.33l.45.65Z"/>
</svg>