<svg width="96" height="96" viewBox="0 0 96 96" fill="none" xmlns="http://www.w3.org/2000/svg" role="img" aria-label="GMUP">
  <rect x="4" y="4" width="88" height="88" rx="22" fill="#1F3454"/>
  <rect x="4" y="4" width="88" height="88" rx="22" fill="url(#gmupGlow)" fill-opacity="0.25"/>
  <path
    d="M48 72C48 72 24 58.5 24 41.5C24 33.4 30.3 27 38 27C42.6 27 46.2 29.4 48 32.9C49.8 29.4 53.4 27 58 27C65.7 27 72 33.4 72 41.5C72 58.5 48 72 48 72Z"
    fill="none" stroke="#DF606B" stroke-width="3" stroke-linejoin="round"/>
  <path
    d="M26 47H37L41 39L46 55L51 43L54 47H70"
    fill="none" stroke="#5FD3D3" stroke-width="3.2" stroke-linecap="round" stroke-linejoin="round"/>
  <defs>
    <linearGradient id="gmupGlow" x1="4" y1="4" x2="92" y2="92" gradientUnits="userSpaceOnUse">
      <stop stop-color="#2E818A"/>
      <stop offset="1" stop-color="#1F3454" stop-opacity="0"/>
    </linearGradient>
  </defs>
</svg>
