<?xml version="1.0" encoding="UTF-8"?>
<svg id="Calque_1" xmlns="http://www.w3.org/2000/svg" version="1.1" viewBox="0 0 511.99 488.23">
  <!-- Generator: Adobe Illustrator 30.2.1, SVG Export Plug-In . SVG Version: 2.1.1 Build 1)  -->
  <defs>
    <style>
      .st0 {
        font-size: 41.72px;
      }

      .st0, .st1 {
        font-family: Calibri-Bold, Calibri;
        font-weight: 700;
      }

      .st0, .st1, .st2 {
        fill: #fff;
      }

      .st1 {
        font-size: 41.92px;
      }

      .st3 {
        font-size: 29.24px;
      }

      .st3, .st4, .st5, .st6, .st7, .st8, .st9, .st10, .st11, .st12, .st13, .st14, .st15, .st16, .st17, .st18, .st19, .st20, .st21, .st22, .st23, .st24, .st25, .st26, .st27, .st28, .st29, .st30, .st31, .st32, .st33, .st34, .st35, .st36, .st37, .st38, .st39, .st40, .st41 {
        font-family: Helvetica, Helvetica;
      }

      .st3, .st4, .st5, .st6, .st7, .st8, .st9, .st10, .st11, .st12, .st13, .st14, .st15, .st16, .st17, .st18, .st19, .st20, .st21, .st22, .st23, .st24, .st25, .st26, .st27, .st28, .st29, .st30, .st31, .st32, .st33, .st34, .st35, .st36, .st37, .st38, .st39, .st40, .st41, .st42 {
        fill: #1e3259;
      }

      .st4 {
        font-size: 29.24px;
      }

      .st5 {
        font-size: 29.24px;
      }

      .st6 {
        font-size: 29.24px;
      }

      .st7 {
        font-size: 29.24px;
      }

      .st8 {
        font-size: 29.24px;
      }

      .st9 {
        font-size: 29.24px;
      }

      .st10 {
        font-size: 29.24px;
      }

      .st11 {
        font-size: 29.24px;
      }

      .st12 {
        font-size: 29.24px;
      }

      .st13 {
        font-size: 29.24px;
      }

      .st14 {
        font-size: 29.24px;
      }

      .st15 {
        font-size: 29.24px;
      }

      .st16 {
        font-size: 29.24px;
      }

      .st17 {
        font-size: 29.24px;
      }

      .st18 {
        font-size: 29.24px;
      }

      .st19 {
        font-size: 29.24px;
      }

      .st20 {
        font-size: 29.24px;
      }

      .st21 {
        font-size: 29.24px;
      }

      .st22 {
        font-size: 29.24px;
      }

      .st23 {
        font-size: 29.24px;
      }

      .st24 {
        font-size: 29.24px;
      }

      .st25 {
        font-size: 29.24px;
      }

      .st26 {
        font-size: 29.24px;
      }

      .st27 {
        font-size: 29.24px;
      }

      .st28 {
        font-size: 29.24px;
      }

      .st29 {
        font-size: 29.24px;
      }

      .st30 {
        font-size: 29.24px;
      }

      .st31 {
        font-size: 29.24px;
      }

      .st32 {
        font-size: 29.24px;
      }

      .st33 {
        font-size: 29.24px;
      }

      .st34 {
        font-size: 29.24px;
      }

      .st35 {
        font-size: 29.24px;
      }

      .st36 {
        font-size: 29.24px;
      }

      .st37 {
        font-size: 29.24px;
      }

      .st38 {
        font-size: 29.24px;
      }

      .st39 {
        font-size: 29.24px;
      }

      .st40 {
        font-size: 29.24px;
      }

      .st41 {
        font-size: 29.24px;
      }

      .st43 {
        fill: #158c93;
      }

      .st44 {
        fill: #eb5c65;
      }
    </style>
  </defs>
  <path class="st42" d="M477.27,269.21c0,120.96-98.06,219.02-219.02,219.02S39.23,390.17,39.23,269.21,137.29,50.19,258.25,50.19s219.02,98.06,219.02,219.02"/>
  <path class="st43" d="M448.63,269.21c0,105.15-85.24,190.38-190.38,190.38s-190.38-85.23-190.38-190.38,85.24-190.38,190.38-190.38,190.38,85.23,190.38,190.38"/>
  <path class="st44" d="M415.3,269.21c0,86.74-70.32,157.05-157.05,157.05s-157.05-70.32-157.05-157.05,70.32-157.05,157.05-157.05,157.05,70.32,157.05,157.05"/>
  <path class="st2" d="M161.78,339.31h74.72s14.33,3.07,2.56,12.29c-36.85,0-81.89,2.05-81.89,2.05,0,0-59.37-40.94,26.1-95.71-9.72-17.91-34.8-57.32,20.99-95.2,9.21-4.61,79.84-12.29,80.36,52.71.51,15.36-3.08,26.62-11.26,31.73-3.07,1.02-11.26,1.02-9.21-10.24,2.05-11.26,12.79-42.99-21.5-59.88-4.09-3.07-55.78-11.26-60.39,41.45-.51,5.63,6.65,29.69,21.49,38.39-1.02,5.63-3.58,7.68-3.58,7.68,0,0-47.09,14.84-50.16,55.28,1.02,6.65,3.58,17.4,11.77,19.45"/>
  <text class="st20" transform="translate(25.1 275.54) rotate(-89.22)"><tspan x="0" y="0">G</tspan></text>
  <text class="st10" transform="translate(25.82 253.81) rotate(-83.87)"><tspan x="0" y="0">R</tspan></text>
  <text class="st37" transform="translate(26.84 232.99) rotate(-78.51)"><tspan x="0" y="0">O</tspan></text>
  <text class="st12" transform="translate(32.43 212.6) rotate(-73.16)"><tspan x="0" y="0">U</tspan></text>
  <text class="st6" transform="translate(37.19 191.12) rotate(-68.21)"><tspan x="0" y="0">P</tspan></text>
  <text class="st26" transform="translate(44.41 173.91) rotate(-63.47)"><tspan x="0" y="0">E</tspan></text>
  <text class="st28" transform="translate(54.05 156.52) rotate(-60.13)"><tspan x="0" y="0"> </tspan></text>
  <text class="st23" transform="translate(56.54 149.22) rotate(-56.21)"><tspan x="0" y="0">M</tspan></text>
  <text class="st3" transform="translate(69.62 129.73) rotate(-50.92)"><tspan x="0" y="0">A</tspan></text>
  <text class="st36" transform="translate(81.78 114.39) rotate(-46.01)"><tspan x="0" y="0">R</tspan></text>
  <text class="st16" transform="translate(97.51 100.26) rotate(-40.71)"><tspan x="0" y="0">O</tspan></text>
  <text class="st25" transform="translate(114 86.18) rotate(-35.39)"><tspan x="0" y="0">C</tspan></text>
  <text class="st29" transform="translate(130.94 73.19) rotate(-30.44)"><tspan x="0" y="0">A</tspan></text>
  <text class="st27" transform="translate(147.44 63.67) rotate(-27.06)"><tspan x="0" y="0">I</tspan></text>
  <text class="st31" transform="translate(154.66 60.38) rotate(-23.49)"><tspan x="0" y="0">N</tspan></text>
  <text class="st24" transform="translate(173.31 52.57) rotate(-19.91)"><tspan x="0" y="0"> </tspan></text>
  <text class="st33" transform="translate(181.1 48.72) rotate(-16.35)"><tspan x="0" y="0">D</tspan></text>
  <text class="st39" transform="translate(200.18 43.28) rotate(-11.42)"><tspan x="0" y="0">E</tspan></text>
  <text class="st41" transform="translate(218.48 38.5) rotate(-6.03)"><tspan x="0" y="0">S</tspan></text>
  <text class="st19" transform="translate(238.49 38.02) rotate(-3.46)"><tspan x="0" y="0"> </tspan></text>
  <text class="st16" transform="translate(245.36 35.67) rotate(.07)"><tspan x="0" y="0">U</tspan></text>
  <text class="st8" transform="translate(266.57 36.56) rotate(5.22)"><tspan x="0" y="0">R</tspan></text>
  <text class="st13" transform="translate(288.43 39.39) rotate(10.57)"><tspan x="0" y="0">G</tspan></text>
  <text class="st15" transform="translate(310.11 43.78) rotate(15.74)"><tspan x="0" y="0">E</tspan></text>
  <text class="st17" transform="translate(327.77 48.67) rotate(20.69)"><tspan x="0" y="0">N</tspan></text>
  <text class="st35" transform="translate(346.63 54.44) rotate(25.82)"><tspan x="0" y="0">C</tspan></text>
  <text class="st4" transform="translate(364.85 63.56) rotate(30.73)"><tspan x="0" y="0">E</tspan></text>
  <text class="st9" transform="translate(382.97 74.67) rotate(35.45)"><tspan x="0" y="0">S</tspan></text>
  <text class="st5" transform="translate(397.62 85.12) rotate(38.77)"><tspan x="0" y="0"> </tspan></text>
  <text class="st32" transform="translate(403.73 90.85) rotate(42.11)"><tspan x="0" y="0">P</tspan></text>
  <text class="st38" transform="translate(417.22 102.04) rotate(46.82)"><tspan x="0" y="0">E</tspan></text>
  <text class="st40" transform="translate(431.41 115.95) rotate(51.74)"><tspan x="0" y="0">D</tspan></text>
  <text class="st18" transform="translate(444.13 133.7) rotate(55.29)"><tspan x="0" y="0">I</tspan></text>
  <text class="st14" transform="translate(448.36 140.21) rotate(58.66)"><tspan x="0" y="0">A</tspan></text>
  <text class="st30" transform="translate(457.56 153.45) rotate(62.7)"><tspan x="0" y="0">T</tspan></text>
  <text class="st22" transform="translate(465.63 169.06) rotate(67.46)"><tspan x="0" y="0">R</tspan></text>
  <text class="st21" transform="translate(473.19 189.48) rotate(71.03)"><tspan x="0" y="0">I</tspan></text>
  <text class="st11" transform="translate(476.55 197.39) rotate(74.79)"><tspan x="0" y="0">Q</tspan></text>
  <text class="st34" transform="translate(481.91 216.8) rotate(80.09)"><tspan x="0" y="0">U</tspan></text>
  <text class="st24" transform="translate(485.26 237.65) rotate(84.94)"><tspan x="0" y="0">E</tspan></text>
  <text class="st7" transform="translate(486.5 256.4) rotate(89.64)"><tspan x="0" y="0">S</tspan></text>
  <text class="st1" transform="translate(348.27 196.14)"><tspan x="0" y="0">G</tspan></text>
  <text class="st1" transform="translate(343.32 243.76)"><tspan x="0" y="0">M</tspan></text>
  <text class="st1" transform="translate(350.49 358.51)"><tspan x="0" y="0">P</tspan></text>
  <text class="st0" transform="translate(347.97 295.21)"><tspan x="0" y="0">U</tspan></text>
  <path class="st2" d="M389.79,306.42h-14.53c-7.79,0-15.59.03-23.38.01-1.77,0-3.07.48-3.72,2.35-.58,1.64-1.47,3.18-2.42,5.2-.26-1.49-.45-2.5-.62-3.51-1.98-12.44-3.97-24.87-5.93-37.3-.21-1.33-1.18-2.14-2.18-2.42-3.29-.93-5.54.57-5.95,3.98-.37,3-.52,6.03-.62,9.05-.34,10.03-.61,20.07-.93,30.11-.03.82-.16,1.66-.38,2.46-3.46,12.37-6.94,24.73-10.42,37.09-.09.33-.24.65-.48,1.28-.08-.66-.13-.96-.16-1.27-1.26-15.21-2.55-30.42-3.76-45.64-1.36-17.09-2.82-34.18-3.92-51.29-1.21-18.68-2.75-37.32-5.07-55.89-.28-2.23-1.19-2.84-4.2-2.73-1.56.06-2.99,1.5-3.08,3.08-.1,1.61-.2,3.21-.34,4.81-.51,5.99-1.06,11.97-1.54,17.95-.27,3.36-.43,6.74-.68,10.09-.12,1.55-.32,3.08-.49,4.63-.34,3.03-.7,6.06-1,9.09-.16,1.6-.22,3.21-.32,4.81-.63,10.44-1.26,20.88-1.9,31.32-.21,3.42-.43,6.85-.65,10.27-.43.1-.68.17-.93.21-2.45.34-3.37,1.15-3.94,3.48-.46,1.87-.91,3.76-1.39,5.62-1.05,4.03-2.12,8.06-3.18,12.08-.52-2.44-.71-4.88-.87-7.31-.75-11.1-1.48-22.22-2.24-33.33-.2-2.87-3.26-4.22-5.71-2.74-1.97,1.2-2.57,3.04-3.03,5.07-2.03,9.02-4.1,18.03-6.11,27.06-.23,1.04-.6,1.42-1.73,1.42-10.25-.06-20.5-.02-30.75-.07-7.16-.03-13.05-.09-20.21-.16,0,0-2.92.76-2.97,4.24-.05,3.34,1.83,4.79,5.14,4.77,5.91-.03,11.81-.14,17.71-.19,10.3-.1,20.6-.19,30.9-.3,1.78-.02,3.56-.06,5.33-.19,1.97-.15,3.47-1.47,3.98-3.38.49-1.77.97-3.54,1.44-5.31.77,7.57,1.2,15.09,1.73,22.59.49,7.04,1.06,14.07,1.68,21.1.21,2.24,2.08,3.87,4.06,3.87,1.86,0,3.85-1.77,4.22-3.77,1.48-8.17,2.95-16.33,4.44-24.49.37-2.03.77-4.04,1.17-6.16.56.25.89.38,1.22.54,2.64,1.26,5.22-.16,5.5-3.12.47-4.83.85-9.68,1.27-14.52,1-11.61,2.01-23.23,3.02-34.84.34-3.94.69-7.88,1.03-11.82.06,0,.12,0,.19,0,3.3,45.03,6.6,90.06,9.9,135.09.05.8.12,1.59.17,2.38h.02c.03.56.06,1.13.11,1.69.14,1.61.24,3.21.34,4.81.09,1.59,1.52,3.03,3.08,3.08,3,.11,3.91-.5,4.2-2.73.27-2.23.54-4.45.8-6.68,0-.06.01-.12.02-.19.09-.79.19-1.58.27-2.38h-.03c.05-.36.11-.72.16-1.04,1.37-8.3,2.88-16.56,4.2-24.87,2.01-12.7,4.15-25.35,8.69-37.45,1.67-4.44,2.5-9.03,2.6-13.78.04-2.01.25-4.02.38-6.04.56,2.19.91,4.4,1.22,6.61,1.02,7.23,2.03,14.47,3.07,21.7.06.43.17,1.01.47,1.22,1.06.74,4.03-.21,4.55-1.39,2.73-6.28,5.47-12.54,8.12-18.84.45-1.05,1-1.35,2.08-1.33,11.1.11,22.19.23,33.28.31h2.69v-8.06l-2.69-.02ZM212.92,308.93c-1.08.03-1.66.12-1.89.47.17-.43.67-.43,1.89-.47M211.03,309.42c-.1.16-.11.39-.06.69-.01-.31,0-.53.06-.69M210.97,310.16c.06.32.2.72.39,1.22-.09,0-.2-.01-.27-.01-.05-.51-.1-.89-.12-1.21"/>
</svg>