<?xml version="1.0" encoding="UTF-8"?>
<svg id="Calque_1" xmlns="http://www.w3.org/2000/svg" version="1.1" viewBox="0 0 74.49 75">
  <!-- Generator: Adobe Illustrator 30.2.1, SVG Export Plug-In . SVG Version: 2.1.1 Build 1)  -->
  <defs>
    <style>
      .st0 {
        fill: #008d93;
      }

      .st1 {
        font-size: 6.18px;
      }

      .st1, .st2, .st3 {
        fill: #fff;
      }

      .st1, .st3 {
        font-family: Calibri-Bold, Calibri;
        font-weight: 700;
      }

      .st4 {
        fill: #008c93;
      }

      .st5 {
        fill: #1b335a;
      }

      .st6 {
        fill: #e94f63;
      }

      .st3 {
        font-size: 6.21px;
      }
    </style>
  </defs>
  <g>
    <g>
      <path class="st5" d="M3.79,44.19c.08,0,.22.04.42.13.2.09.32.17.38.24-.16,0-.28.12-.34.33-.05.17-.12.43-.21.77l-.7-.34c0-.06,0-.11,0-.17l-1.62.25c-.09.02-.25-.02-.47-.1-.2-.07-.35-.14-.45-.21-.22-.15-.4-.36-.54-.64-.14-.28-.22-.56-.24-.85-.02-.33.04-.6.16-.8.14-.23.35-.36.63-.37.22-.01.5.06.86.22.33.15.59.31.78.49h-.1c-.45-.21-.77-.32-.95-.31-.19.01-.35.12-.46.32-.11.18-.15.39-.14.61.01.18.05.4.14.68.1.35.21.52.31.51l2.1-.4c.13-.02.23-.09.29-.19s.12-.15.17-.16Z"/>
      <path class="st5" d="M4.09,46.16c.16.09.39.24.69.43-.22.05-.51.12-.87.21l-1.1.28c-.16.04-.32.08-.48.11-.08.03-.12.08-.11.17l.07.51-.77.11-.17-1.16s.26-.08.77-.2l1.97-.47Z"/>
      <path class="st5" d="M2.17,50.81l-.71-3.09.77-.17.16.68c.13-.02.22-.02.28,0,.04.01.13.06.29.14.22.13.44.3.66.51.26.25.41.49.46.7.03.15-.02.28-.17.4-.12.1-.25.16-.4.2-.11.03-.2.03-.27,0l-.43-.16.14.63-.76.17ZM2.62,49.29c.04.18.12.3.22.37.11-.02.2-.08.27-.16.08-.09.1-.19.08-.31-.02-.07-.07-.17-.17-.31-.1-.15-.18-.21-.24-.2-.07.02-.12.1-.15.26-.03.14-.03.26-.01.35ZM4.51,47.31s.16.07.37.23c.21.16.32.26.33.3,0,.02-.05.16-.17.41-.12.25-.19.38-.21.39-.04,0-.15-.07-.34-.24-.18-.17-.28-.28-.29-.33,0-.04.04-.17.13-.4.1-.23.16-.35.18-.35Z"/>
      <path class="st5" d="M4.87,50c.06-.02.19,0,.39.07.19.07.32.12.39.17-.05.03-.12.11-.21.23-.09.13-.15.41-.17.84-.23-.02-.38-.04-.43-.06-.19-.05-.3-.13-.34-.25-.15.08-.28.15-.4.19-.1.03-.33.06-.7.07.17.12.45.38.82.77.13.13.28.3.46.52.22.27.34.45.38.54.06.16.03.4-.1.72-.12.32-.26.51-.4.56l-1.08.07-1.38-3.72.74-.27.14.38c.06.15.14.21.25.17l1.06-.55c.09-.04.17-.09.26-.14.09-.05.15-.12.19-.2.03-.06.07-.1.13-.13ZM4.28,52.86c-.15-.39-.47-.78-.99-1.16,0,.02.03.09.06.18l.71,1.9c.09-.09.16-.23.21-.43.05-.2.05-.36,0-.49Z"/>
      <path class="st5" d="M7.59,56.34s.33.03.93.13c-.09.05-.16.1-.19.16-.03.05-.04.14-.03.26.02.38.02.59-.01.6l-.7-.1c-.03-.05-.05-.1-.05-.13,0-.05,0-.09-.01-.1-.21.12-.52.13-.91.05-.05-.01-.09-.02-.12-.04-.1.14-.25.33-.44.55-.05.04-.11.08-.17.11-.08.04-.25.11-.51.21l-1.01-1.82s.16-.02.42-.05l.41-.05c.07.12.2.24.4.37.18.11.33.17.46.2.04-.02.09-.16.14-.4.05-.24.06-.39.03-.43,0,0-.05-.01-.13-.02-.08-.01-.13-.03-.15-.05,0-.25.01-.41.01-.48,0-.19-.02-.35-.04-.49-.02-.11,0-.22.03-.35.04-.12.1-.2.18-.25.14-.08.43-.11.88-.11.11.19.11.67,0,1.42-.05.37-.17.82-.38,1.34.27.01.49-.04.68-.14.11-.06.17-.12.21-.18.02-.07.04-.13.07-.19ZM5.97,56.99c-.18-.05-.34-.11-.49-.19.01.05.06.15.14.3.06.11.11.19.14.23.1-.09.16-.2.2-.34ZM7.25,53.49c.12-.06.25-.07.39-.02.15.05.25.14.33.27.02.03.02.07.02.12,0,.05-.02.08-.05.1l-.21-.03c.01-.14,0-.22,0-.25-.02-.04-.09-.09-.2-.15-.03.09,0,.23.08.4.06.13.13.26.2.39-.05,0-.13-.02-.25-.04-.07-.17-.29-.36-.63-.58.07,0,.14,0,.2.03.08.05.15.09.2.12-.07-.23-.09-.36-.05-.38Z"/>
      <path class="st5" d="M8.04,57.96s.21-.05.51-.06c.29-.01.48-.01.57,0,.02.03-.26.3-.85.81-.23.2-.46.38-.68.53-.4.27-.82.38-1.27.33l1.72-1.61Z"/>
      <path class="st5" d="M10.04,63.96l-1.64-1.76c-.16-.17-.24-.36-.22-.56.01-.19.09-.36.25-.5.11-.1.34-.24.69-.39.39-.18.62-.22.69-.14-.2.1-.37.21-.49.33-.15.14-.24.31-.25.48-.01.23.07.43.23.6l1.46,1.57c.06-.01.23-.14.51-.38,0,0,.14-.01.39-.01.25,0,.39,0,.42,0l-.04.04s-.02.02-.03.03c-.01.02-.02.03-.03.04-.14.14-.34.29-.58.45-.08.05-.11.13-.11.24,0,.11.05.2.12.28l.19.21-.57.53-.37-.4c-.12-.12-.17-.25-.17-.38,0-.1.04-.23.12-.38l-.56.11ZM8.52,63.33s.13-.01.33.01c.21.02.32.05.34.07.01.01.03.13.05.35.02.22.02.34.01.34-.02.02-.13.02-.32-.03-.19-.04-.3-.08-.33-.11-.02-.02-.04-.13-.06-.33-.02-.2-.03-.3-.01-.31Z"/>
      <path class="st5" d="M12.95,62.89s.16-.09.37-.14c.2-.04.34-.06.43-.05-.02.05-.05.15-.06.31-.02.16.07.43.28.81-.22.1-.35.15-.4.17-.19.05-.32.04-.42-.04-.09.15-.17.27-.25.37-.06.08-.25.22-.57.41.21.02.57.1,1.1.25.17.05.39.12.66.21.32.12.52.21.6.28.13.11.22.33.28.67.05.34.04.57-.06.68l-.89.61-3.07-2.51.5-.61.31.26c.13.11.23.11.3.03l.64-1.01c.05-.08.1-.17.15-.25.05-.09.07-.18.06-.27,0-.07.01-.13.05-.18ZM13.89,65.66c-.32-.26-.8-.43-1.44-.51.02.02.07.06.15.13l1.58,1.28c.04-.13.02-.28-.03-.48-.06-.19-.14-.33-.25-.42Z"/>
      <path class="st5" d="M19.7,70.07c-.08.06-.2.14-.36.23-.18.11-.3.17-.37.19l-2.49-1.42c-.2-.12-.33-.27-.38-.46-.05-.18-.02-.37.09-.55.08-.13.26-.33.54-.58.32-.28.52-.4.62-.34-.16.16-.29.31-.37.46-.11.18-.14.36-.1.53.06.22.19.39.4.51l2.03,1.15.05-.11c.04-.16.03-.36-.02-.59l.76-.44c.08.45.07.77-.04.96-.08.14-.2.3-.36.46ZM19.23,66.98s.1,0,.24-.03c.16-.03.26-.04.28-.04l.44.64c-.4.14-.62.19-.67.17-.02,0-.09-.1-.22-.29-.13-.18-.21-.29-.23-.33-.15.03-.3.06-.46.1-.06-.06-.14-.16-.25-.31-.11-.15-.17-.26-.19-.33.27-.07.49-.13.67-.16.02.06.08.17.18.32.1.15.17.24.21.26Z"/>
      <path class="st5" d="M21.09,68.78s.02-.07.04-.1c.04-.1.12-.24.24-.41.12-.2.22-.32.28-.37.11.09.3.34.56.74.1.16.19.36.28.6s.14.45.15.62c.03.31-.04.67-.21,1.08-.05.11-.11.22-.18.33.05.01.12-.05.21-.17.07-.1.12-.19.16-.26.2-.08.41-.26.62-.52.1-.13.2-.3.28-.5.01-.03.03-.08.06-.16.03-.07.05-.12.06-.15.04-.09.09-.17.16-.21.02-.02.09-.06.23-.14.14-.08.22-.11.24-.1l-.68,2.36c-.03.05-.04.09-.05.11-.03.06.02.12.14.19.02,0,.1.05.26.11l-.3.72-.85-.36c.12-.34.21-.57.24-.67.11-.34.15-.56.13-.66-.3.33-.48.53-.56.6-.23.19-.49.29-.77.31-.54.03-1.31-.16-2.3-.58.14-.03.46-.04.96-.03h.89c.43,0,.68-.08.75-.2.01,0,.02-.01.03-.03.04-.09.05-.27.02-.52-.04-.35-.13-.63-.28-.85-.03.01-.06.04-.09.08-.04.05-.06.08-.07.09-.14-.18-.29-.35-.43-.53-.05-.06-.1-.12-.15-.19s-.06-.13-.04-.2Z"/>
      <path class="st5" d="M27.85,72.96l-.22.75-1.9-.57c.01-.13.03-.26.07-.37.02-.06.05-.15.09-.27-.09-.03-.21-.01-.37.05-.03.01-.15.07-.33.16-.15.07-.23.11-.25.12-.09.03-.18.03-.28,0l-1.11-.33.22-.75,1.35.4c.08.02.19.02.34,0,.15-.02.25-.06.32-.1-.04-.04-.17-.14-.42-.28-.24-.15-.4-.23-.47-.25-.12-.04-.26-.05-.41-.04-.17.01-.3.06-.37.13.21-.32.37-.52.48-.61.21-.18.47-.22.76-.13.18.05.43.18.74.39.41.28.66.43.72.47.15.08.41.17.76.28l.19.06c-.07.08-.24.25-.51.49-.23-.07-.48-.1-.74-.08-.08,0-.16.01-.24.02l1.58.47ZM25.13,73.27c.37.43.55.66.54.68,0,.02-.12.07-.35.17-.23.1-.35.14-.38.14-.06-.02-.16-.12-.3-.3-.14-.18-.21-.3-.2-.35.4-.25.63-.36.69-.34Z"/>
      <path class="st5" d="M27.55,72.84l1.32.27c-.04-.11-.11-.2-.22-.29-.1-.09-.22-.14-.34-.17.02,0-.08,0-.29-.03.01-.06.19-.26.52-.59.04-.05.17-.08.41-.09.21,0,.36,0,.46.02.22.05.42.15.61.32.2.19.28.38.24.57-.01.07-.08.16-.19.25-.12.11-.18.18-.2.21l.6.12-.16.77-1.05-.22c-.06-.11-.11-.25-.17-.43l-.16.17c-.06.06-.12.11-.18.16l-1.37-.29.16-.76Z"/>
      <path class="st5" d="M30.26,73.4l1.44.2s.09-.25.15-.61c0-.01.11-.1.31-.26.2-.16.3-.25.32-.26v.05s-.01.02-.01.04c0,.02,0,.04,0,.05-.03.2-.08.44-.17.71-.03.09,0,.18.07.26s.17.13.27.14l.28.04-.1.77-.54-.07c-.17-.02-.29-.09-.37-.19-.06-.08-.11-.21-.15-.37l-.37.44-1.23-.17.11-.77ZM31.86,71.25s.09-.04.21-.12c.14-.09.22-.13.24-.14l.65.43c-.31.28-.5.41-.56.4-.02,0-.12-.06-.31-.18-.19-.12-.3-.2-.33-.23-.13.08-.26.17-.39.26-.08-.03-.19-.1-.34-.19-.16-.1-.26-.18-.31-.23.22-.17.41-.3.57-.39.04.05.14.12.28.23.15.1.24.16.29.17Z"/>
      <path class="st5" d="M33.37,74.45c-.07.08-.16.12-.26.11l-.35-.02.04-.78.53.03c.1,0,.15-.08.16-.26.15-.2.24-.32.26-.35.14-.17.24-.27.3-.29,0,.16-.11.47-.3.92l.91.05c.09,0,.13-.06.14-.18,0-.02,0-.04,0-.06,0-.02,0-.03,0-.04.26-.35.46-.55.61-.62,0,.05,0,.12-.02.22-.01.1-.02.17-.02.22,0,.1-.05.26-.12.49l.54.03s.06-.05.06-.15c0-.02,0-.05,0-.08,0-.03,0-.05,0-.07.26-.35.43-.53.52-.52l.02.56c0,.06.03.13.08.2.05.07.1.11.17.11h.26s-.04.79-.04.79l-.62-.03s-.05-.12-.1-.22l-.17.2-1.01-.05c-.06-.09-.11-.14-.16-.14-.01,0-.04.02-.09.06-.05.04-.08.06-.11.06l-1.09-.06c-.06-.09-.11-.13-.15-.14Z"/>
      <path class="st5" d="M37.7,73.45c.1-.13.27-.26.51-.39.24-.13.44-.2.61-.2.14,0,.22.04.24.14.02.1.05.19.06.29.04.09.12.21.23.34.13.16.24.24.32.23h.34s.03.77.03.77l-.73.03s-.07.06-.12.17c-.04.11-.09.17-.15.19l-1.55-.73s-.05.07-.08.15c-.03.09-.06.16-.1.2-.06.07-.16.11-.28.11h-.37s-.03-.77-.03-.77l.73-.03s.11-.07.18-.2c.05-.09.1-.18.15-.28ZM38.49,73.55c-.2,0-.33.04-.4.1.09.05.23.12.42.2.08.04.13.05.15.04,0,0,0-.03,0-.06,0-.19-.06-.29-.17-.28Z"/>
      <path class="st5" d="M39.93,71.95c.27-.58.44-.87.53-.88.01.11.03.19.05.23.03.06.1.11.2.16.46.23.72.34.8.33l-.56.74c.01.12.07.44.19.97,0,.09,0,.21-.03.38l-.07.41c-.03.17-.13.25-.31.23l-.92.08-.07-.78.85-.08s.02-.03.01-.09c-.02-.18-.07-.44-.17-.77-.08-.26-.16-.51-.24-.77-.08-.04-.17-.1-.27-.18Z"/>
      <path class="st5" d="M44.11,70.97s.09-.07.19-.2c.11-.15.17-.23.19-.25l.82.22c-.04.08-.11.19-.2.34-.12.19-.2.29-.22.29-.04,0-.32-.06-.82-.2-.1.13-.21.27-.31.42-.09,0-.24-.03-.43-.08-.21-.05-.34-.09-.39-.13.1-.16.25-.37.43-.62.06.03.19.08.38.13.19.05.31.08.37.07ZM43.36,72.73c.04.17.14.41.32.72.2.36.37.53.5.5.24-.05.45-.24.62-.55.1-.2.24-.49.44-.89.17-.32.36-.5.58-.55.15-.03.26,0,.34.09.05.11.11.21.17.32.06.1.12.19.21.26.11.08.21.11.32.09l.36-.08.16.76-.37.08c-.2.04-.39,0-.56-.13-.1-.08-.22-.21-.35-.39-.1-.14-.17-.21-.2-.2-.25.05-.47.25-.65.58l-.4.93c-.14.31-.29.49-.46.52-.46.1-.81-.45-1.06-1.64l-.04-.18c.03-.06.05-.13.07-.23Z"/>
      <path class="st5" d="M47.14,72.63l1.4-.41c.01-.06-.02-.26-.11-.62,0-.01.06-.13.17-.36.11-.23.18-.35.19-.37v.05s.02.02.03.04c.01.02.02.03.02.05.06.19.11.43.14.72.01.09.07.16.17.2.1.04.21.05.31.02l.27-.08.22.75-.53.16c-.16.05-.3.04-.42-.02-.09-.05-.19-.14-.29-.28l-.16.55-1.19.35-.22-.75ZM48.8,73.63s.06-.07.13-.19c.08-.14.13-.21.14-.23l.7.16c-.02.07-.07.18-.14.31-.08.17-.14.26-.16.27-.01,0-.24-.04-.69-.13-.07.12-.15.25-.22.39-.08,0-.2-.01-.36-.04-.17-.03-.28-.07-.33-.1.09-.2.16-.33.2-.39l.1-.18c.05.03.16.06.33.1.17.04.27.05.31.04Z"/>
      <path class="st5" d="M50.39,70.72c.01-.09.07-.37.19-.85.11.03.25.12.42.25.16.12.28.23.36.32.09.11.17.23.22.37.06.17.11.44.13.79,0,.17,0,.29,0,.36l-1.96.71-.27-.73,1.66-.6c-.2-.31-.45-.52-.76-.62ZM50.42,73.29s.04-.15.16-.35.2-.31.23-.33c.02,0,.15.03.39.11.24.08.36.13.37.14.01.03-.05.14-.17.32-.13.18-.21.28-.26.3-.03.01-.16-.01-.37-.07-.22-.06-.33-.1-.34-.12Z"/>
      <path class="st5" d="M52.93,69.65c.37.21.58.33.64.35.26.1.5.11.72.01l.41-.18.32.71-.62.27c-.19.06-.32.08-.39.06,0,.29-.05.59-.16.91-.14.38-.32.62-.56.73-.15.06-.47.11-.96.13-.51.02-.8-.01-.86-.1.02,0,.12-.02.32-.02.2,0,.37-.05.52-.11.1-.05.24-.15.42-.3.13-.12.28-.31.43-.57.05-.06.13-.2.24-.41.08-.14.1-.26.06-.33-.04-.09-.27-.22-.68-.37.03-.21.08-.47.15-.77Z"/>
      <path class="st5" d="M54.08,67.62s.02-.17.12-.42c.1-.24.17-.38.2-.39.02,0,.16.01.44.06s.42.08.43.1c.02.04-.03.17-.14.39-.11.22-.2.34-.24.37-.04.02-.18.01-.42-.02s-.38-.06-.39-.08ZM54.27,70.02l1.13-.6c-.19-.12-.4-.12-.63,0-.03.01-.08.05-.16.1-.05.02-.08.02-.1-.01,0-.01,0-.12,0-.32,0-.19,0-.31.02-.36,0-.09.09-.22.25-.38.14-.14.27-.23.38-.29.2-.11.42-.15.67-.13.28.02.46.11.55.28.03.05.04.24.04.57l.49-.26.37.69-.83.44c-.08.04-.15.05-.22.01s-.12-.04-.15-.03c-.02.01-.04.05-.05.12-.01.07-.03.12-.07.15l-1.34.7-.36-.69Z"/>
      <path class="st5" d="M57.32,67.79c.02-.16.1-.36.24-.59.14-.23.28-.4.43-.49.11-.07.21-.07.28,0,.07.07.14.14.2.22.08.06.2.12.37.18.2.07.33.08.39.04l.29-.18.42.66-.61.39s-.03.09-.02.2c.02.12,0,.2-.03.24l-1.7.15s-.01.09,0,.17c.02.1.03.17.01.22-.02.09-.08.17-.19.24l-.31.2-.42-.66.62-.39s.06-.11.05-.27c0-.1,0-.21-.01-.31ZM58.05,67.48c-.17.11-.27.2-.3.29.1,0,.26,0,.46-.03.09-.01.14-.03.15-.04,0,0-.01-.02-.03-.05-.1-.16-.2-.22-.29-.16Z"/>
      <path class="st5" d="M58.48,65.37c-.07-.63-.07-.97,0-1.03.07.09.12.15.16.18.06.03.14.04.25.03.51-.04.79-.08.86-.13l-.1.92c.07.1.29.34.66.73.05.07.11.18.17.34l.15.39c.06.16.01.28-.14.36l-.74.54-.46-.63.69-.51s0-.04-.04-.09c-.11-.15-.29-.34-.54-.57-.2-.18-.4-.36-.6-.53-.09,0-.2,0-.32-.01Z"/>
      <path class="st5" d="M60.3,64.47s-.06-.21-.1-.51c-.04-.29-.05-.47-.05-.57.03-.02.32.24.87.79.21.21.41.43.58.64.3.37.44.79.43,1.24l-1.73-1.59Z"/>
      <path class="st5" d="M62.63,61.36s.04-.11.04-.28c0-.18.01-.28.02-.31l.8-.28c.01.09.02.22.02.39,0,.22,0,.35-.02.37-.03.03-.29.13-.79.29-.01.16-.02.34-.02.53-.08.05-.21.11-.4.18-.2.07-.33.11-.4.11,0-.19,0-.45,0-.76.07,0,.2-.04.39-.1.19-.06.3-.11.34-.15ZM62.99,63.25c.13.12.35.26.66.41.37.18.6.23.69.13.17-.17.23-.44.2-.81-.03-.22-.08-.55-.13-.98-.04-.36.02-.62.17-.77.11-.11.22-.15.33-.11.1.06.21.11.31.17.11.05.21.09.32.1.14.01.24-.03.32-.11l.26-.26.56.54-.26.27c-.14.15-.32.22-.53.21-.13,0-.3-.05-.5-.13-.16-.06-.26-.08-.28-.05-.18.19-.25.47-.21.85l.19.99c.06.34.03.57-.09.69-.33.34-.93.08-1.8-.77l-.14-.13c-.01-.06-.03-.14-.07-.23Z"/>
      <path class="st5" d="M68.74,58.88l-1.98,2.59-.62-.47.35-.46-.16-.13c-.12-.09-.19-.24-.2-.44-.07-.18-.09-.44-.05-.8.04-.36.12-.61.24-.77.15-.2.41-.33.76-.4s.61-.02.77.13c-.24.06-.43.15-.59.27-.13.09-.28.26-.46.49-.08.1-.16.23-.26.39-.13.22-.18.34-.14.37.03.02.15,0,.38-.05.2-.05.34-.09.41-.13.11-.05.21-.13.28-.23.57-.78.88-1.2.93-1.26l.33.9Z"/>
      <path class="st5" d="M70.09,57.37c0-.21-.01-.39-.05-.56-.38.63-.73.85-1.03.66-.11-.07-.25-.22-.41-.47-.14-.21-.24-.4-.31-.57-.1-.24-.1-.44,0-.59.11-.18.35-.25.71-.21.25.03.5.1.74.2l.18-.29.66.41-.26.42c.47.62.59,1.13.35,1.51-.11.18-.29.42-.53.7-.28.33-.48.52-.6.58.06-.1.14-.26.26-.48.18-.34.28-.78.29-1.31ZM68.73,56.42c-.05.08-.04.22.05.39.08.05.19.03.31-.06.1-.07.18-.16.25-.27.06-.09.07-.15.04-.16-.34-.09-.55-.06-.65.1Z"/>
      <path class="st5" d="M69.98,54.38c-.07-.15-.1-.36-.11-.63,0-.27.04-.48.11-.64.06-.12.14-.17.23-.15.1.02.19.05.28.08.1,0,.23,0,.41-.04.2-.04.32-.1.35-.17l.15-.3.7.34-.32.65s.02.09.09.18c.08.09.11.16.1.22l-1.37,1.02s.03.08.09.14c.07.07.11.13.13.18.03.09.02.19-.04.3l-.16.33-.7-.34.32-.66s-.01-.13-.1-.25c-.06-.09-.11-.17-.17-.26ZM70.43,53.73c-.09.18-.12.31-.11.4.09-.05.21-.14.38-.27.07-.06.11-.1.11-.12,0,0-.02-.02-.05-.03-.17-.08-.28-.08-.33.02Z"/>
      <path class="st5" d="M72.79,48.66l.73.26-.66,1.87c-.13-.02-.25-.05-.37-.09-.06-.02-.15-.06-.27-.1-.03.09-.02.21.03.37,0,.04.06.15.14.34.06.15.1.24.11.25.02.09.02.19-.01.28l-.39,1.1-.73-.26.47-1.33c.03-.08.03-.19.02-.34-.02-.15-.04-.26-.08-.33-.04.03-.14.17-.3.4-.16.23-.25.39-.27.45-.04.12-.06.26-.06.41,0,.17.04.3.11.37-.31-.23-.51-.4-.59-.51-.16-.22-.2-.47-.09-.77.06-.18.21-.42.43-.72.3-.4.46-.63.51-.7.09-.15.19-.4.32-.75l.06-.18c.08.07.23.25.46.53-.08.23-.12.48-.12.74,0,.08,0,.16.01.25l.55-1.55ZM72.96,51.39c.45-.34.68-.51.71-.5.01,0,.06.12.15.35.09.23.12.36.12.38-.02.06-.12.15-.31.29-.19.13-.31.2-.36.19-.23-.41-.33-.65-.31-.71Z"/>
      <path class="st5" d="M72.45,47.74c-.1-.13-.19-.32-.25-.59-.07-.26-.08-.48-.04-.65.03-.13.09-.2.19-.2.1,0,.2,0,.3,0,.1-.01.23-.06.39-.14.19-.09.29-.17.3-.25l.07-.33.76.17-.16.71s.04.08.13.15.14.13.14.19l-1.1,1.31s.05.07.12.12c.08.05.14.1.16.15.05.08.06.18.04.3l-.08.36-.76-.17.16-.71s-.04-.12-.15-.22c-.08-.07-.15-.14-.23-.21ZM72.74,47c-.04.2-.05.33,0,.41.07-.07.17-.19.3-.35.06-.07.08-.12.08-.14,0,0-.02,0-.05-.02-.19-.04-.29-.01-.32.09Z"/>
      <path class="st5" d="M71.54,45.21c-.51-.39-.75-.62-.74-.71.11.01.2.02.24,0,.06-.02.13-.07.2-.16.32-.4.49-.63.5-.71l.6.71c.12.02.45.03.98.03.09.01.21.05.37.11l.39.16c.16.07.21.18.16.35l-.12.91-.77-.1.11-.85s-.03-.02-.09-.03c-.18-.02-.45-.02-.79,0-.27.02-.53.04-.8.06-.06.07-.14.14-.23.22Z"/>
      <path class="st5" d="M72.15,43.29s-.19-.09-.44-.27c-.23-.17-.38-.29-.45-.35,0-.03.39-.07,1.17-.1.3-.01.59-.01.87,0,.48.03.88.21,1.2.53l-2.35.18Z"/>
    </g>
    <path class="st0" d="M65.04,36.9c0,15.32-12.42,27.73-27.73,27.73s-27.73-12.42-27.73-27.73,12.42-27.73,27.73-27.73,27.73,12.42,27.73,27.73h0Z"/>
    <path class="st6" d="M60.18,36.9c0,12.64-10.24,22.88-22.88,22.88s-22.88-10.24-22.88-22.88,10.24-22.88,22.88-22.88,22.88,10.24,22.88,22.88h0Z"/>
    <path class="st2" d="M23.25,47.11h10.89s2.09.45.37,1.79c-5.37,0-11.93.3-11.93.3,0,0-8.65-5.96,3.8-13.94-1.42-2.61-5.07-8.35,3.06-13.87,1.34-.67,11.63-1.79,11.71,7.68.07,2.24-.45,3.88-1.64,4.62-.45.15-1.64.15-1.34-1.49.3-1.64,1.86-6.26-3.13-8.72-.6-.45-8.13-1.64-8.8,6.04-.07.82.97,4.32,3.13,5.59-.15.82-.52,1.12-.52,1.12,0,0-6.86,2.16-7.31,8.05.15.97.52,2.53,1.71,2.83h0Z"/>
    <path class="st5" d="M.41,35.51c.16-.3.45-.48.85-.54v.41c-.23.05-.39.15-.5.3-.1.15-.16.35-.16.58,0,.28.1.51.31.7.21.19.53.29.95.3.36,0,.66-.07.89-.22.23-.15.35-.41.35-.76,0-.27-.07-.5-.23-.67s-.41-.27-.77-.28v.96s-.36,0-.36,0l.02-1.34,1.63.02v.27s-.4.09-.4.09c.15.14.26.26.32.37.1.18.15.41.14.68,0,.36-.13.66-.36.91-.3.28-.7.41-1.22.4-.51,0-.92-.15-1.22-.43-.28-.26-.42-.6-.42-1.01,0-.28.06-.53.18-.73Z"/>
    <path class="st5" d="M.4,33.96l.15-1.38c.02-.23.08-.41.16-.55.16-.27.42-.38.76-.34.18.02.33.07.43.16.11.09.19.2.25.35.06-.11.13-.2.22-.25.08-.05.22-.07.39-.06l.41.03c.12,0,.2,0,.26,0,.1-.01.17-.05.2-.11h.07s-.05.51-.05.51c-.03.01-.06.02-.11.02-.04,0-.12,0-.24,0l-.51-.03c-.2-.01-.34.05-.42.17-.04.07-.08.19-.09.35l-.1.91,1.3.14-.04.41-3.04-.33ZM1.93,32.78c.02-.19,0-.34-.07-.46-.07-.12-.2-.19-.4-.21-.22-.02-.37.04-.47.18-.05.08-.08.18-.1.32l-.11.98,1.04.11.1-.92Z"/>
    <path class="st5" d="M1.58,28.25c.31-.14.66-.18,1.08-.09.45.09.8.28,1.05.57.29.34.39.75.29,1.25-.09.46-.32.79-.68.99-.34.18-.74.22-1.18.13-.4-.08-.73-.25-.98-.51-.32-.33-.43-.75-.32-1.26.11-.53.36-.89.75-1.07ZM3.42,29c-.22-.21-.5-.35-.83-.42-.35-.07-.66-.04-.91.1-.25.14-.41.37-.48.69-.06.31,0,.58.17.82.17.24.47.4.88.49.33.07.63.04.89-.08.26-.12.43-.37.51-.75.07-.36,0-.64-.23-.85Z"/>
    <path class="st5" d="M1.68,26.89l1.81.55c.21.06.4.08.57.04.25-.05.41-.22.5-.51.1-.34.06-.6-.14-.79-.11-.1-.26-.19-.47-.25l-1.81-.55.12-.4,1.64.5c.36.11.62.24.79.4.3.29.37.68.22,1.17-.15.49-.43.78-.83.85-.22.04-.51,0-.87-.11l-1.64-.5.12-.4Z"/>
    <path class="st5" d="M2.49,24.1l.51-1.27c.1-.25.25-.42.46-.52.2-.1.43-.09.69,0,.22.09.39.23.5.44s.11.45,0,.73l-.35.89,1.2.48-.15.38-2.84-1.13ZM3.48,22.77c-.07.07-.14.18-.2.32l-.3.76.98.39.3-.76c.07-.17.09-.32.06-.46-.03-.14-.14-.24-.32-.32-.21-.08-.38-.06-.52.06Z"/>
    <path class="st5" d="M3.66,21.3l.99-1.98.33.17-.81,1.62.83.41.75-1.5.32.16-.75,1.5.93.46.82-1.65.33.16-1,2.01-2.73-1.36Z"/>
    <path class="st5" d="M5.6,17.48l.33-.49,2.63.71-1.66-2.16.33-.49,2.54,1.7-.22.33-1.5-1c-.05-.03-.14-.09-.25-.18-.12-.08-.25-.17-.38-.26l1.66,2.16-.23.34-2.63-.7.08.05c.06.04.16.1.29.19.13.08.22.14.28.18l1.5,1-.22.33-2.54-1.7Z"/>
    <path class="st5" d="M8.28,13.65l.29-.36,3.07,1.07-.29.35-.91-.34-.76.94.5.83-.27.33-1.65-2.82ZM10.11,14.26l-1.34-.49.74,1.23.6-.74Z"/>
    <path class="st5" d="M9.72,11.98l.96-1c.16-.16.31-.28.47-.34.29-.11.56-.05.81.2.13.13.21.26.24.39.03.14.02.28-.02.42.12-.05.23-.07.33-.06.1.01.21.08.35.19l.3.27c.09.08.16.13.21.16.09.05.16.06.23.03l.05.05-.35.36s-.06-.02-.1-.05c-.04-.02-.1-.07-.19-.15l-.38-.34c-.15-.13-.3-.17-.44-.12-.08.03-.18.1-.29.22l-.64.66.94.91-.29.3-2.2-2.12ZM11.66,11.99c.13-.14.21-.27.23-.4.02-.13-.04-.27-.19-.41-.16-.15-.32-.2-.48-.14-.09.03-.18.1-.27.19l-.68.71.75.73.65-.67Z"/>
    <path class="st5" d="M14.27,8.45c.33.07.63.27.91.59.3.35.46.71.48,1.09.02.45-.15.83-.53,1.16-.36.31-.74.43-1.14.37-.38-.07-.72-.28-1.01-.63-.27-.31-.42-.65-.46-1-.05-.46.13-.86.52-1.19.41-.35.82-.48,1.25-.39ZM15.27,10.17c-.05-.3-.18-.59-.4-.84-.23-.27-.49-.43-.78-.47-.29-.04-.55.04-.8.25-.24.21-.36.46-.37.75s.12.6.4.92c.22.26.47.42.75.48.28.06.57-.03.86-.28.28-.24.39-.51.34-.81Z"/>
    <path class="st5" d="M16.74,6.47c.29.04.52.16.69.36l-.33.23c-.15-.13-.31-.21-.49-.23-.18-.02-.36.05-.56.19-.24.17-.37.4-.4.67-.03.28.09.59.34.95.21.29.44.48.7.57.26.09.53.04.79-.15.24-.17.36-.4.35-.68,0-.15-.05-.32-.13-.51l.33-.23c.16.28.22.57.18.87-.04.35-.23.65-.56.88-.29.2-.59.29-.91.25-.42-.05-.8-.32-1.15-.8-.26-.37-.38-.74-.35-1.11.03-.4.22-.73.59-.99.31-.22.61-.31.9-.27Z"/>
    <path class="st5" d="M18.22,5.14l.4-.24,2.5,2.07-.39.23-.73-.63-1.04.61.18.96-.37.21-.56-3.22ZM19.72,6.35l-1.08-.93.26,1.41.82-.48Z"/>
    <path class="st5" d="M20.17,4.11l.37-.19,1.39,2.72-.37.19-1.39-2.72Z"/>
    <path class="st5" d="M21.25,3.54l.45-.19,2.38,1.66-.98-2.26.36-.16,1.22,2.8-.43.19-2.4-1.64.98,2.26-.36.16-1.22-2.8Z"/>
    <path class="st5" d="M25.53,1.88l1.17-.34c.4-.12.75-.06,1.05.16.27.2.47.5.58.91.09.31.12.61.07.9-.07.5-.36.83-.85.97l-1.17.34-.86-2.93ZM27.39,4.15c.13-.04.24-.08.31-.14.14-.1.23-.23.28-.41.04-.14.05-.31.03-.5-.01-.12-.03-.22-.06-.32-.11-.36-.26-.62-.46-.78-.2-.16-.46-.19-.77-.1l-.69.2.66,2.25.69-.2Z"/>
    <path class="st5" d="M28.55.85l2.17-.44.07.37-1.78.36.18.91,1.64-.33.07.35-1.64.33.2,1.01,1.81-.36.07.36-2.2.45-.61-2.99Z"/>
    <path class="st5" d="M32.03,2.33c.03.17.08.31.16.41.15.19.4.26.73.23.15-.02.28-.05.4-.11.23-.11.33-.28.31-.5-.02-.17-.08-.28-.19-.34-.11-.06-.27-.1-.5-.13l-.41-.05c-.27-.03-.46-.08-.57-.14-.2-.11-.31-.29-.34-.54-.03-.27.04-.51.2-.7.17-.19.42-.31.75-.35.31-.03.58.02.81.15.23.13.37.36.4.7l-.39.04c-.04-.16-.09-.28-.17-.36-.14-.15-.35-.2-.64-.17-.23.02-.39.09-.49.21-.09.11-.13.24-.12.37.02.15.09.25.22.31.08.04.27.07.55.11l.42.05c.2.03.36.07.48.14.2.12.32.32.35.59.04.34-.06.59-.28.76-.22.17-.49.27-.81.31-.37.04-.67-.03-.9-.2-.23-.17-.36-.42-.39-.75l.39-.04Z"/>
    <path class="st5" d="M36.33,0v1.89c0,.22.04.41.12.55.12.22.33.33.63.33.35,0,.59-.12.72-.36.07-.13.1-.31.1-.53V0s.42,0,.42,0v1.72c0,.38-.05.66-.16.87-.19.37-.54.55-1.06.55-.52,0-.87-.19-1.05-.55-.1-.2-.15-.49-.15-.87V0s.42,0,.42,0Z"/>
    <path class="st5" d="M39.17,0l1.38.13c.23.02.41.07.55.15.27.16.39.41.36.76-.02.18-.07.33-.15.44-.09.11-.2.19-.34.25.11.06.2.13.25.21.05.08.07.21.07.39l-.02.41c0,.12,0,.2,0,.26.02.1.05.17.11.2v.07s-.51-.05-.51-.05c-.01-.03-.02-.06-.02-.1,0-.04,0-.12,0-.24l.02-.51c0-.2-.05-.34-.18-.42-.07-.04-.19-.07-.35-.09l-.91-.08-.12,1.3-.41-.04L39.17,0ZM40.38,1.52c.19.02.34,0,.46-.08.12-.07.18-.2.2-.4.02-.22-.04-.37-.19-.46-.08-.05-.19-.08-.32-.09l-.98-.09-.09,1.04.93.08Z"/>
    <path class="st5" d="M44.48.9c.27.21.39.52.39.92l-.4-.08c0-.23-.08-.41-.21-.53-.13-.13-.31-.21-.54-.26-.27-.05-.52.01-.75.18-.22.17-.38.47-.45.88-.07.36-.04.66.07.91.11.25.34.41.69.48.27.05.5.01.7-.11.2-.13.34-.36.41-.71l-.94-.18.06-.34,1.32.25-.3,1.61-.26-.05-.03-.4c-.16.13-.3.21-.42.25-.19.07-.43.08-.7.03-.35-.07-.63-.24-.84-.51-.22-.34-.28-.76-.19-1.27.09-.5.3-.88.63-1.12.31-.24.67-.32,1.07-.24.28.05.51.15.69.3Z"/>
    <path class="st5" d="M45.99,1.14l2.13.6-.1.36-1.75-.49-.25.89,1.61.45-.1.34-1.61-.45-.28,1,1.78.5-.1.35-2.16-.61.83-2.94Z"/>
    <path class="st5" d="M48.84,1.95l.46.17.55,2.85.87-2.31.37.14-1.08,2.86-.44-.16-.57-2.85-.87,2.31-.37-.14,1.08-2.86Z"/>
    <path class="st5" d="M53.7,4.24c.1.28.11.54.01.78l-.36-.18c.05-.2.03-.38-.04-.54-.07-.16-.21-.3-.43-.4-.27-.13-.53-.14-.78-.03-.26.11-.48.36-.67.76-.16.32-.21.62-.16.89.05.27.22.48.52.62.27.13.53.12.77-.02.13-.08.25-.19.38-.36l.36.18c-.17.27-.4.47-.67.57-.33.13-.68.11-1.04-.07-.32-.15-.54-.38-.66-.68-.16-.39-.11-.86.15-1.39.2-.41.46-.69.8-.84.37-.17.75-.16,1.15.04.34.17.57.39.67.66Z"/>
    <path class="st5" d="M54.8,4.57l1.91,1.13-.19.32-1.56-.93-.47.8,1.44.86-.18.3-1.44-.86-.53.89,1.59.94-.19.31-1.93-1.15,1.56-2.63Z"/>
    <path class="st5" d="M56.43,8.05c-.09.15-.14.28-.15.41,0,.24.12.46.39.65.12.09.25.15.37.18.24.07.43.01.56-.17.1-.14.12-.26.08-.38-.04-.12-.14-.26-.29-.43l-.27-.31c-.18-.2-.29-.36-.34-.49-.08-.21-.04-.42.1-.63.16-.22.37-.35.62-.39.25-.04.52.04.79.24.25.18.43.4.51.65.09.25.03.52-.16.79l-.32-.23c.08-.14.12-.27.11-.38,0-.2-.13-.38-.36-.55-.19-.14-.36-.19-.5-.17-.14.02-.25.09-.33.2-.09.12-.1.25-.04.37.04.08.15.23.34.45l.28.32c.14.15.22.3.27.43.07.23.03.45-.13.67-.2.28-.43.4-.71.38-.28-.02-.55-.12-.81-.31-.3-.22-.48-.46-.54-.74-.06-.28,0-.55.2-.82l.32.23Z"/>
    <path class="st5" d="M60.82,8.75l1.01.92c.2.18.31.38.33.61.02.23-.06.44-.25.65-.16.18-.35.28-.58.31s-.46-.06-.68-.26l-.71-.64-.87.96-.31-.28,2.05-2.27ZM61.73,10.14c-.04-.09-.12-.19-.23-.3l-.61-.55-.71.79.61.55c.14.12.27.19.41.21.14.02.27-.05.41-.19.15-.17.19-.34.12-.51Z"/>
    <path class="st5" d="M63.01,10.78l1.52,1.62-.27.26-1.24-1.32-.68.63,1.15,1.22-.26.24-1.15-1.22-.75.71,1.26,1.34-.27.25-1.54-1.64,2.23-2.09Z"/>
    <path class="st5" d="M65.05,13.02l.76.96c.26.33.34.67.25,1.03-.09.33-.29.62-.62.88-.25.2-.52.33-.8.4-.49.12-.9-.02-1.22-.43l-.75-.96,2.4-1.89ZM63.64,15.58c.08.11.17.19.24.24.14.09.3.13.48.11.15-.01.31-.07.48-.16.1-.06.19-.11.27-.17.3-.23.48-.47.56-.72s0-.5-.19-.75l-.44-.56-1.84,1.45.45.57Z"/>
    <path class="st5" d="M67.12,15.71l.24.34-2.51,1.74-.24-.34,2.51-1.74Z"/>
    <path class="st5" d="M68.29,17.49l.24.4-2.03,2.54-.24-.39.62-.74-.63-1.03-.95.19-.22-.36,3.21-.61ZM67.11,19.01l.91-1.1-1.41.28.5.82Z"/>
    <path class="st5" d="M70.24,21.03l-.32.17-.47-.91-2.39,1.23-.19-.37,2.39-1.23-.47-.91.32-.17,1.14,2.2Z"/>
    <path class="st5" d="M70.48,21.57l.53,1.28c.09.21.13.4.12.56-.01.31-.18.53-.5.67-.17.07-.32.09-.46.07-.14-.02-.26-.09-.38-.18,0,.13-.02.24-.07.32-.05.09-.16.17-.32.24l-.37.17c-.11.05-.18.09-.23.13-.08.06-.12.13-.12.19l-.06.03-.19-.47s.05-.05.08-.07c.04-.02.11-.06.22-.11l.46-.22c.18-.09.28-.2.29-.35,0-.08-.02-.2-.09-.36l-.35-.85-1.21.5-.16-.38,2.82-1.17ZM69.7,23.34c.07.17.17.3.28.37.11.07.26.07.45,0,.2-.08.31-.21.32-.38,0-.09-.02-.2-.07-.33l-.38-.91-.96.4.36.86Z"/>
    <path class="st5" d="M71.69,24.63l.14.4-2.89.99-.14-.4,2.89-.99Z"/>
    <path class="st5" d="M69.92,29.32l-.3-.13.22-.55c-.09-.09-.17-.2-.24-.32-.07-.12-.13-.25-.17-.4-.12-.46-.07-.86.16-1.2.23-.31.56-.52,1-.64.4-.11.77-.1,1.1.02.43.15.72.48.85.98.14.52.08.95-.19,1.29-.21.27-.52.45-.92.57-.19.05-.38.08-.57.08-.29,0-.54-.06-.75-.18l-.21.49ZM69.88,28.1c.03.07.07.13.12.17l.16-.39.3.13-.2.47c.17.08.35.12.54.12.19,0,.36-.03.51-.07.35-.09.6-.26.76-.5.16-.24.2-.52.12-.83-.09-.32-.26-.54-.51-.67s-.59-.14-1.01-.02c-.35.1-.61.26-.77.5-.16.24-.2.53-.1.87.02.08.05.16.08.23Z"/>
    <path class="st5" d="M72.93,29.52l-1.86.32c-.22.04-.39.11-.52.22-.2.16-.27.39-.22.68.06.35.22.56.48.65.14.05.32.05.54.01l1.86-.32.07.41-1.69.3c-.37.06-.66.06-.88,0-.4-.12-.64-.44-.73-.94-.09-.51.03-.89.36-1.13.18-.13.46-.23.83-.3l1.69-.3.07.41Z"/>
    <path class="st5" d="M73.45,32.42l.2,2.21-.37.03-.16-1.81-.92.08.15,1.67-.35.03-.15-1.67-1.03.09.16,1.84-.36.03-.2-2.24,3.04-.27Z"/>
    <path class="st5" d="M71.62,35.7c-.17.01-.31.05-.42.12-.2.13-.3.37-.3.7,0,.15.02.29.07.41.09.24.24.36.46.35.17,0,.28-.05.35-.15.07-.1.13-.26.18-.48l.09-.4c.06-.26.13-.45.2-.56.13-.19.32-.28.57-.29.27,0,.5.09.68.27.18.18.27.45.27.78,0,.31-.07.58-.23.8-.15.22-.4.33-.74.33v-.39c.16-.02.29-.06.37-.13.16-.12.24-.33.23-.62,0-.23-.05-.4-.16-.5-.1-.1-.22-.15-.36-.15-.15,0-.26.06-.33.18-.04.08-.1.26-.16.54l-.1.42c-.05.2-.11.36-.19.46-.14.19-.35.28-.62.29-.34,0-.58-.12-.73-.36-.15-.24-.22-.52-.22-.84,0-.37.09-.66.29-.87.19-.21.45-.32.78-.31v.39Z"/>
    <path class="st2" d="M53.94,22.99c0,.06,0,.11,0,.15s-.01.07-.02.1c0,.02-.02.04-.03.05-.01,0-.03.02-.05.02-.03,0-.07-.02-.13-.05-.06-.04-.13-.07-.23-.12-.1-.04-.21-.08-.34-.12s-.29-.05-.46-.05c-.19,0-.36.03-.51.1s-.28.16-.39.27-.19.26-.25.43c-.06.17-.09.35-.09.55,0,.22.03.41.09.58.06.17.14.31.25.42.11.11.23.2.38.26.15.06.31.09.49.09.09,0,.17,0,.26-.03s.17-.05.24-.09v-.89h-.73s-.06-.02-.08-.07-.03-.12-.03-.23c0-.06,0-.1,0-.14s.01-.07.02-.09c.01-.02.02-.04.04-.05s.03-.02.05-.02h1.3s.06,0,.08.02.05.03.07.05c.02.02.03.05.04.08,0,.03.01.07.01.11v1.54c0,.06-.01.11-.03.16-.02.04-.06.08-.13.11s-.14.05-.24.08c-.1.03-.19.05-.3.07-.1.02-.21.03-.31.04s-.21.02-.31.02c-.31,0-.58-.04-.83-.13s-.45-.22-.62-.38c-.17-.17-.3-.37-.39-.61-.09-.24-.13-.52-.13-.82s.05-.6.14-.85.23-.47.41-.64.39-.31.63-.4c.25-.09.52-.14.83-.14.17,0,.32.01.46.03s.26.05.36.08c.1.03.19.07.26.11s.11.07.14.1c.03.03.05.07.06.12.01.05.02.13.02.23Z"/>
    <path class="st2" d="M54.62,33.09s0,.04-.02.05-.03.03-.06.04c-.03.01-.07.02-.11.02-.05,0-.11,0-.18,0s-.13,0-.18,0c-.05,0-.09-.01-.11-.02-.03,0-.05-.02-.06-.04s-.02-.03-.02-.05v-3.14h0l-1.12,3.14s-.02.05-.04.06c-.02.02-.04.03-.07.04s-.07.02-.12.02c-.05,0-.11,0-.17,0s-.12,0-.17,0c-.05,0-.09-.01-.12-.02-.03-.01-.06-.02-.07-.04s-.03-.03-.04-.06l-1.08-3.14h0v3.14s0,.04-.02.05-.03.03-.06.04c-.03.01-.07.02-.11.02-.05,0-.11,0-.18,0s-.13,0-.18,0c-.05,0-.09-.01-.12-.02-.03,0-.05-.02-.06-.04s-.02-.03-.02-.05v-3.44c0-.1.03-.18.08-.23.05-.05.13-.08.22-.08h.51c.09,0,.17,0,.24.02.07.02.12.04.17.07.05.03.09.08.12.14s.06.13.08.21l.83,2.3h.01l.87-2.29c.03-.08.05-.15.08-.21s.07-.1.11-.14c.04-.04.09-.06.14-.08.06-.01.12-.02.19-.02h.53c.05,0,.1,0,.14.02s.07.03.1.06.04.06.06.1c.01.04.02.08.02.13v3.44Z"/>
    <path class="st2" d="M53.81,47.23c0,.22-.03.41-.1.58s-.17.31-.3.42-.29.2-.48.26c-.19.06-.41.09-.66.09h-.32v1.23s0,.04-.02.05c-.01.02-.03.03-.06.04-.03.01-.07.02-.12.02-.05,0-.11,0-.19,0s-.14,0-.19,0c-.05,0-.09-.01-.12-.02-.03,0-.05-.02-.06-.04s-.02-.03-.02-.05v-3.47c0-.09.02-.16.07-.21.05-.05.11-.07.19-.07h.91c.09,0,.18,0,.26.01s.18.02.3.04c.12.02.23.06.35.13s.22.14.3.23c.08.09.15.2.19.33.04.13.07.27.07.42ZM52.99,47.28c0-.14-.02-.25-.07-.33s-.11-.15-.18-.19-.14-.07-.22-.08c-.08-.01-.16-.02-.24-.02h-.33v1.31h.35c.13,0,.23-.02.31-.05.09-.03.15-.08.21-.14s.09-.13.12-.22.04-.18.04-.28Z"/>
    <path class="st2" d="M53.95,39.26c0,.24-.03.45-.1.63-.07.19-.17.34-.31.47s-.3.23-.5.29c-.2.07-.43.1-.69.1-.24,0-.46-.03-.65-.09-.19-.06-.36-.15-.49-.27-.13-.12-.23-.28-.31-.46s-.11-.4-.11-.64v-2.34s0-.04.02-.05.03-.03.06-.04.07-.02.12-.02.11,0,.19,0,.14,0,.19,0c.05,0,.09.01.12.02s.05.02.06.04c.01.02.02.03.02.05v2.27c0,.15.02.28.06.4.04.11.09.2.16.28s.15.13.25.16c.1.04.21.05.33.05s.23-.02.33-.06c.1-.04.18-.09.25-.16s.12-.16.16-.27c.04-.11.06-.23.06-.36v-2.31s0-.04.02-.05c.01-.02.03-.03.06-.04s.07-.02.12-.02.11,0,.19,0,.14,0,.19,0,.09.01.12.02c.03,0,.05.02.06.04s.02.03.02.05v2.3Z"/>
    <path class="st2" d="M56.47,42.32c-.71,0-1.41,0-2.12,0-1.14,0-2.27,0-3.41,0-.26,0-.45.07-.54.34-.08.24-.21.46-.35.76-.04-.22-.07-.36-.09-.51-.29-1.81-.58-3.62-.86-5.43-.03-.19-.17-.31-.32-.35-.48-.14-.81.08-.87.58-.05.44-.07.88-.09,1.32-.05,1.46-.09,2.92-.14,4.39,0,.12-.02.24-.05.36-.5,1.8-1.01,3.6-1.52,5.4-.01.05-.04.09-.07.19-.01-.1-.02-.14-.02-.18-.18-2.22-.37-4.43-.55-6.65-.2-2.49-.41-4.98-.57-7.47-.18-2.72-.4-5.44-.74-8.14-.04-.32-.17-.41-.61-.4-.23,0-.44.22-.45.45-.01.23-.03.47-.05.7-.07.87-.15,1.74-.22,2.62-.04.49-.06.98-.1,1.47-.02.23-.05.45-.07.67-.05.44-.1.88-.15,1.32-.02.23-.03.47-.05.7-.09,1.52-.18,3.04-.28,4.56-.03.5-.06,1-.09,1.5-.06.01-.1.03-.14.03-.36.05-.49.17-.57.51-.07.27-.13.55-.2.82-.15.59-.31,1.17-.46,1.76-.08-.36-.1-.71-.13-1.06-.11-1.62-.21-3.24-.33-4.86-.03-.42-.47-.62-.83-.4-.29.17-.37.44-.44.74-.3,1.31-.6,2.63-.89,3.94-.03.15-.09.21-.25.21-1.49,0-2.99,0-4.48-.01-1.04,0-1.9-.01-2.94-.02,0,0-.43.11-.43.62,0,.49.27.7.75.7.86,0,1.72-.02,2.58-.03,1.5-.01,3-.03,4.5-.04.26,0,.52,0,.78-.03.29-.02.51-.21.58-.49.07-.26.14-.52.21-.77.11,1.1.17,2.2.25,3.29.07,1.02.15,2.05.25,3.07.03.33.3.56.59.56.27,0,.56-.26.61-.55.22-1.19.43-2.38.65-3.57.05-.29.11-.59.17-.9.08.04.13.06.18.08.38.18.76-.02.8-.45.07-.7.12-1.41.18-2.12.15-1.69.29-3.38.44-5.08.05-.57.1-1.15.15-1.72,0,0,.02,0,.03,0,.48,6.56.96,13.12,1.44,19.68,0,.12.02.23.03.35h0c0,.08,0,.16.02.25.02.23.04.47.05.7.01.23.22.44.45.45.44.02.57-.07.61-.4.04-.32.08-.65.12-.97,0,0,0-.02,0-.03.01-.12.03-.23.04-.35h0c0-.05.02-.11.02-.15.2-1.21.42-2.41.61-3.62.29-1.85.6-3.69,1.27-5.45.24-.65.37-1.32.38-2.01,0-.29.04-.59.05-.88.08.32.13.64.18.96.15,1.05.3,2.11.45,3.16,0,.06.03.15.07.18.16.11.59-.03.66-.2.4-.91.8-1.83,1.18-2.74.06-.15.14-.2.3-.19,1.62.02,3.23.03,4.85.05h.39v-1.17h-.39ZM30.7,42.68c-.16,0-.24.02-.27.07.02-.06.1-.06.27-.07ZM30.43,42.76s-.02.06,0,.1c0-.05,0-.08,0-.1ZM30.42,42.86s.03.11.06.18c-.01,0-.03,0-.04,0,0-.07-.01-.13-.02-.18Z"/>
  </g>
  <g>
    <path class="st5" d="M69.87,36.95c0,17.92-14.52,32.44-32.44,32.44S4.99,54.86,4.99,36.95,19.52,4.51,37.43,4.51s32.44,14.52,32.44,32.44h0Z"/>
    <path class="st4" d="M65.63,36.95c0,15.57-12.62,28.2-28.2,28.2s-28.2-12.62-28.2-28.2,12.62-28.2,28.2-28.2,28.2,12.62,28.2,28.2h0Z"/>
    <path class="st6" d="M60.69,36.95c0,12.85-10.41,23.26-23.26,23.26s-23.26-10.41-23.26-23.26,10.41-23.26,23.26-23.26,23.26,10.41,23.26,23.26h0Z"/>
    <path class="st2" d="M23.14,47.33h11.07s2.12.45.38,1.82c-5.46,0-12.13.3-12.13.3,0,0-8.79-6.06,3.87-14.18-1.44-2.65-5.15-8.49,3.11-14.1,1.36-.68,11.83-1.82,11.9,7.81.08,2.27-.45,3.94-1.67,4.7-.45.15-1.67.15-1.36-1.52.3-1.67,1.9-6.37-3.18-8.87-.61-.45-8.26-1.67-8.94,6.14-.08.83.99,4.4,3.18,5.69-.15.83-.53,1.14-.53,1.14,0,0-6.97,2.2-7.43,8.19.15.99.53,2.58,1.74,2.88h0Z"/>
    <text class="st3" transform="translate(50.76 26.12)"><tspan x="0" y="0">G</tspan></text>
    <text class="st3" transform="translate(50.03 33.18)"><tspan x="0" y="0">M</tspan></text>
    <text class="st3" transform="translate(51.09 50.18)"><tspan x="0" y="0">P</tspan></text>
    <text class="st1" transform="translate(50.72 40.8)"><tspan x="0" y="0">U</tspan></text>
    <path class="st2" d="M56.91,42.46c-.72,0-1.44,0-2.15,0-1.15,0-2.31,0-3.46,0-.26,0-.45.07-.55.35-.09.24-.22.47-.36.77-.04-.22-.07-.37-.09-.52-.29-1.84-.59-3.68-.88-5.52-.03-.2-.18-.32-.32-.36-.49-.14-.82.08-.88.59-.05.44-.08.89-.09,1.34-.05,1.49-.09,2.97-.14,4.46,0,.12-.02.25-.06.36-.51,1.83-1.03,3.66-1.54,5.49-.01.05-.04.1-.07.19-.01-.1-.02-.14-.02-.19-.19-2.25-.38-4.51-.56-6.76-.2-2.53-.42-5.06-.58-7.6-.18-2.77-.41-5.53-.75-8.28-.04-.33-.18-.42-.62-.4-.23,0-.44.22-.46.46-.01.24-.03.48-.05.71-.08.89-.16,1.77-.23,2.66-.04.5-.06,1-.1,1.5-.02.23-.05.46-.07.69-.05.45-.1.9-.15,1.35-.02.24-.03.48-.05.71-.09,1.55-.19,3.09-.28,4.64-.03.51-.06,1.01-.1,1.52-.06.01-.1.03-.14.03-.36.05-.5.17-.58.52-.07.28-.13.56-.21.83-.16.6-.31,1.19-.47,1.79-.08-.36-.1-.72-.13-1.08-.11-1.65-.22-3.29-.33-4.94-.03-.43-.48-.63-.85-.41-.29.18-.38.45-.45.75-.3,1.34-.61,2.67-.9,4.01-.03.15-.09.21-.26.21-1.52,0-3.04,0-4.55-.01-1.06,0-1.93-.01-2.99-.02,0,0-.43.11-.44.63,0,.49.27.71.76.71.87,0,1.75-.02,2.62-.03,1.53-.02,3.05-.03,4.58-.04.26,0,.53,0,.79-.03.29-.02.51-.22.59-.5.07-.26.14-.52.21-.79.11,1.12.18,2.23.26,3.35.07,1.04.16,2.08.25,3.12.03.33.31.57.6.57.28,0,.57-.26.62-.56.22-1.21.44-2.42.66-3.63.05-.3.11-.6.17-.91.08.04.13.06.18.08.39.19.77-.02.81-.46.07-.72.13-1.43.19-2.15.15-1.72.3-3.44.45-5.16.05-.58.1-1.17.15-1.75,0,0,.02,0,.03,0,.49,6.67.98,13.34,1.47,20.01,0,.12.02.23.03.35h0c0,.08,0,.17.02.25.02.24.04.48.05.71.01.23.22.45.46.46.44.02.58-.07.62-.4.04-.33.08-.66.12-.99,0,0,0-.02,0-.03.01-.12.03-.23.04-.35h0c0-.05.02-.11.02-.15.2-1.23.43-2.45.62-3.68.3-1.88.61-3.75,1.29-5.55.25-.66.37-1.34.39-2.04,0-.3.04-.6.06-.89.08.32.13.65.18.98.15,1.07.3,2.14.46,3.21,0,.06.03.15.07.18.16.11.6-.03.67-.21.4-.93.81-1.86,1.2-2.79.07-.16.15-.2.31-.2,1.64.02,3.29.03,4.93.05h.4v-1.19h-.4ZM30.72,42.83c-.16,0-.25.02-.28.07.02-.06.1-.06.28-.07ZM30.44,42.9s-.02.06,0,.1c0-.05,0-.08,0-.1ZM30.43,43.01s.03.11.06.18c-.01,0-.03,0-.04,0,0-.08-.01-.13-.02-.18Z"/>
  </g>
</svg>