<?xml version="1.0" encoding="UTF-8"?>
<svg id="Calque_1" xmlns="http://www.w3.org/2000/svg" version="1.1" viewBox="0 0 198.59 88.11">
  <!-- Generator: Adobe Illustrator 30.2.1, SVG Export Plug-In . SVG Version: 2.1.1 Build 1)  -->
  <defs>
    <style>
      .st0 {
        fill: #e95c66;
      }

      .st1 {
        fill: #128b93;
      }

      .st2, .st3, .st4 {
        fill: #fff;
      }

      .st3 {
        font-size: 5.73px;
      }

      .st3, .st4 {
        font-family: Calibri-Bold, Calibri;
      }

      .st3, .st4, .st5 {
        font-weight: 700;
      }

      .st4 {
        font-size: 5.76px;
      }

      .st5 {
        font-family: MyriadPro-Bold, 'Myriad Pro';
        font-size: 10.09px;
      }

      .st5, .st6 {
        fill: #1f3358;
      }
    </style>
  </defs>
  <g>
    <path class="st6" d="M129.39,30.09c0,16.62-13.47,30.09-30.09,30.09s-30.09-13.47-30.09-30.09S82.68,0,99.3,0s30.09,13.47,30.09,30.09"/>
    <path class="st1" d="M125.45,30.09c0,14.45-11.71,26.16-26.16,26.16s-26.16-11.71-26.16-26.16S84.85,3.94,99.3,3.94s26.16,11.71,26.16,26.16"/>
    <path class="st0" d="M120.87,30.09c0,11.92-9.66,21.58-21.58,21.58s-21.58-9.66-21.58-21.58,9.66-21.58,21.58-21.58,21.58,9.66,21.58,21.58"/>
    <path class="st2" d="M86.04,39.72h10.27s1.97.42.35,1.69c-5.06,0-11.25.28-11.25.28,0,0-8.16-5.63,3.59-13.15-1.34-2.46-4.78-7.88,2.88-13.08,1.27-.63,10.97-1.69,11.04,7.24.07,2.11-.42,3.66-1.55,4.36-.42.14-1.55.14-1.27-1.41.28-1.55,1.76-5.91-2.95-8.23-.56-.42-7.66-1.55-8.3,5.7-.07.77.91,4.08,2.95,5.27-.14.77-.49,1.05-.49,1.05,0,0-6.47,2.04-6.89,7.59.14.91.49,2.39,1.62,2.67"/>
    <text class="st4" transform="translate(111.66 20.05)"><tspan x="0" y="0">G</tspan></text>
    <text class="st4" transform="translate(110.99 26.6)"><tspan x="0" y="0">M</tspan></text>
    <text class="st4" transform="translate(111.97 42.37)"><tspan x="0" y="0">P</tspan></text>
    <text class="st3" transform="translate(111.62 33.67)"><tspan x="0" y="0">U</tspan></text>
    <path class="st2" d="M117.37,35.2c-.67,0-1.33,0-2,0-1.07,0-2.14,0-3.21,0-.24,0-.42.07-.51.32-.08.23-.2.44-.33.71-.04-.2-.06-.34-.08-.48-.27-1.71-.55-3.42-.82-5.13-.03-.18-.16-.29-.3-.33-.45-.13-.76.08-.82.55-.05.41-.07.83-.08,1.24-.05,1.38-.08,2.76-.13,4.14,0,.11-.02.23-.05.34-.47,1.7-.95,3.4-1.43,5.1-.01.05-.03.09-.07.18-.01-.09-.02-.13-.02-.17-.17-2.09-.35-4.18-.52-6.27-.19-2.35-.39-4.7-.54-7.05-.17-2.57-.38-5.13-.7-7.68-.04-.31-.16-.39-.58-.37-.21,0-.41.21-.42.42-.01.22-.03.44-.05.66-.07.82-.15,1.64-.21,2.47-.04.46-.06.92-.09,1.39-.02.21-.04.42-.07.64-.05.42-.1.83-.14,1.25-.02.22-.03.44-.04.66-.09,1.43-.17,2.87-.26,4.3-.03.47-.06.94-.09,1.41-.06.01-.09.02-.13.03-.34.05-.46.16-.54.48-.06.26-.12.52-.19.77-.14.55-.29,1.11-.44,1.66-.07-.34-.1-.67-.12-1-.1-1.53-.2-3.05-.31-4.58-.03-.39-.45-.58-.78-.38-.27.16-.35.42-.42.7-.28,1.24-.56,2.48-.84,3.72-.03.14-.08.2-.24.19-1.41,0-2.82,0-4.22,0-.98,0-1.79-.01-2.78-.02,0,0-.4.1-.41.58,0,.46.25.66.71.66.81,0,1.62-.02,2.43-.03,1.42-.01,2.83-.03,4.25-.04.24,0,.49,0,.73-.03.27-.02.48-.2.55-.46.07-.24.13-.49.2-.73.11,1.04.16,2.07.24,3.1.07.97.15,1.93.23,2.9.03.31.29.53.56.53.26,0,.53-.24.58-.52.2-1.12.41-2.24.61-3.36.05-.28.11-.56.16-.85.08.03.12.05.17.07.36.17.72-.02.76-.43.06-.66.12-1.33.17-2,.14-1.6.28-3.19.42-4.79.05-.54.09-1.08.14-1.62,0,0,.02,0,.02,0,.45,6.19.91,12.37,1.36,18.56,0,.11.02.22.02.33h0c0,.08,0,.15.01.23.02.22.03.44.05.66.01.22.21.42.42.42.41.01.54-.07.58-.37.04-.31.07-.61.11-.92,0,0,0-.02,0-.03.01-.11.03-.22.04-.33h0c0-.05.01-.1.02-.14.19-1.14.4-2.28.58-3.42.28-1.74.57-3.48,1.19-5.14.23-.61.34-1.24.36-1.89,0-.28.03-.55.05-.83.08.3.13.6.17.91.14.99.28,1.99.42,2.98,0,.06.02.14.06.17.15.1.55-.03.62-.19.37-.86.75-1.72,1.12-2.59.06-.14.14-.19.29-.18,1.52.02,3.05.03,4.57.04h.37v-1.11h-.37ZM93.07,35.55c-.15,0-.23.02-.26.06.02-.06.09-.06.26-.06ZM92.81,35.62s-.02.05,0,.1c0-.04,0-.07,0-.1ZM92.8,35.72s.03.1.05.17c-.01,0-.03,0-.04,0,0-.07-.01-.12-.02-.17Z"/>
  </g>
  <g>
    <g>
      <path class="st6" d="M3.8,79.36c0-.18.1-.48.3-.9.2-.42.37-.69.51-.8,0,.36.2.62.6.78.33.13.83.31,1.48.56l-.75,1.49c-.11-.01-.22-.02-.33-.04l.31,3.58c.02.2-.06.54-.24,1.02-.17.43-.32.75-.46.97-.31.46-.74.84-1.3,1.12-.56.28-1.12.42-1.69.42-.64,0-1.16-.15-1.55-.45-.44-.33-.66-.8-.66-1.43,0-.47.17-1.09.52-1.85.32-.7.67-1.25,1.03-1.64l.02.21c-.48.96-.72,1.64-.72,2.03,0,.42.19.77.57,1.05.35.26.74.38,1.18.38.34,0,.79-.07,1.35-.21.69-.18,1.04-.39,1.04-.63l-.56-4.63c-.03-.29-.15-.51-.34-.66s-.29-.28-.29-.38Z"/>
      <path class="st6" d="M7.82,79.13c.22-.32.57-.78,1.03-1.37.04.49.1,1.14.17,1.95l.23,2.47c.03.36.06.71.09,1.07.03.18.12.28.29.3h1.01v1.7h-2.3s-.08-.59-.17-1.72l-.35-4.41Z"/>
      <path class="st6" d="M15.96,85.28h-6.22v-1.72h1.37c.02-.28.05-.48.11-.6.04-.07.17-.25.39-.55.34-.41.77-.8,1.27-1.15.6-.42,1.11-.63,1.53-.63.3,0,.53.19.7.56.13.3.2.61.2.95,0,.26-.04.45-.11.57l-.5.85h1.26v1.72ZM10.29,78.56c0-.08.2-.31.59-.68.4-.37.63-.56.71-.56.04,0,.28.19.71.58.43.38.65.59.65.63,0,.09-.2.29-.6.6-.4.31-.65.46-.76.46-.08,0-.31-.16-.71-.48-.4-.32-.59-.5-.59-.56ZM13.25,83.55c.36,0,.63-.1.8-.29,0-.24-.06-.46-.19-.64-.14-.21-.32-.31-.56-.31-.14,0-.36.07-.66.21-.32.15-.49.29-.49.41,0,.15.15.3.44.44.26.13.48.19.65.19Z"/>
      <path class="st6" d="M15.73,79.04c0-.14.13-.39.39-.75.25-.35.45-.58.59-.67.02.12.12.32.29.61.17.29.65.62,1.42.99-.21.46-.34.74-.39.84-.21.34-.44.52-.68.52.05.37.08.69.08.97,0,.22-.12.72-.35,1.48.34-.25.99-.62,1.97-1.11.32-.16.74-.34,1.26-.54.64-.24,1.06-.37,1.25-.37.33,0,.75.25,1.26.75.5.5.76.91.76,1.24l-.6,2.27h-7.76s0-1.7,0-1.7h.79c.32,0,.49-.12.49-.37l-.29-2.6c-.02-.21-.05-.42-.09-.64-.03-.21-.11-.4-.24-.54-.09-.1-.14-.23-.14-.37ZM20.58,82.44c-.82,0-1.75.38-2.81,1.14.05,0,.17.01.38.01l3.97-.02c-.1-.26-.31-.52-.64-.76s-.63-.37-.91-.37Z"/>
      <path class="st6" d="M24.16,76.88c0-.29.11-.55.34-.77.23-.22.49-.34.78-.34.07,0,.15.03.23.09.08.06.12.13.12.2l-.26.38c-.22-.17-.37-.25-.44-.25-.09,0-.24.08-.45.23.14.15.39.24.77.28.28.01.57.03.86.04-.05.08-.15.23-.31.45-.36-.03-.89.17-1.59.6.07-.15.15-.26.24-.34.15-.1.29-.19.41-.26-.47-.12-.7-.22-.7-.31ZM29.37,79.23c0-.05.37-.6,1.1-1.64,0,.24.03.41.09.52s.2.22.41.34c.68.36,1.02.58,1.02.66l-.84,1.23c-.12,0-.21-.02-.28-.05-.09-.05-.15-.07-.19-.08,0,.53-.26,1.13-.78,1.79-.06.08-.12.14-.18.2.15.35.32.82.52,1.42.02.15.03.3.03.45,0,.19-.04.59-.12,1.21h-4.08s.12-.33.32-.86l.3-.85c.27,0,.61-.12,1.01-.37.36-.23.61-.45.78-.67,0-.1-.18-.33-.55-.68-.37-.35-.61-.52-.71-.52-.01,0-.07.07-.16.22-.1.15-.17.22-.23.22-.41-.28-.69-.46-.82-.53-.33-.19-.62-.34-.87-.44-.2-.08-.39-.22-.57-.42-.17-.2-.26-.4-.26-.61,0-.34.21-.93.64-1.79.43,0,1.25.5,2.44,1.51.59.49,1.23,1.2,1.93,2.13.27-.5.41-.98.41-1.46,0-.26-.04-.46-.12-.59-.09-.11-.18-.22-.27-.34ZM28.96,83.03c-.25.3-.52.54-.79.73.1.03.31.05.64.05.24,0,.42,0,.53-.03-.06-.27-.19-.52-.38-.74Z"/>
      <path class="st6" d="M32.58,80.32c0-.1.16-.43.48-1,.3-.53.51-.88.63-1.03.07,0,.18.84.35,2.53.07.66.1,1.29.1,1.9,0,1.05-.29,1.95-.88,2.7l-.67-5.1Z"/>
      <path class="st6" d="M43.88,85.27h-4.72c-.46,0-.83-.16-1.1-.48-.26-.3-.38-.68-.38-1.15,0-.34.12-.9.35-1.69.26-.88.5-1.32.73-1.32-.13.48-.19.91-.19,1.28,0,.46.12.83.37,1.11.31.36.7.54,1.17.54h4.19c.06-.12.11-.57.14-1.37,0-.03.17-.24.5-.64.33-.4.53-.62.58-.66v.21s.01.08.01.11c0,.44-.04.97-.14,1.6-.03.21.04.38.21.53.17.15.36.23.57.23h.56v1.7h-1.07c-.33,0-.59-.1-.78-.3-.14-.16-.27-.41-.38-.77l-.6,1.06ZM40.95,86.75c0-.05.15-.23.46-.52.31-.29.49-.44.55-.44.04,0,.22.15.56.45.34.3.51.47.51.49,0,.08-.16.24-.47.48-.31.24-.51.37-.6.37-.06,0-.24-.13-.55-.39-.31-.26-.46-.41-.46-.44Z"/>
      <path class="st6" d="M46.37,79.04c0-.14.13-.39.39-.75.25-.35.45-.58.59-.67.02.12.12.32.29.61.17.29.65.62,1.42.99-.21.46-.34.74-.39.84-.21.34-.44.52-.68.52.05.37.08.69.08.97,0,.22-.12.72-.35,1.48.34-.25.99-.62,1.97-1.11.32-.16.74-.34,1.26-.54.64-.24,1.06-.37,1.25-.37.33,0,.75.25,1.26.75.5.5.76.91.76,1.24l-.6,2.27h-7.76s0-1.7,0-1.7h.79c.32,0,.49-.12.49-.37l-.29-2.6c-.02-.21-.05-.42-.09-.64-.03-.21-.11-.4-.24-.54-.09-.1-.14-.23-.14-.37ZM51.22,82.44c-.82,0-1.75.38-2.81,1.14.05,0,.17.01.38.01l3.97-.02c-.1-.26-.31-.52-.64-.76s-.63-.37-.91-.37Z"/>
      <path class="st6" d="M65.1,83.68c-.08.2-.21.47-.39.82-.2.4-.35.66-.44.76h-5.61c-.46,0-.83-.16-1.1-.48-.26-.3-.39-.68-.39-1.15,0-.34.12-.9.35-1.69.27-.88.51-1.32.73-1.32-.12.48-.19.91-.19,1.28,0,.46.12.83.35,1.11.32.36.71.54,1.18.54h4.56l-.02-.27c-.1-.35-.3-.72-.6-1.11l.88-1.65c.57.77.86,1.4.86,1.88,0,.36-.06.78-.17,1.28ZM61.31,78.31s.18-.1.39-.31c.25-.23.4-.36.43-.39l1.37.75c-.54.69-.86,1.04-.98,1.04-.03,0-.25-.1-.65-.31-.4-.21-.63-.34-.71-.39-.22.21-.46.44-.7.68-.16-.05-.4-.15-.71-.32-.33-.17-.54-.31-.65-.42.39-.43.72-.77.99-1.02.09.09.3.23.61.41s.52.27.61.27Z"/>
      <path class="st6" d="M66.22,79.86c0-.08-.01-.16-.01-.24,0-.23.04-.58.11-1.04.07-.5.15-.83.23-.99.28.09.8.43,1.57,1.01.3.23.62.55.96.97.34.41.59.79.75,1.13.29.6.43,1.39.43,2.36,0,.26-.02.53-.07.82.1-.02.19-.2.25-.53.05-.27.08-.49.08-.66.3-.34.55-.87.73-1.58.08-.36.13-.77.13-1.25,0-.08,0-.2,0-.37v-.37c0-.22.04-.41.12-.56.02-.05.12-.2.32-.48.19-.27.31-.41.35-.41l.56,5.34c0,.13-.01.21-.01.26,0,.14.13.23.39.27.04,0,.22,0,.54,0v1.7h-1.8c-.03-.8-.06-1.32-.08-1.57-.07-.77-.16-1.25-.28-1.44-.28.92-.47,1.48-.56,1.68-.27.58-.66,1.01-1.15,1.29-.95.53-2.48.79-4.6.79.22-.18.79-.47,1.71-.88l1.61-.73c.77-.41,1.17-.76,1.2-1.07.02-.01.03-.04.03-.09,0-.22-.12-.58-.36-1.06-.33-.66-.71-1.16-1.15-1.47-.05.05-.08.13-.1.24-.03.14-.05.22-.06.25-.39-.23-.79-.47-1.19-.71-.14-.08-.27-.16-.41-.26s-.21-.22-.23-.38Z"/>
      <path class="st6" d="M81.32,83.56v1.7h-3.88c-.05-.28-.08-.56-.08-.82,0-.13,0-.34.02-.63-.19,0-.41.11-.66.32-.06.05-.24.23-.53.55-.24.24-.37.38-.39.41-.15.12-.33.18-.52.18h-2.28v-1.7h2.75c.16,0,.37-.07.63-.21.26-.14.45-.28.55-.41-.09-.07-.4-.18-.94-.33-.54-.15-.88-.23-1.01-.23-.26,0-.52.06-.8.17-.32.14-.52.3-.62.5.22-.81.4-1.33.55-1.58.3-.5.75-.75,1.36-.75.38,0,.91.12,1.61.35.93.32,1.47.5,1.62.53.33.07.86.11,1.58.11h.38c-.08.22-.31.67-.68,1.35-.48,0-.96.1-1.44.29-.15.06-.3.13-.45.2h3.23ZM76.39,85.92c.93.67,1.39,1.04,1.39,1.1,0,.04-.18.23-.55.57-.37.35-.58.52-.63.52-.12,0-.36-.14-.73-.43-.37-.29-.56-.49-.58-.6.61-.77.98-1.15,1.1-1.15Z"/>
      <path class="st6" d="M80.46,83.56h2.64c-.12-.21-.3-.38-.53-.53s-.47-.21-.72-.21c.03,0-.16.02-.57.07,0-.14.26-.64.77-1.48.05-.13.3-.25.75-.37.39-.11.69-.16.89-.16.44,0,.87.14,1.29.43.46.32.69.69.69,1.11,0,.16-.08.37-.26.62-.19.28-.28.46-.3.53h1.19v1.72h-2.1c-.15-.21-.31-.49-.49-.85l-.24.44c-.09.15-.18.29-.28.42h-2.74v-1.72Z"/>
      <path class="st6" d="M85.66,83.56h2.85c.05-.11.1-.57.14-1.37,0-.03.18-.24.52-.65.34-.41.53-.62.56-.65v.21s.01.08.01.11c0,.44-.04.97-.14,1.6-.03.21.03.38.2.53.17.15.36.23.57.23h.56v1.7h-1.07c-.33,0-.59-.1-.77-.3-.14-.16-.27-.41-.38-.77l-.61,1.06h-2.43v-1.7ZM88.19,78.43s.17-.11.38-.32c.25-.23.4-.36.43-.38l1.37.75c-.54.69-.86,1.04-.98,1.04-.03,0-.25-.1-.65-.31-.4-.21-.63-.34-.71-.39-.22.21-.46.44-.7.68-.16-.05-.4-.15-.71-.32-.33-.17-.55-.31-.66-.41.39-.43.72-.77.99-1.02.09.09.3.23.61.41s.52.27.61.27Z"/>
      <path class="st6" d="M91.61,84.99c-.13.19-.3.28-.5.28h-.68v-1.7h1.04c.19,0,.28-.19.28-.58.27-.46.43-.73.48-.8.25-.4.44-.62.55-.67,0,.36-.16,1.04-.48,2.05h1.78c.17,0,.25-.14.25-.41,0-.04,0-.08-.01-.13v-.08c.48-.78.85-1.26,1.12-1.42,0,.1,0,.26-.01.48,0,.21-.01.37-.01.48,0,.22-.06.58-.18,1.08h1.06c.07,0,.1-.11.1-.34v-.17c0-.07,0-.12,0-.16.47-.8.79-1.21.96-1.21l.1,1.23c.02.13.07.27.18.42.1.15.22.23.34.23h.5v1.7h-1.22c-.05-.1-.12-.25-.21-.46l-.31.46h-1.98c-.13-.19-.24-.28-.32-.28-.02,0-.08.05-.17.14-.09.09-.16.14-.2.14h-2.13c-.14-.19-.24-.28-.31-.28Z"/>
      <path class="st6" d="M99.81,82.53c.2-.28.54-.55,1.02-.82.47-.27.88-.4,1.21-.4.27,0,.42.11.46.32.04.21.08.42.11.64.07.2.21.46.43.76.25.36.45.53.6.53h.66v1.7h-1.42c-.07,0-.15.12-.24.36-.09.24-.19.37-.3.4l-2.98-1.72c-.05.03-.11.14-.17.32-.07.21-.14.35-.21.42-.13.15-.31.22-.56.22h-.72v-1.7h1.43c.09,0,.21-.15.36-.44.1-.2.21-.39.31-.59ZM101.36,82.8c-.39,0-.66.06-.79.18.17.12.43.28.8.48.16.08.26.12.3.1,0-.02,0-.06,0-.12,0-.42-.1-.63-.31-.63Z"/>
      <path class="st6" d="M104.33,79.48c.62-1.21,1.02-1.81,1.19-1.81,0,.25.02.43.06.52.05.13.17.26.36.39.85.59,1.35.88,1.5.88l-1.23,1.5c0,.27.06.98.19,2.14,0,.19-.04.46-.12.82l-.21.89c-.09.36-.3.51-.64.45h-1.8v-1.7h1.68s.04-.07.04-.2c0-.4-.07-.97-.2-1.72-.11-.57-.22-1.15-.33-1.72-.15-.11-.32-.26-.49-.44Z"/>
      <path class="st6" d="M112.84,78.59c.06,0,.21-.12.45-.35.26-.27.41-.41.46-.44l1.48.85c-.11.15-.29.36-.52.64-.3.35-.49.53-.54.53-.08,0-.58-.27-1.48-.79-.24.22-.5.48-.77.77-.18-.05-.44-.17-.79-.36-.38-.2-.61-.35-.7-.45.26-.31.62-.68,1.08-1.14.1.1.32.25.67.45.35.21.57.31.67.31ZM110.69,82.02c0,.38.11.94.32,1.68.24.86.5,1.29.76,1.29.48,0,.95-.3,1.41-.91.26-.38.67-.95,1.21-1.7.45-.61.89-.91,1.32-.91.3,0,.5.12.61.35.06.25.13.5.19.75s.16.46.3.65c.17.23.37.34.59.34h.72v1.7h-.73c-.4,0-.74-.17-1.02-.52-.17-.21-.33-.54-.5-.99-.14-.35-.24-.53-.31-.53-.51,0-1,.32-1.48.95l-1.14,1.8c-.39.61-.75.91-1.09.91-.92,0-1.37-1.33-1.37-4v-.41c.07-.11.15-.26.23-.46Z"/>
      <path class="st6" d="M117.74,83.56h2.85c.05-.11.1-.57.14-1.37,0-.03.18-.24.52-.65.34-.41.53-.62.56-.65v.21s.01.08.01.11c0,.44-.04.97-.14,1.6-.04.21.03.38.2.53.17.15.36.23.57.23h.56v1.7h-1.07c-.33,0-.59-.1-.77-.3-.14-.16-.27-.41-.38-.77l-.61,1.06h-2.43v-1.7ZM120.31,86.68s.15-.11.35-.32c.22-.24.35-.37.39-.39l1.23.77c-.08.13-.23.32-.43.57-.25.31-.4.47-.46.47-.03,0-.44-.24-1.22-.71-.2.2-.41.42-.63.68-.16-.05-.38-.15-.65-.31-.31-.18-.5-.32-.57-.42.29-.36.48-.59.59-.7l.3-.32c.08.08.27.22.56.41.29.19.47.28.55.28Z"/>
      <path class="st6" d="M124.8,81.72c.08-.18.39-.71.92-1.61.18.15.38.43.61.83.22.37.37.68.45.94.1.3.15.6.15.92,0,.4-.1.98-.3,1.73-.1.36-.18.6-.24.73h-4.08v-1.7h3.45c-.16-.78-.49-1.4-.98-1.84ZM123.13,87.05c0-.07.18-.28.53-.61s.57-.5.64-.5c.04,0,.25.17.63.52.39.35.58.54.58.57,0,.08-.18.26-.53.54-.36.28-.58.42-.68.42-.07,0-.28-.14-.64-.43s-.54-.46-.54-.5Z"/>
      <path class="st6" d="M130.11,81.64c.49.75.78,1.17.86,1.26.39.44.81.66,1.28.66h.88v1.7s-1.32,0-1.32,0c-.38-.04-.63-.11-.74-.23-.22.58-.55,1.14-1,1.67-.54.65-1.07.97-1.57.97-.32,0-.92-.2-1.82-.59-.94-.41-1.42-.73-1.47-.96.04,0,.23.08.59.24.36.16.7.24,1.03.24.22,0,.55-.08.98-.23.33-.12.74-.37,1.22-.76.13-.09.38-.29.75-.6.25-.22.38-.42.38-.61,0-.22-.31-.67-.93-1.35.22-.39.51-.86.88-1.41Z"/>
      <path class="st6" d="M132.01,83.56h2.5c-.22-.43-.59-.64-1.09-.64-.06,0-.18,0-.38.03-.1,0-.16-.04-.16-.12,0-.03.09-.24.28-.62.18-.36.3-.59.36-.68.1-.18.36-.34.78-.48.36-.12.67-.18.93-.18.44,0,.87.14,1.29.43.46.32.69.69.69,1.11,0,.12-.15.51-.45,1.15h1.1v1.72h-1.83c-.18,0-.31-.07-.4-.2-.09-.13-.16-.2-.23-.2-.05,0-.11.06-.2.19-.08.12-.17.2-.25.21h-2.96v-1.72ZM133.87,78.72c0-.08.2-.31.59-.68s.63-.56.71-.56c.04,0,.28.19.71.58s.65.59.65.63c0,.09-.2.29-.6.6-.4.31-.65.46-.76.46-.08,0-.31-.16-.71-.48s-.59-.5-.59-.56Z"/>
      <path class="st6" d="M139.19,82.53c.2-.28.54-.55,1.01-.82.48-.27.88-.4,1.21-.4.27,0,.42.11.46.32.04.21.08.42.11.64.07.2.21.46.43.76.25.36.45.53.6.53h.66v1.7h-1.42c-.07,0-.15.12-.24.36s-.19.37-.3.4l-2.97-1.72c-.05.03-.11.14-.17.32-.07.21-.13.35-.21.42-.13.15-.31.22-.56.22h-.72v-1.7h1.43c.09,0,.21-.15.36-.44.1-.2.21-.39.31-.59ZM140.73,82.8c-.39,0-.66.06-.79.18.17.12.43.28.8.48.16.08.26.12.3.1,0-.02,0-.06,0-.12,0-.42-.1-.63-.31-.63Z"/>
      <path class="st6" d="M143.71,79.48c.62-1.21,1.02-1.81,1.19-1.81,0,.25.02.43.06.52.05.13.17.26.36.39.85.59,1.35.88,1.5.88l-1.23,1.5c0,.27.06.98.19,2.14,0,.19-.04.46-.12.82l-.21.89c-.09.36-.3.51-.64.45h-1.8v-1.7h1.68s.04-.07.04-.2c0-.4-.07-.97-.2-1.72-.11-.57-.22-1.15-.33-1.72-.15-.11-.32-.26-.49-.44Z"/>
      <path class="st6" d="M147.59,80.32c0-.1.16-.43.48-1,.3-.53.51-.88.63-1.03.07,0,.18.84.35,2.53.07.66.1,1.29.1,1.9,0,1.05-.29,1.95-.88,2.7l-.67-5.1Z"/>
      <path class="st6" d="M155.13,78.59c.06,0,.21-.12.45-.35.26-.27.41-.41.46-.44l1.48.85c-.11.15-.29.36-.52.64-.3.35-.49.53-.54.53-.08,0-.58-.27-1.48-.79-.24.22-.5.48-.77.77-.18-.05-.44-.17-.79-.36-.38-.2-.61-.35-.7-.45.26-.31.62-.68,1.08-1.14.1.1.32.25.67.45.35.21.57.31.67.31ZM152.97,82.02c0,.38.11.94.32,1.68.24.86.5,1.29.76,1.29.48,0,.95-.3,1.41-.91.26-.38.67-.95,1.21-1.7.45-.61.89-.91,1.32-.91.3,0,.5.12.61.35.06.25.13.5.19.75s.16.46.3.65c.17.23.37.34.59.34h.72v1.7h-.73c-.4,0-.74-.17-1.02-.52-.17-.21-.33-.54-.5-.99-.14-.35-.24-.53-.31-.53-.51,0-1,.32-1.48.95l-1.14,1.8c-.39.61-.75.91-1.09.91-.92,0-1.37-1.33-1.37-4v-.41c.07-.11.15-.26.23-.46Z"/>
      <path class="st6" d="M166.5,85.27h-6.39v-1.7h1.14v-.45c0-.33.15-.64.45-.94.19-.36.58-.75,1.18-1.15.6-.41,1.09-.61,1.48-.61.49,0,1,.27,1.53.8.52.53.76,1.04.72,1.52-.37-.34-.75-.56-1.11-.66-.3-.09-.74-.14-1.31-.14-.26,0-.56.02-.91.07-.5.06-.75.14-.75.25,0,.07.18.27.53.59.32.29.54.47.68.55.21.13.44.19.7.19,1.89-.04,2.92-.06,3.07-.06l-1,1.77Z"/>
      <path class="st6" d="M169.91,85.98c.34-.23.64-.48.88-.73-1.44,0-2.16-.39-2.16-1.16,0-.28.12-.72.37-1.3.22-.5.43-.91.63-1.22.31-.46.63-.68.98-.68.41,0,.77.36,1.07,1.08.21.51.35,1.04.42,1.6h.67v1.7h-.97c-.56,1.59-1.28,2.38-2.16,2.38-.42,0-.99-.06-1.72-.19-.83-.14-1.36-.29-1.58-.46.22,0,.58-.03,1.06-.06.76-.05,1.59-.37,2.49-.96ZM170.09,82.37c-.19,0-.39.18-.6.55,0,.22.14.39.41.52.22.1.46.14.71.14.21,0,.31-.04.31-.11-.2-.73-.47-1.1-.83-1.1Z"/>
      <path class="st6" d="M174.59,82.53c.2-.28.54-.55,1.01-.82.48-.27.88-.4,1.21-.4.27,0,.42.11.46.32.04.21.08.42.11.64.07.2.21.46.43.76.25.36.45.53.6.53h.66v1.7h-1.42c-.07,0-.15.12-.24.36s-.19.37-.3.4l-2.97-1.72c-.05.03-.11.14-.17.32-.07.21-.13.35-.21.42-.13.15-.31.22-.56.22h-.72v-1.7h1.43c.09,0,.21-.15.36-.44.1-.2.21-.39.31-.59ZM176.13,82.8c-.39,0-.66.06-.79.18.17.12.43.28.8.48.16.08.26.12.3.1,0-.02,0-.06,0-.12,0-.42-.1-.63-.31-.63Z"/>
      <path class="st6" d="M186.76,83.56v1.7h-3.88c-.05-.28-.08-.56-.08-.82,0-.13,0-.34.02-.63-.19,0-.41.11-.66.32-.06.05-.24.23-.53.55-.24.24-.37.38-.39.41-.15.12-.33.18-.52.18h-2.28v-1.7h2.75c.16,0,.37-.07.63-.21s.45-.28.55-.41c-.09-.07-.4-.18-.94-.33-.54-.15-.88-.23-1.01-.23-.25,0-.52.06-.8.17-.32.14-.52.3-.62.5.22-.81.4-1.33.55-1.58.3-.5.75-.75,1.36-.75.37,0,.91.12,1.61.35.93.32,1.47.5,1.62.53.33.07.86.11,1.58.11h.38c-.08.22-.31.67-.68,1.35-.48,0-.96.1-1.44.29-.15.06-.3.13-.45.2h3.23ZM181.83,85.92c.93.67,1.39,1.04,1.39,1.1,0,.04-.18.23-.55.57-.37.35-.58.52-.63.52-.12,0-.36-.14-.73-.43s-.56-.49-.58-.6c.62-.77.98-1.15,1.1-1.15Z"/>
      <path class="st6" d="M188.01,82.53c.2-.28.54-.55,1.01-.82.48-.27.88-.4,1.21-.4.27,0,.42.11.46.32.04.21.08.42.11.64.07.2.21.46.43.76.25.36.45.53.6.53h.66v1.7h-1.42c-.07,0-.15.12-.24.36s-.19.37-.3.4l-2.97-1.72c-.05.03-.11.14-.17.32-.07.21-.13.35-.21.42-.13.15-.31.22-.56.22h-.72v-1.7h1.43c.09,0,.21-.15.36-.44.1-.2.21-.39.31-.59ZM189.56,82.8c-.39,0-.66.06-.79.18.17.12.43.28.8.48.16.08.26.12.3.1,0-.02,0-.06,0-.12,0-.42-.1-.63-.31-.63Z"/>
      <path class="st6" d="M192.53,79.48c.62-1.21,1.02-1.81,1.19-1.81,0,.25.02.43.06.52.05.13.17.26.36.39.85.59,1.35.88,1.5.88l-1.23,1.5c0,.27.06.98.19,2.14,0,.19-.04.46-.12.82l-.21.89c-.09.36-.3.51-.64.45h-1.8v-1.7h1.68s.04-.07.04-.2c0-.4-.07-.97-.2-1.72-.11-.57-.22-1.15-.33-1.72-.15-.11-.32-.26-.49-.44Z"/>
      <path class="st6" d="M196.41,80.32c0-.1.16-.43.48-1,.3-.53.51-.88.63-1.03.07,0,.18.84.35,2.53.07.66.1,1.29.1,1.9,0,1.05-.29,1.95-.88,2.7l-.67-5.1Z"/>
    </g>
    <text class="st5" transform="translate(0 73.57)"><tspan x="0" y="0">Groupe Marocain des Urgences Pédiatriques</tspan></text>
  </g>
</svg>