<?xml version="1.0" encoding="UTF-8"?>
<svg id="Calque_1" xmlns="http://www.w3.org/2000/svg" version="1.1" viewBox="0 0 12.1 16.92">
  <!-- Generator: Adobe Illustrator 30.2.1, SVG Export Plug-In . SVG Version: 2.1.1 Build 1)  -->
  <defs>
    <style>
      .st0 {
        fill: #1a8c93;
      }
    </style>
  </defs>
  <path class="st0" d="M6.55,0c.3.05.6.1.89.16,1.36.32,2.46,1.05,3.32,2.14.74.93,1.17,1.98,1.3,3.16.14,1.18-.08,2.3-.54,3.38-.49,1.16-1.21,2.18-1.95,3.19-.81,1.1-1.63,2.19-2.41,3.31-.31.44-.56.93-.83,1.4-.06.11-.14.18-.27.18-.13,0-.22-.07-.27-.18-.75-1.44-1.71-2.74-2.68-4.04-.77-1.03-1.54-2.06-2.15-3.2-.46-.85-.8-1.75-.91-2.72-.18-1.54.17-2.97,1.07-4.23C2.09,1.19,3.41.38,5.05.08c.17-.03.33-.05.5-.08h.99ZM2.89,6.05c0,1.75,1.43,3.17,3.18,3.17,1.74,0,3.16-1.44,3.16-3.17,0-1.74-1.44-3.17-3.18-3.16-1.74.01-3.16,1.43-3.15,3.17"/>
</svg>