<?xml version="1.0" encoding="UTF-8"?>
<svg id="Calque_1" xmlns="http://www.w3.org/2000/svg" version="1.1" viewBox="0 0 216.05 15.47">
  <!-- Generator: Adobe Illustrator 30.2.1, SVG Export Plug-In . SVG Version: 2.1.1 Build 1)  -->
  <defs>
    <style>
      .st0 {
        fill: #158a92;
      }
    </style>
  </defs>
  <path class="st0" d="M0,8.51c12.28-.33,25.6-.46,37.83-.48,0,0,.33,0,.33,0,0,0,.12.31.12.31l2.12,5.4-.92.05,3.28-12.22.42-1.57.53,1.54,3.05,8.93s-.88-.11-.88-.11c.34-.53,3.31-5.08,3.56-5.47.23.55,1.4,3.29,1.66,3.9,0,0-.45-.3-.45-.3,41.19,0,124.22.25,165.42.49-41.44.24-124.32.48-165.74.49,0,0-.13-.3-.13-.3l-1.3-3.05s.86.08.86.08c-.39.6-3.3,5.08-3.6,5.55-.01-.12-3.25-9.44-3.38-9.89,0,0,.95-.03.95-.03l-3.3,12.21-.39,1.43-.54-1.37-2.11-5.4s.45.31.45.31c-12.22-.02-25.57-.16-37.83-.48h0Z"/>
</svg>