<?xml version="1.0" encoding="UTF-8"?>
<svg id="Calque_1" xmlns="http://www.w3.org/2000/svg" version="1.1" viewBox="0 0 219.18 15.47">
  <!-- Generator: Adobe Illustrator 30.2.1, SVG Export Plug-In . SVG Version: 2.1.1 Build 1)  -->
  <defs>
    <style>
      .st0 {
        fill: #1a8c93;
      }
    </style>
  </defs>
  <path class="st0" d="M0,8.51c27-.31,69.65-.43,96.98-.48,0,0,.33,0,.33,0l.12.31,2.12,5.4-.92.05,3.28-12.22.42-1.57.53,1.54,3.05,8.93-.88-.11c.34-.52,3.31-5.09,3.56-5.47.23.56,1.4,3.29,1.66,3.9,0,0-.45-.3-.45-.3l54.7.12c13.6.05,41.1.23,54.7.37-30.46.33-78.56.44-109.4.49,0,0-.32,0-.32,0l-.13-.3-1.3-3.05.86.08c-.39.61-3.29,5.07-3.6,5.55,0,0-.33-.96-.33-.96l-3.05-8.92.95-.03-3.3,12.21-.39,1.43-.54-1.37-2.11-5.4.45.31c-27.41-.05-69.86-.17-96.98-.48h0Z"/>
</svg>