<?xml version="1.0" encoding="UTF-8"?>
<svg id="Calque_1" xmlns="http://www.w3.org/2000/svg" version="1.1" viewBox="0 0 588.21 212.89">
  <!-- Generator: Adobe Illustrator 30.2.1, SVG Export Plug-In . SVG Version: 2.1.1 Build 1)  -->
  <defs>
    <style>
      .st0 {
        stroke: #36529f;
        stroke-width: .81px;
      }

      .st0, .st1, .st2 {
        fill: none;
        stroke-miterlimit: 10;
      }

      .st3 {
        fill: #1a8c93;
      }

      .st4 {
        fill: #1f3359;
      }

      .st5 {
        isolation: isolate;
      }

      .st1 {
        stroke-width: 2.96px;
      }

      .st1, .st2 {
        stroke: #1a8c93;
      }

      .st2 {
        stroke-width: 3.42px;
      }

      .st6 {
        fill: #fdfbfc;
      }

      .st7 {
        fill: #1e3458;
      }
    </style>
  </defs>
  <path class="st4" d="M70.18,100.85c0,10.36-8.4,18.77-18.77,18.77s-18.76-8.4-18.76-18.77,8.4-18.77,18.76-18.77,18.77,8.4,18.77,18.77"/>
  <path class="st6" d="M167.81,117.56H53.81c-8.72,0-15.86-7.14-15.86-15.86v-1.69c0-8.72,7.14-15.86,15.86-15.86h114c8.72,0,15.86,7.14,15.86,15.86v1.69c0,8.72-7.14,15.86-15.86,15.86"/>
  <rect class="st2" x="37.95" y="84.15" width="145.71" height="33.41" rx="15.86" ry="15.86"/>
  <line class="st0" x1="265.15" y1="19.91" x2="265.15" y2="156.57"/>
  <g>
    <path class="st4" d="M224.52,59.13c0,10.36-8.4,18.77-18.77,18.77s-18.76-8.4-18.76-18.77,8.4-18.77,18.76-18.77,18.77,8.4,18.77,18.77"/>
    <path class="st4" d="M305.78,59.13c0,10.36,8.4,18.77,18.77,18.77s18.76-8.4,18.76-18.77-8.4-18.77-18.76-18.77-18.77,8.4-18.77,18.77"/>
    <g>
      <path class="st6" d="M322.15,75.84h-114c-8.72,0-15.86-7.14-15.86-15.86v-1.69c0-8.72,7.14-15.86,15.86-15.86h114c8.72,0,15.86,7.14,15.86,15.86v1.69c0,8.72-7.14,15.86-15.86,15.86"/>
      <rect class="st2" x="192.3" y="42.43" width="145.72" height="33.41" rx="15.86" ry="15.86"/>
    </g>
  </g>
  <g>
    <path class="st4" d="M224.52,99.5c0,10.36-8.4,18.77-18.77,18.77s-18.76-8.4-18.76-18.77,8.4-18.77,18.76-18.77,18.77,8.4,18.77,18.77"/>
    <path class="st4" d="M305.78,99.5c0,10.36,8.4,18.77,18.77,18.77s18.76-8.4,18.76-18.77-8.4-18.77-18.76-18.77-18.77,8.4-18.77,18.77"/>
    <g>
      <path class="st6" d="M322.15,116.2h-114c-8.72,0-15.86-7.14-15.86-15.86v-1.69c0-8.72,7.14-15.86,15.86-15.86h114c8.72,0,15.86,7.14,15.86,15.86v1.69c0,8.72-7.14,15.86-15.86,15.86"/>
      <rect class="st2" x="192.3" y="82.8" width="145.72" height="33.41" rx="15.86" ry="15.86"/>
    </g>
  </g>
  <g>
    <path class="st4" d="M224.52,139.87c0,10.36-8.4,18.77-18.77,18.77s-18.76-8.4-18.76-18.77,8.4-18.77,18.76-18.77,18.77,8.4,18.77,18.77"/>
    <path class="st4" d="M305.78,139.87c0,10.36,8.4,18.77,18.77,18.77s18.76-8.4,18.76-18.77-8.4-18.77-18.76-18.77-18.77,8.4-18.77,18.77"/>
    <g>
      <path class="st6" d="M322.15,156.57h-114c-8.72,0-15.86-7.14-15.86-15.86v-1.69c0-8.72,7.14-15.86,15.86-15.86h114c8.72,0,15.86,7.14,15.86,15.86v1.69c0,8.72-7.14,15.86-15.86,15.86"/>
      <rect class="st2" x="192.3" y="123.16" width="145.72" height="33.41" rx="15.86" ry="15.86"/>
    </g>
  </g>
  <g>
    <path class="st4" d="M224.52,18.77c0,10.36-8.4,18.77-18.77,18.77s-18.76-8.4-18.76-18.77S195.39,0,205.75,0s18.77,8.4,18.77,18.77"/>
    <path class="st4" d="M305.78,18.77c0,10.36,8.4,18.77,18.77,18.77s18.76-8.4,18.76-18.77S334.91,0,324.55,0s-18.77,8.4-18.77,18.77"/>
    <g>
      <path class="st6" d="M322.15,35.47h-114c-8.72,0-15.86-7.14-15.86-15.86v-1.69c0-8.72,7.14-15.86,15.86-15.86h114c8.72,0,15.86,7.14,15.86,15.86v1.69c0,8.72-7.14,15.86-15.86,15.86"/>
      <rect class="st2" x="192.3" y="2.06" width="145.72" height="33.41" rx="15.86" ry="15.86"/>
    </g>
  </g>
  <g>
    <g class="st5">
      <g class="st5">
        <path class="st7" d="M248.9,56.86v-7.63h1.6l1.97,3.27c.5.85.95,1.73,1.3,2.56h.02c-.1-1.02-.12-2-.12-3.17v-2.66h1.29v7.63h-1.45l-1.99-3.36c-.49-.84-.98-1.77-1.36-2.63h-.05c.06,1,.08,2,.08,3.26v2.73h-1.29Z"/>
        <path class="st7" d="M256.34,56.09c0-.52.36-.89.86-.89s.86.36.86.89-.34.89-.87.89c-.5,0-.85-.39-.85-.89Z"/>
        <path class="st7" d="M261.58,49.33c.62-.09,1.39-.16,2.22-.16,1.43,0,2.4.29,3.1.88.75.6,1.2,1.52,1.2,2.81,0,1.37-.46,2.38-1.19,3.04-.76.69-1.97,1.04-3.45,1.04-.8,0-1.42-.04-1.88-.1v-7.51ZM262.97,55.81c.19.03.49.03.77.03,1.81.01,2.89-1,2.89-2.93.01-1.68-.96-2.65-2.71-2.65-.44,0-.75.03-.95.08v5.47Z"/>
        <path class="st7" d="M270.7,49.23v7.63h-1.39v-7.63h1.39Z"/>
        <path class="st7" d="M272.29,56.86v-7.63h1.6l1.97,3.27c.5.85.95,1.73,1.3,2.56h.02c-.1-1.02-.12-2-.12-3.17v-2.66h1.29v7.63h-1.45l-1.99-3.36c-.49-.84-.98-1.77-1.36-2.63h-.05c.06,1,.08,2,.08,3.26v2.73h-1.29Z"/>
        <path class="st7" d="M281.35,49.23v7.63h-1.39v-7.63h1.39Z"/>
      </g>
    </g>
    <g class="st5">
      <g class="st5">
        <path class="st3" d="M224.63,67.85l-2.64-8.18h1.63l1.12,3.72c.32,1.03.59,1.98.8,2.97h.02c.22-.97.52-1.97.84-2.96l1.19-3.74h1.59l-2.83,8.18h-1.71Z"/>
      </g>
      <g class="st5">
        <path class="st3" d="M231.31,60.29c0,.44-.33.8-.85.8s-.82-.36-.82-.8c0-.46.34-.81.84-.81s.82.35.84.81ZM229.72,67.85v-5.91h1.49v5.91h-1.49Z"/>
      </g>
      <g class="st5">
        <path class="st3" d="M237.16,67.67c-.32.15-.93.3-1.67.3-1.84,0-3.04-1.19-3.04-3.02s1.21-3.14,3.29-3.14c.55,0,1.1.12,1.44.27l-.27,1.13c-.24-.12-.59-.23-1.13-.23-1.14,0-1.82.84-1.81,1.92,0,1.21.79,1.9,1.81,1.9.51,0,.89-.11,1.18-.23l.21,1.1Z"/>
      </g>
      <g class="st5">
        <path class="st3" d="M239.23,65.31c.04,1.07.86,1.53,1.82,1.53.69,0,1.18-.11,1.64-.27l.22,1.02c-.51.22-1.21.38-2.06.38-1.92,0-3.04-1.18-3.04-2.98,0-1.64.99-3.18,2.89-3.18s2.55,1.58,2.55,2.88c0,.28-.02.5-.05.63h-3.95ZM241.82,64.27c.01-.55-.23-1.44-1.23-1.44-.92,0-1.31.84-1.37,1.44h2.6Z"/>
        <path class="st3" d="M249.6,64.1v1.03h-3.09v-1.03h3.09Z"/>
      </g>
      <g class="st5">
        <path class="st3" d="M253.33,59.78c.55-.1,1.29-.17,2.28-.17,1.09,0,1.88.23,2.4.67.48.4.8,1.04.8,1.81s-.24,1.41-.69,1.84c-.61.59-1.53.89-2.58.89-.28,0-.52-.01-.73-.06v3.09h-1.48v-8.07ZM254.81,63.58c.19.06.42.07.73.07,1.12,0,1.8-.56,1.8-1.5s-.63-1.38-1.66-1.38c-.41,0-.7.04-.86.07v2.74Z"/>
      </g>
      <g class="st5">
        <path class="st3" d="M259.91,63.85c0-.8-.01-1.38-.05-1.9h1.29l.06,1.12h.04c.29-.82.98-1.25,1.63-1.25.15,0,.23.01.35.04v1.4c-.13-.02-.27-.04-.45-.04-.7,0-1.2.45-1.33,1.13-.02.13-.04.29-.04.45v3.07h-1.49v-4Z"/>
      </g>
      <g class="st5">
        <path class="st3" d="M265.19,65.31c.04,1.07.86,1.53,1.82,1.53.69,0,1.18-.11,1.64-.27l.22,1.02c-.51.22-1.21.38-2.06.38-1.92,0-3.04-1.18-3.04-2.98,0-1.64.99-3.18,2.89-3.18s2.55,1.58,2.55,2.88c0,.28-.02.5-.05.63h-3.95ZM267.78,64.27c.01-.55-.23-1.44-1.23-1.44-.92,0-1.31.84-1.37,1.44h2.6ZM268.45,59.38l-1.48,1.79h-1.03l1.06-1.79h1.46Z"/>
        <path class="st3" d="M270.33,66.47c.33.21.97.44,1.5.44.66,0,.95-.28.95-.67s-.24-.59-.97-.86c-1.15-.39-1.63-1.02-1.63-1.72,0-1.04.86-1.84,2.23-1.84.65,0,1.23.16,1.58.35l-.3,1.04c-.24-.15-.73-.34-1.25-.34s-.82.27-.82.63.28.55,1.03.82c1.08.38,1.56.92,1.58,1.8,0,1.08-.84,1.86-2.4,1.86-.72,0-1.36-.17-1.8-.41l.3-1.09Z"/>
        <path class="st3" d="M277.04,60.29c0,.44-.33.8-.85.8s-.82-.36-.82-.8c0-.46.34-.81.84-.81s.82.35.84.81ZM275.45,67.85v-5.91h1.49v5.91h-1.49Z"/>
        <path class="st3" d="M284,59.24v6.95c0,.61.02,1.26.05,1.66h-1.32l-.07-.93h-.02c-.35.65-1.07,1.07-1.92,1.07-1.42,0-2.54-1.2-2.54-3.02-.01-1.98,1.23-3.15,2.64-3.15.81,0,1.4.33,1.66.76h.02v-3.34h1.49ZM282.51,64.4c0-.12-.01-.28-.04-.4-.13-.57-.61-1.04-1.29-1.04-.96,0-1.49.85-1.49,1.94s.53,1.88,1.48,1.88c.61,0,1.14-.41,1.29-1.06.04-.13.05-.28.05-.44v-.89Z"/>
        <path class="st3" d="M286.66,65.31c.04,1.07.86,1.53,1.82,1.53.69,0,1.18-.11,1.64-.27l.22,1.02c-.51.22-1.21.38-2.06.38-1.92,0-3.04-1.18-3.04-2.98,0-1.64.99-3.18,2.89-3.18s2.55,1.58,2.55,2.88c0,.28-.02.5-.05.63h-3.95ZM289.25,64.27c.01-.55-.23-1.44-1.23-1.44-.92,0-1.31.84-1.37,1.44h2.6Z"/>
      </g>
      <g class="st5">
        <path class="st3" d="M291.85,63.7c0-.68-.02-1.25-.05-1.76h1.3l.07.88h.04c.27-.46.91-1.02,1.89-1.02,1.03,0,2.1.67,2.1,2.54v3.51h-1.49v-3.34c0-.85-.32-1.49-1.13-1.49-.59,0-1.01.42-1.16.87-.05.12-.07.3-.07.47v3.48h-1.49v-4.15Z"/>
      </g>
      <g class="st5">
        <path class="st3" d="M300.45,60.43v1.52h1.42v1.12h-1.42v2.61c0,.73.19,1.09.76,1.09.27,0,.41-.01.58-.06l.02,1.13c-.22.08-.62.16-1.08.16-.56,0-1.01-.18-1.29-.49-.33-.34-.47-.89-.47-1.66v-2.78h-.84v-1.12h.84v-1.1l1.47-.41Z"/>
      </g>
      <g class="st5">
        <path class="st3" d="M303.99,65.31c.04,1.07.86,1.53,1.82,1.53.69,0,1.18-.11,1.64-.27l.22,1.02c-.51.22-1.21.38-2.06.38-1.92,0-3.04-1.18-3.04-2.98,0-1.64,1-3.18,2.89-3.18s2.55,1.58,2.55,2.88c0,.28-.02.5-.05.63h-3.95ZM306.58,64.27c.01-.55-.23-1.44-1.23-1.44-.92,0-1.31.84-1.37,1.44h2.6Z"/>
      </g>
    </g>
  </g>
  <g class="st5">
    <g class="st5">
      <path class="st3" d="M58.36,109.19c.47.28,1.21.52,1.98.52.95,0,1.48-.45,1.48-1.12,0-.62-.41-.98-1.44-1.36-1.36-.49-2.22-1.2-2.22-2.38,0-1.35,1.12-2.35,2.9-2.35.89,0,1.53.19,1.95.41l-.35,1.2c-.3-.16-.87-.39-1.64-.39-.95,0-1.35.5-1.35.98,0,.63.47.92,1.56,1.35,1.42.53,2.1,1.25,2.1,2.43,0,1.32-.99,2.46-3.09,2.46-.87,0-1.77-.24-2.22-.52l.34-1.24Z"/>
    </g>
    <g class="st5">
      <path class="st3" d="M65.73,108.29c.04,1.07.86,1.53,1.82,1.53.69,0,1.18-.11,1.64-.27l.22,1.02c-.51.22-1.21.38-2.06.38-1.92,0-3.04-1.18-3.04-2.98,0-1.64.99-3.18,2.89-3.18s2.55,1.58,2.55,2.88c0,.28-.02.5-.05.63h-3.95ZM68.32,107.24c.01-.55-.23-1.44-1.23-1.44-.92,0-1.31.84-1.37,1.44h2.6Z"/>
      <path class="st3" d="M75.27,110.64c-.32.15-.93.3-1.67.3-1.84,0-3.04-1.19-3.04-3.02s1.21-3.14,3.29-3.14c.55,0,1.1.12,1.44.27l-.27,1.13c-.24-.12-.59-.23-1.13-.23-1.14,0-1.82.84-1.81,1.92,0,1.21.79,1.9,1.81,1.9.51,0,.89-.11,1.18-.23l.21,1.1Z"/>
    </g>
    <g class="st5">
      <path class="st3" d="M76.37,106.82c0-.8-.01-1.38-.05-1.9h1.29l.06,1.12h.04c.29-.82.98-1.25,1.63-1.25.15,0,.23.01.35.04v1.4c-.13-.02-.27-.04-.45-.04-.7,0-1.2.45-1.33,1.13-.02.13-.04.29-.04.45v3.07h-1.49v-4Z"/>
    </g>
    <g class="st5">
      <path class="st3" d="M81.65,108.29c.04,1.07.86,1.53,1.82,1.53.69,0,1.18-.11,1.64-.27l.22,1.02c-.51.22-1.21.38-2.06.38-1.92,0-3.04-1.18-3.04-2.98,0-1.64.99-3.18,2.89-3.18s2.55,1.58,2.55,2.88c0,.28-.02.5-.05.63h-3.95ZM84.24,107.24c.01-.55-.23-1.44-1.23-1.44-.92,0-1.31.84-1.37,1.44h2.6ZM84.91,102.35l-1.48,1.79h-1.03l1.06-1.79h1.46Z"/>
      <path class="st3" d="M88.56,103.4v1.52h1.42v1.12h-1.42v2.61c0,.73.19,1.09.76,1.09.27,0,.41-.01.58-.06l.02,1.13c-.22.08-.62.16-1.08.16-.56,0-1.01-.18-1.29-.49-.33-.34-.47-.89-.47-1.66v-2.78h-.84v-1.12h.84v-1.1l1.47-.41Z"/>
      <path class="st3" d="M95.69,109.4c0,.53.02,1.05.1,1.42h-1.35l-.11-.66h-.04c-.35.46-.97.79-1.75.79-1.19,0-1.86-.86-1.86-1.76,0-1.48,1.32-2.24,3.51-2.23v-.1c0-.39-.16-1.03-1.2-1.03-.58,0-1.19.18-1.59.44l-.29-.97c.44-.27,1.2-.52,2.13-.52,1.89,0,2.44,1.2,2.44,2.5v2.12ZM94.24,107.93c-1.06-.01-2.06.21-2.06,1.1,0,.58.38.85.85.85.61,0,1.03-.39,1.18-.81.04-.11.04-.22.04-.33v-.81Z"/>
      <path class="st3" d="M98.86,103.26c0,.44-.33.8-.85.8s-.82-.36-.82-.8c0-.46.34-.81.84-.81s.82.35.84.81ZM97.27,110.82v-5.91h1.49v5.91h-1.49Z"/>
    </g>
    <g class="st5">
      <path class="st3" d="M100.37,106.82c0-.8-.01-1.38-.05-1.9h1.29l.06,1.12h.04c.29-.82.98-1.25,1.63-1.25.15,0,.23.01.35.04v1.4c-.13-.02-.27-.04-.45-.04-.7,0-1.2.45-1.33,1.13-.02.13-.04.29-.04.45v3.07h-1.49v-4Z"/>
    </g>
    <g class="st5">
      <path class="st3" d="M105.65,108.29c.04,1.07.86,1.53,1.82,1.53.69,0,1.18-.11,1.64-.27l.22,1.02c-.51.22-1.21.38-2.06.38-1.92,0-3.04-1.18-3.04-2.98,0-1.64.99-3.18,2.89-3.18s2.55,1.58,2.55,2.88c0,.28-.02.5-.05.63h-3.95ZM108.24,107.24c.01-.55-.23-1.44-1.23-1.44-.92,0-1.31.84-1.37,1.44h2.6Z"/>
      <path class="st3" d="M116.02,107.07v1.03h-3.09v-1.03h3.09Z"/>
    </g>
    <g class="st5">
      <path class="st3" d="M126.3,110.44c-.52.19-1.54.46-2.62.46-1.38,0-2.44-.35-3.21-1.09-.73-.69-1.14-1.77-1.14-3.01.01-2.6,1.84-4.25,4.55-4.25,1.01,0,1.8.21,2.17.39l-.33,1.2c-.45-.21-.99-.35-1.86-.35-1.75,0-2.97,1.03-2.97,2.94s1.14,2.96,2.84,2.96c.55,0,.93-.07,1.13-.16v-2.05h-1.44v-1.18h2.89v4.14Z"/>
    </g>
    <g class="st5">
      <path class="st3" d="M128.9,108.29c.04,1.07.86,1.53,1.82,1.53.69,0,1.18-.11,1.64-.27l.22,1.02c-.51.22-1.21.38-2.06.38-1.92,0-3.04-1.18-3.04-2.98,0-1.64.99-3.18,2.89-3.18s2.55,1.58,2.55,2.88c0,.28-.02.5-.05.63h-3.95ZM131.49,107.24c.01-.55-.23-1.44-1.23-1.44-.92,0-1.31.84-1.37,1.44h2.6ZM132.16,102.35l-1.48,1.79h-1.03l1.06-1.79h1.46Z"/>
      <path class="st3" d="M134.1,106.67c0-.68-.02-1.25-.05-1.76h1.3l.07.88h.04c.27-.46.91-1.02,1.89-1.02,1.03,0,2.1.67,2.1,2.54v3.51h-1.49v-3.34c0-.85-.32-1.49-1.13-1.49-.59,0-1.01.42-1.16.87-.05.12-.07.3-.07.47v3.48h-1.49v-4.15Z"/>
      <path class="st3" d="M142.09,108.29c.04,1.07.86,1.53,1.82,1.53.69,0,1.18-.11,1.64-.27l.22,1.02c-.51.22-1.21.38-2.06.38-1.92,0-3.04-1.18-3.04-2.98,0-1.64.99-3.18,2.89-3.18s2.55,1.58,2.55,2.88c0,.28-.02.5-.05.63h-3.95ZM144.69,107.24c.01-.55-.23-1.44-1.23-1.44-.92,0-1.31.84-1.37,1.44h2.6ZM145.36,102.35l-1.48,1.79h-1.03l1.06-1.79h1.46Z"/>
    </g>
    <g class="st5">
      <path class="st3" d="M147.28,106.82c0-.8-.01-1.38-.05-1.9h1.29l.06,1.12h.04c.29-.82.98-1.25,1.63-1.25.15,0,.23.01.35.04v1.4c-.13-.02-.27-.04-.45-.04-.7,0-1.2.45-1.33,1.13-.02.13-.04.29-.04.45v3.07h-1.49v-4Z"/>
    </g>
    <g class="st5">
      <path class="st3" d="M156.09,109.4c0,.53.02,1.05.1,1.42h-1.35l-.11-.66h-.04c-.35.46-.97.79-1.75.79-1.19,0-1.86-.86-1.86-1.76,0-1.48,1.32-2.24,3.51-2.23v-.1c0-.39-.16-1.03-1.2-1.03-.58,0-1.19.18-1.59.44l-.29-.97c.44-.27,1.2-.52,2.13-.52,1.89,0,2.44,1.2,2.44,2.5v2.12ZM154.63,107.93c-1.06-.01-2.06.21-2.06,1.1,0,.58.38.85.85.85.61,0,1.03-.39,1.18-.81.04-.11.04-.22.04-.33v-.81Z"/>
      <path class="st3" d="M157.66,102.21h1.49v8.61h-1.49v-8.61Z"/>
      <path class="st3" d="M161.84,108.29c.04,1.07.86,1.53,1.82,1.53.69,0,1.18-.11,1.64-.27l.22,1.02c-.51.22-1.21.38-2.06.38-1.92,0-3.04-1.18-3.04-2.98,0-1.64.99-3.18,2.89-3.18s2.55,1.58,2.55,2.88c0,.28-.02.5-.05.63h-3.95ZM164.43,107.24c.01-.55-.23-1.44-1.23-1.44-.92,0-1.31.84-1.37,1.44h2.6Z"/>
    </g>
  </g>
  <g class="st5">
    <g class="st5">
      <path class="st7" d="M81.43,92.77h1.39v6.46h3.14v1.17h-4.53v-7.63Z"/>
      <path class="st7" d="M86.79,99.63c0-.52.36-.89.86-.89s.86.36.86.89-.34.89-.87.89c-.5,0-.85-.39-.85-.89Z"/>
    </g>
    <g class="st5">
      <path class="st7" d="M92.02,92.77h1.38v3.51h.03c.18-.29.37-.57.55-.83l2-2.68h1.71l-2.63,3.25,2.8,4.38h-1.63l-2.15-3.5-.69.81v2.68h-1.38v-7.63Z"/>
    </g>
    <g class="st5">
      <path class="st7" d="M100.28,98.24l-.66,2.16h-1.44l2.45-7.63h1.78l2.48,7.63h-1.51l-.69-2.16h-2.41ZM102.47,97.18l-.6-1.88c-.15-.46-.27-.99-.39-1.43h-.02c-.11.44-.24.97-.36,1.43l-.59,1.88h1.96Z"/>
      <path class="st7" d="M105.95,92.88c.53-.1,1.3-.17,2.11-.17,1.1,0,1.83.18,2.35.61.42.35.66.88.66,1.54,0,.98-.67,1.65-1.39,1.9v.03c.55.2.88.74,1.06,1.47.25.95.45,1.83.6,2.13h-1.43c-.11-.23-.31-.85-.51-1.8-.23-1-.58-1.31-1.37-1.34h-.7v3.14h-1.38v-7.52ZM107.33,96.24h.83c.94,0,1.52-.5,1.52-1.26,0-.83-.58-1.22-1.48-1.22-.44,0-.72.03-.86.07v2.41Z"/>
      <path class="st7" d="M112.39,92.88c.44-.09,1.25-.17,2.04-.17,1.02,0,1.66.14,2.17.49.48.28.79.78.79,1.44,0,.7-.44,1.34-1.27,1.64v.03c.8.2,1.54.84,1.54,1.88,0,.68-.29,1.21-.72,1.58-.54.46-1.44.7-2.84.7-.77,0-1.35-.06-1.71-.1v-7.5ZM113.78,95.89h.71c.97,0,1.51-.45,1.51-1.1,0-.72-.54-1.05-1.43-1.05-.41,0-.65.02-.79.06v2.09ZM113.78,99.39c.18.03.42.03.74.03.89,0,1.7-.33,1.7-1.27s-.78-1.26-1.74-1.26h-.69v2.49Z"/>
      <path class="st7" d="M125.69,96.51c0,2.56-1.55,4.02-3.65,4.02s-3.52-1.65-3.52-3.88c0-2.36,1.48-4.01,3.63-4.01s3.53,1.69,3.53,3.87ZM119.99,96.61c0,1.56.78,2.8,2.12,2.8s2.11-1.26,2.11-2.85c0-1.44-.71-2.8-2.11-2.8s-2.12,1.28-2.12,2.85Z"/>
      <path class="st7" d="M128.27,92.77v4.45c0,1.5.62,2.19,1.56,2.19,1.01,0,1.61-.69,1.61-2.19v-4.45h1.39v4.36c0,2.36-1.21,3.4-3.05,3.4s-2.91-.99-2.91-3.39v-4.37h1.39Z"/>
      <path class="st7" d="M134.42,92.88c.44-.09,1.25-.17,2.04-.17,1.02,0,1.66.14,2.17.49.48.28.79.78.79,1.44,0,.7-.44,1.34-1.27,1.64v.03c.8.2,1.54.84,1.54,1.88,0,.68-.29,1.21-.72,1.58-.54.46-1.44.7-2.84.7-.77,0-1.35-.06-1.71-.1v-7.5ZM135.8,95.89h.71c.97,0,1.51-.45,1.51-1.1,0-.72-.54-1.05-1.43-1.05-.41,0-.65.02-.79.06v2.09ZM135.8,99.39c.18.03.42.03.74.03.89,0,1.7-.33,1.7-1.27s-.78-1.26-1.74-1.26h-.69v2.49Z"/>
      <path class="st7" d="M142.34,92.77v7.63h-1.39v-7.63h1.39Z"/>
    </g>
  </g>
  <g>
    <g class="st5">
      <g class="st5">
        <path class="st7" d="M237.1,97.86v-7.63h1.6l1.97,3.27c.5.85.95,1.73,1.3,2.56h.02c-.1-1.02-.12-2-.12-3.17v-2.66h1.29v7.63h-1.45l-1.99-3.36c-.49-.84-.98-1.77-1.36-2.63h-.05c.06,1,.08,2,.08,3.26v2.73h-1.29Z"/>
        <path class="st7" d="M244.53,97.09c0-.52.36-.89.86-.89s.86.36.86.89-.34.89-.87.89c-.5,0-.85-.39-.85-.89Z"/>
        <path class="st7" d="M256.22,94.75c-.05-.99-.1-2.17-.09-3.2h-.03c-.25.93-.57,1.96-.91,2.92l-1.12,3.31h-1.06l-1.02-3.26c-.29-.97-.57-2.01-.77-2.97h-.02c-.03,1-.08,2.21-.14,3.25l-.17,3.07h-1.3l.51-7.63h1.83l1,3.07c.27.89.51,1.8.7,2.65h.03c.2-.83.46-1.77.76-2.66l1.05-3.06h1.81l.44,7.63h-1.36l-.15-3.11Z"/>
        <path class="st7" d="M263.4,94.47h-2.88v2.24h3.22v1.14h-4.61v-7.63h4.44v1.14h-3.05v1.97h2.88v1.13Z"/>
      </g>
      <g class="st5">
        <path class="st7" d="M264.95,90.23h1.38v3.51h.03c.18-.29.37-.57.55-.83l2-2.68h1.71l-2.63,3.25,2.8,4.38h-1.63l-2.15-3.5-.69.81v2.68h-1.38v-7.63Z"/>
      </g>
      <g class="st5">
        <path class="st7" d="M273.21,95.7l-.66,2.16h-1.44l2.45-7.63h1.78l2.48,7.63h-1.51l-.69-2.16h-2.41ZM275.4,94.64l-.6-1.88c-.15-.46-.27-.99-.39-1.43h-.02c-.11.44-.24.97-.36,1.43l-.59,1.88h1.96Z"/>
      </g>
      <g class="st5">
        <path class="st7" d="M285.42,93.97c0,2.56-1.55,4.02-3.65,4.02s-3.52-1.65-3.52-3.88c0-2.36,1.48-4.01,3.63-4.01s3.53,1.69,3.53,3.87ZM279.73,94.07c0,1.56.78,2.8,2.12,2.8s2.11-1.26,2.11-2.85c0-1.44-.71-2.8-2.11-2.8s-2.12,1.28-2.12,2.85Z"/>
        <path class="st7" d="M288,90.23v4.45c0,1.5.62,2.19,1.56,2.19,1.01,0,1.61-.69,1.61-2.19v-4.45h1.39v4.36c0,2.36-1.21,3.4-3.05,3.4s-2.91-.99-2.91-3.39v-4.37h1.39Z"/>
        <path class="st7" d="M295.55,90.23v7.63h-1.39v-7.63h1.39Z"/>
      </g>
    </g>
    <g class="st5">
      <g class="st5">
        <path class="st3" d="M247.26,101.99h-2.02v-1.08h5.35v1.08h-2.04v6h-1.29v-6Z"/>
      </g>
      <g class="st5">
        <path class="st3" d="M250.84,104.52c0-.69-.01-1.2-.04-1.65h1.11l.05.97h.03c.25-.71.85-1.08,1.41-1.08.13,0,.2,0,.3.03v1.21c-.12-.02-.23-.03-.39-.03-.61,0-1.04.39-1.16.98-.02.12-.03.25-.03.39v2.66h-1.29v-3.47Z"/>
      </g>
      <g class="st5">
        <path class="st3" d="M255.42,105.79c.03.92.75,1.32,1.58,1.32.6,0,1.02-.09,1.42-.23l.19.88c-.44.19-1.05.33-1.79.33-1.66,0-2.64-1.02-2.64-2.59,0-1.42.86-2.75,2.5-2.75s2.21,1.37,2.21,2.49c0,.24-.02.43-.04.55h-3.43ZM257.67,104.89c.01-.47-.2-1.25-1.06-1.25-.8,0-1.14.73-1.19,1.25h2.25ZM258.25,100.65l-1.28,1.56h-.89l.91-1.56h1.26Z"/>
        <path class="st3" d="M259.87,106.79c.28.18.84.38,1.3.38.57,0,.82-.24.82-.58s-.21-.51-.84-.75c-1-.34-1.41-.88-1.41-1.49,0-.9.75-1.6,1.93-1.6.57,0,1.06.14,1.37.3l-.26.9c-.21-.13-.63-.29-1.08-.29s-.71.23-.71.55.24.47.89.71c.94.33,1.36.8,1.37,1.56,0,.94-.73,1.61-2.08,1.61-.62,0-1.18-.15-1.56-.36l.26-.95Z"/>
        <path class="st3" d="M269.18,105.38c0,1.88-1.32,2.72-2.63,2.72-1.44,0-2.56-.99-2.56-2.64s1.1-2.71,2.65-2.71,2.54,1.07,2.54,2.63ZM265.32,105.44c0,.99.49,1.73,1.27,1.73.74,0,1.25-.71,1.25-1.76,0-.8-.36-1.72-1.24-1.72s-1.28.89-1.28,1.75Z"/>
        <path class="st3" d="M270.24,104.52c0-.69-.01-1.2-.04-1.65h1.11l.05.97h.03c.25-.71.85-1.08,1.41-1.08.13,0,.2,0,.3.03v1.21c-.12-.02-.23-.03-.39-.03-.61,0-1.04.39-1.16.98-.02.12-.03.25-.03.39v2.66h-1.29v-3.47Z"/>
        <path class="st3" d="M275.36,101.44c0,.38-.28.69-.74.69s-.71-.32-.71-.69c0-.4.29-.7.73-.7s.71.3.73.7ZM273.98,107.99v-5.12h1.29v5.12h-1.29Z"/>
        <path class="st3" d="M277.58,105.79c.03.92.75,1.32,1.58,1.32.6,0,1.02-.09,1.42-.23l.19.88c-.44.19-1.05.33-1.79.33-1.66,0-2.64-1.02-2.64-2.59,0-1.42.86-2.75,2.5-2.75s2.21,1.37,2.21,2.49c0,.24-.02.43-.04.55h-3.43ZM279.83,104.89c.01-.47-.2-1.25-1.06-1.25-.8,0-1.14.73-1.19,1.25h2.25Z"/>
        <path class="st3" d="M282.09,104.52c0-.69-.01-1.2-.04-1.65h1.11l.05.97h.03c.25-.71.85-1.08,1.41-1.08.13,0,.2,0,.3.03v1.21c-.12-.02-.23-.03-.39-.03-.61,0-1.04.39-1.16.98-.02.12-.03.25-.03.39v2.66h-1.29v-3.47Z"/>
      </g>
    </g>
  </g>
  <path class="st6" d="M365.64,85.69h113.99c8.72,0,15.86,7.14,15.86,15.86v1.69c0,8.72-7.14,15.86-15.86,15.86h-113.99c-8.72,0-15.86-7.14-15.86-15.86v-1.69c0-8.72,7.14-15.86,15.86-15.86"/>
  <rect class="st2" x="349.78" y="85.69" width="145.72" height="33.41" rx="15.86" ry="15.86"/>
  <g class="st5">
    <g class="st5">
      <path class="st7" d="M393.3,100.73l-1.87-7.63h1.48l.72,3.46c.19.93.37,1.9.5,2.66h.02c.12-.8.34-1.71.55-2.67l.83-3.45h1.46l.76,3.51c.18.91.35,1.75.46,2.58h.02c.14-.84.32-1.71.52-2.65l.79-3.44h1.42l-2.06,7.63h-1.48l-.79-3.59c-.19-.87-.33-1.6-.43-2.42h-.02c-.12.81-.27,1.55-.5,2.42l-.88,3.59h-1.51Z"/>
    </g>
    <g class="st5">
      <path class="st7" d="M400.97,99.96c0-.52.36-.89.86-.89s.86.36.86.89-.34.89-.87.89c-.5,0-.85-.39-.85-.89Z"/>
    </g>
    <g class="st5">
      <path class="st7" d="M406.21,93.1h1.38v3.51h.03c.18-.29.37-.57.55-.83l2-2.68h1.71l-2.63,3.25,2.8,4.38h-1.63l-2.15-3.5-.69.81v2.68h-1.38v-7.63Z"/>
    </g>
    <g class="st5">
      <path class="st7" d="M419.28,96.84c0,2.56-1.55,4.02-3.65,4.02s-3.52-1.65-3.52-3.88c0-2.36,1.48-4.01,3.63-4.01s3.53,1.69,3.53,3.87ZM413.59,96.94c0,1.56.78,2.8,2.12,2.8s2.11-1.26,2.11-2.85c0-1.44-.71-2.8-2.11-2.8s-2.12,1.28-2.12,2.85Z"/>
      <path class="st7" d="M422,93.1h1.39v4.95c0,2.11-1.02,2.81-2.52,2.81-.4,0-.87-.07-1.18-.18l.17-1.12c.23.08.53.14.86.14.79,0,1.28-.36,1.28-1.69v-4.9Z"/>
    </g>
    <g class="st5">
      <path class="st7" d="M431.36,97.62c-.05-.99-.1-2.17-.09-3.2h-.03c-.25.93-.57,1.96-.91,2.92l-1.12,3.31h-1.06l-1.02-3.26c-.29-.97-.57-2.01-.77-2.97h-.02c-.03,1-.08,2.21-.14,3.25l-.17,3.07h-1.3l.51-7.63h1.83l1,3.07c.27.89.51,1.8.7,2.65h.03c.2-.83.46-1.77.76-2.66l1.05-3.06h1.81l.44,7.63h-1.36l-.15-3.11Z"/>
    </g>
    <g class="st5">
      <path class="st7" d="M435.75,98.57l-.66,2.16h-1.44l2.45-7.63h1.78l2.48,7.63h-1.51l-.69-2.16h-2.41ZM437.94,97.51l-.6-1.88c-.15-.46-.27-.99-.39-1.43h-.02c-.11.44-.24.97-.36,1.43l-.59,1.88h1.96Z"/>
      <path class="st7" d="M441.41,100.73v-7.63h1.6l1.97,3.27c.5.85.95,1.73,1.3,2.56h.02c-.1-1.02-.12-2-.12-3.17v-2.66h1.29v7.63h-1.45l-1.99-3.36c-.49-.84-.99-1.77-1.36-2.63h-.05c.06,1,.08,2,.08,3.26v2.73h-1.29Z"/>
      <path class="st7" d="M453.34,97.34h-2.88v2.24h3.22v1.14h-4.61v-7.63h4.44v1.14h-3.05v1.97h2.88v1.13Z"/>
    </g>
  </g>
  <g class="st5">
    <g class="st5">
      <path class="st3" d="M358.32,109.56c.41.24,1.05.45,1.71.45.82,0,1.28-.39,1.28-.97,0-.54-.36-.85-1.25-1.18-1.18-.42-1.92-1.04-1.92-2.06,0-1.17.97-2.04,2.51-2.04.77,0,1.33.17,1.69.36l-.3,1.04c-.26-.14-.76-.34-1.42-.34-.82,0-1.17.43-1.17.85,0,.55.41.8,1.36,1.17,1.23.46,1.82,1.08,1.82,2.1,0,1.15-.86,2.13-2.68,2.13-.76,0-1.54-.21-1.92-.45l.29-1.07Z"/>
    </g>
    <g class="st5">
      <path class="st3" d="M364.72,108.77c.03.92.75,1.32,1.58,1.32.6,0,1.02-.09,1.42-.23l.19.88c-.44.19-1.05.33-1.79.33-1.66,0-2.64-1.02-2.64-2.59,0-1.42.86-2.75,2.5-2.75s2.21,1.37,2.21,2.49c0,.24-.02.43-.04.55h-3.43ZM366.97,107.87c.01-.47-.2-1.25-1.06-1.25-.8,0-1.13.73-1.19,1.25h2.25Z"/>
      <path class="st3" d="M372.99,110.81c-.27.13-.81.26-1.45.26-1.6,0-2.64-1.03-2.64-2.62s1.05-2.72,2.85-2.72c.47,0,.96.1,1.25.23l-.23.98c-.21-.11-.51-.2-.98-.2-.99,0-1.58.73-1.57,1.66,0,1.05.68,1.65,1.57,1.65.44,0,.77-.09,1.02-.2l.18.96Z"/>
    </g>
    <g class="st5">
      <path class="st3" d="M373.94,107.5c0-.69,0-1.2-.04-1.65h1.11l.05.97h.03c.25-.71.85-1.08,1.41-1.08.12,0,.2,0,.3.03v1.21c-.12-.02-.23-.03-.39-.03-.61,0-1.04.39-1.16.98-.02.12-.03.25-.03.39v2.66h-1.29v-3.47Z"/>
    </g>
    <g class="st5">
      <path class="st3" d="M378.52,108.77c.03.92.75,1.32,1.58,1.32.6,0,1.02-.09,1.42-.23l.19.88c-.44.19-1.05.33-1.79.33-1.66,0-2.64-1.02-2.64-2.59,0-1.42.86-2.75,2.5-2.75s2.21,1.37,2.21,2.49c0,.24-.02.43-.04.55h-3.43ZM380.77,107.87c.01-.47-.2-1.25-1.06-1.25-.8,0-1.13.73-1.19,1.25h2.25ZM381.35,103.63l-1.28,1.56h-.89l.92-1.56h1.26Z"/>
      <path class="st3" d="M384.51,104.54v1.31h1.23v.97h-1.23v2.26c0,.63.17.95.66.95.23,0,.36-.01.5-.05l.02.98c-.19.07-.54.14-.94.14-.48,0-.87-.16-1.12-.42-.28-.29-.41-.77-.41-1.44v-2.41h-.73v-.97h.73v-.96l1.27-.36Z"/>
      <path class="st3" d="M390.69,109.74c0,.46.02.92.08,1.23h-1.17l-.09-.57h-.03c-.3.4-.84.68-1.51.68-1.03,0-1.61-.75-1.61-1.52,0-1.28,1.15-1.94,3.04-1.93v-.08c0-.34-.14-.89-1.04-.89-.5,0-1.03.16-1.38.38l-.25-.84c.38-.23,1.04-.45,1.85-.45,1.64,0,2.11,1.04,2.11,2.17v1.84ZM389.43,108.47c-.91-.01-1.79.18-1.79.96,0,.5.33.74.74.74.53,0,.89-.34,1.02-.7.03-.09.03-.19.03-.28v-.7Z"/>
      <path class="st3" d="M393.43,104.42c0,.38-.28.69-.74.69s-.71-.32-.71-.69c0-.4.29-.7.73-.7s.71.3.73.7ZM392.05,110.97v-5.12h1.29v5.12h-1.29Z"/>
    </g>
    <g class="st5">
      <path class="st3" d="M394.74,107.5c0-.69-.01-1.2-.04-1.65h1.11l.05.97h.03c.25-.71.85-1.08,1.41-1.08.13,0,.2,0,.3.03v1.21c-.12-.02-.23-.03-.39-.03-.61,0-1.04.39-1.16.98-.02.12-.03.25-.03.39v2.66h-1.29v-3.47Z"/>
    </g>
    <g class="st5">
      <path class="st3" d="M399.31,108.77c.03.92.75,1.32,1.58,1.32.6,0,1.02-.09,1.42-.23l.19.88c-.44.19-1.05.33-1.79.33-1.66,0-2.64-1.02-2.64-2.59,0-1.42.86-2.75,2.5-2.75s2.21,1.37,2.21,2.49c0,.24-.02.43-.04.55h-3.43ZM401.56,107.87c.01-.47-.2-1.25-1.06-1.25-.8,0-1.13.73-1.19,1.25h2.25Z"/>
      <path class="st3" d="M408.29,107.72v.89h-2.68v-.89h2.68Z"/>
    </g>
    <g class="st5">
      <path class="st3" d="M417.21,110.64c-.45.17-1.33.4-2.27.4-1.2,0-2.11-.3-2.79-.95-.63-.6-.99-1.53-.99-2.61.01-2.25,1.6-3.68,3.94-3.68.87,0,1.56.18,1.88.34l-.28,1.04c-.39-.18-.86-.3-1.61-.3-1.51,0-2.58.89-2.58,2.54s.99,2.57,2.46,2.57c.47,0,.81-.06.98-.14v-1.78h-1.25v-1.02h2.5v3.58Z"/>
    </g>
    <g class="st5">
      <path class="st3" d="M419.46,108.77c.03.92.75,1.32,1.58,1.32.6,0,1.02-.09,1.42-.23l.19.88c-.44.19-1.05.33-1.79.33-1.66,0-2.64-1.02-2.64-2.59,0-1.42.86-2.75,2.5-2.75s2.21,1.37,2.21,2.49c0,.24-.02.43-.04.55h-3.43ZM421.71,107.87c.01-.47-.2-1.25-1.06-1.25-.8,0-1.14.73-1.19,1.25h2.25ZM422.29,103.63l-1.28,1.56h-.89l.91-1.56h1.26Z"/>
      <path class="st3" d="M423.97,107.37c0-.59-.02-1.08-.04-1.52h1.12l.06.77h.03c.23-.4.79-.88,1.64-.88.89,0,1.82.58,1.82,2.2v3.04h-1.29v-2.89c0-.74-.27-1.29-.98-1.29-.51,0-.87.37-1.01.76-.04.11-.06.26-.06.41v3.02h-1.29v-3.6Z"/>
      <path class="st3" d="M430.89,108.77c.03.92.75,1.32,1.58,1.32.6,0,1.02-.09,1.42-.23l.19.88c-.44.19-1.05.33-1.79.33-1.66,0-2.64-1.02-2.64-2.59,0-1.42.86-2.75,2.5-2.75s2.21,1.37,2.21,2.49c0,.24-.02.43-.04.55h-3.43ZM433.14,107.87c.01-.47-.2-1.25-1.06-1.25-.8,0-1.14.73-1.19,1.25h2.25ZM433.72,103.63l-1.28,1.56h-.89l.91-1.56h1.26Z"/>
    </g>
    <g class="st5">
      <path class="st3" d="M435.39,107.5c0-.69,0-1.2-.04-1.65h1.11l.05.97h.03c.25-.71.85-1.08,1.41-1.08.13,0,.2,0,.3.03v1.21c-.12-.02-.23-.03-.39-.03-.61,0-1.04.39-1.16.98-.02.12-.03.25-.03.39v2.66h-1.29v-3.47Z"/>
    </g>
    <g class="st5">
      <path class="st3" d="M443.03,109.74c0,.46.02.92.08,1.23h-1.17l-.09-.57h-.03c-.31.4-.84.68-1.51.68-1.03,0-1.61-.75-1.61-1.52,0-1.28,1.15-1.94,3.04-1.93v-.08c0-.34-.14-.89-1.04-.89-.5,0-1.03.16-1.38.38l-.25-.84c.38-.23,1.04-.45,1.85-.45,1.64,0,2.11,1.04,2.11,2.17v1.84ZM441.77,108.47c-.92-.01-1.79.18-1.79.96,0,.5.33.74.74.74.53,0,.89-.34,1.02-.7.03-.09.03-.19.03-.28v-.7Z"/>
      <path class="st3" d="M444.39,103.5h1.29v7.46h-1.29v-7.46Z"/>
      <path class="st3" d="M448.01,108.77c.03.92.75,1.32,1.58,1.32.6,0,1.02-.09,1.42-.23l.19.88c-.44.19-1.05.33-1.79.33-1.66,0-2.64-1.02-2.64-2.59,0-1.42.86-2.75,2.5-2.75s2.21,1.37,2.21,2.49c0,.24-.02.43-.04.55h-3.43ZM450.26,107.87c.01-.47-.2-1.25-1.06-1.25-.8,0-1.13.73-1.19,1.25h2.25Z"/>
    </g>
    <g class="st5">
      <path class="st3" d="M456.17,108.96l-.61,2.01h-1.34l2.27-7.09h1.65l2.3,7.09h-1.4l-.64-2.01h-2.24ZM458.2,107.98l-.56-1.75c-.14-.43-.25-.91-.36-1.32h-.02c-.11.41-.22.9-.34,1.32l-.55,1.75h1.82Z"/>
    </g>
    <g class="st5">
      <path class="st3" d="M465.96,103.5v6.02c0,.53.02,1.09.04,1.44h-1.15l-.06-.81h-.02c-.3.57-.92.92-1.66.92-1.23,0-2.2-1.04-2.2-2.62-.01-1.71,1.06-2.73,2.29-2.73.7,0,1.21.28,1.44.66h.02v-2.89h1.29ZM464.67,107.98c0-.11,0-.24-.03-.35-.12-.49-.53-.9-1.11-.9-.83,0-1.29.74-1.29,1.68s.46,1.63,1.28,1.63c.53,0,.99-.36,1.11-.92.03-.12.04-.24.04-.38v-.77Z"/>
      <path class="st3" d="M466.21,112.2c.42-.03.76-.15.97-.37.24-.26.34-.66.34-1.78v-4.21h1.29v4.57c0,1.06-.21,1.72-.67,2.19-.44.42-1.16.6-1.8.6l-.13-1.01ZM468.9,104.42c0,.38-.27.69-.74.69s-.71-.32-.71-.69c0-.4.29-.7.74-.7s.71.3.71.7Z"/>
      <path class="st3" d="M475.06,108.36c0,1.88-1.33,2.72-2.63,2.72-1.44,0-2.56-.99-2.56-2.64s1.1-2.71,2.65-2.71,2.54,1.07,2.54,2.63ZM471.2,108.42c0,.99.49,1.73,1.27,1.73.74,0,1.25-.71,1.25-1.76,0-.8-.36-1.72-1.24-1.72s-1.28.89-1.28,1.75Z"/>
      <path class="st3" d="M477.49,104.42c0,.38-.28.69-.74.69s-.71-.32-.71-.69c0-.4.29-.7.73-.7s.71.3.73.7ZM476.12,110.97v-5.12h1.29v5.12h-1.29Z"/>
    </g>
    <g class="st5">
      <path class="st3" d="M478.81,107.37c0-.59-.02-1.08-.04-1.52h1.12l.06.77h.03c.23-.4.79-.88,1.64-.88.89,0,1.82.58,1.82,2.2v3.04h-1.29v-2.89c0-.74-.27-1.29-.98-1.29-.52,0-.87.37-1.01.76-.04.11-.06.26-.06.41v3.02h-1.29v-3.6Z"/>
    </g>
    <g class="st5">
      <path class="st3" d="M486.26,104.54v1.31h1.23v.97h-1.23v2.26c0,.63.17.95.66.95.23,0,.36-.01.5-.05l.02.98c-.19.07-.54.14-.94.14-.48,0-.87-.16-1.12-.42-.28-.29-.41-.77-.41-1.44v-2.41h-.73v-.97h.73v-.96l1.27-.36Z"/>
    </g>
  </g>
  <g>
    <g class="st5">
      <g class="st5">
        <path class="st7" d="M238.4,138.21l-1.87-7.63h1.48l.72,3.46c.19.93.37,1.9.5,2.66h.02c.12-.8.34-1.71.55-2.67l.83-3.45h1.46l.76,3.51c.18.91.35,1.75.46,2.58h.02c.14-.84.32-1.71.52-2.65l.79-3.44h1.42l-2.06,7.63h-1.48l-.79-3.59c-.19-.87-.33-1.6-.43-2.42h-.02c-.12.81-.27,1.55-.5,2.42l-.88,3.59h-1.51Z"/>
      </g>
      <g class="st5">
        <path class="st7" d="M246.07,137.44c0-.52.36-.89.86-.89s.86.36.86.89-.34.89-.87.89c-.5,0-.85-.39-.85-.89Z"/>
      </g>
      <g class="st5">
        <path class="st7" d="M251.31,130.58h1.39v6.46h3.14v1.17h-4.53v-7.63Z"/>
      </g>
      <g class="st5">
        <path class="st7" d="M258.45,136.05l-.66,2.16h-1.44l2.45-7.63h1.78l2.48,7.63h-1.51l-.69-2.16h-2.41ZM260.64,134.99l-.6-1.88c-.15-.46-.27-.99-.39-1.43h-.02c-.11.44-.24.97-.36,1.43l-.59,1.88h1.96Z"/>
        <path class="st7" d="M265.52,130.58v3.06h3.23v-3.06h1.39v7.63h-1.39v-3.36h-3.23v3.36h-1.39v-7.63h1.39Z"/>
        <path class="st7" d="M278.17,135.1c-.05-.99-.1-2.17-.09-3.2h-.03c-.25.93-.57,1.96-.91,2.92l-1.12,3.31h-1.06l-1.02-3.26c-.29-.97-.57-2.01-.77-2.97h-.02c-.03,1-.08,2.21-.14,3.25l-.17,3.07h-1.3l.51-7.63h1.83l1,3.07c.27.89.51,1.8.7,2.65h.03c.2-.83.46-1.77.76-2.66l1.05-3.06h1.81l.44,7.63h-1.36l-.15-3.11Z"/>
        <path class="st7" d="M282.48,130.58v7.63h-1.39v-7.63h1.39Z"/>
        <path class="st7" d="M284.07,138.21v-7.63h1.6l1.97,3.27c.5.85.95,1.73,1.3,2.56h.02c-.1-1.02-.12-2-.12-3.17v-2.66h1.29v7.63h-1.45l-1.99-3.36c-.49-.84-.98-1.77-1.36-2.63h-.05c.06,1,.08,2,.08,3.26v2.73h-1.29Z"/>
        <path class="st7" d="M293.12,130.58v7.63h-1.39v-7.63h1.39Z"/>
      </g>
    </g>
    <g class="st5">
      <g class="st5">
        <path class="st3" d="M235.64,148.37l-2.29-7.09h1.41l.97,3.23c.27.89.52,1.71.69,2.58h.02c.19-.84.45-1.7.73-2.57l1.03-3.24h1.38l-2.45,7.09h-1.48Z"/>
      </g>
      <g class="st5">
        <path class="st3" d="M241.43,141.82c0,.38-.28.69-.74.69s-.71-.32-.71-.69c0-.4.29-.7.73-.7s.71.3.73.7ZM240.05,148.37v-5.12h1.29v5.12h-1.29Z"/>
      </g>
      <g class="st5">
        <path class="st3" d="M246.52,148.21c-.27.13-.81.26-1.45.26-1.6,0-2.64-1.03-2.64-2.62s1.05-2.72,2.85-2.72c.47,0,.96.1,1.25.23l-.23.98c-.21-.11-.52-.2-.98-.2-.99,0-1.58.73-1.57,1.66,0,1.05.68,1.65,1.57,1.65.44,0,.77-.09,1.02-.2l.18.96Z"/>
      </g>
      <g class="st5">
        <path class="st3" d="M248.3,146.17c.03.92.75,1.32,1.58,1.32.6,0,1.02-.09,1.42-.23l.19.88c-.44.19-1.05.33-1.79.33-1.66,0-2.64-1.02-2.64-2.59,0-1.42.86-2.75,2.5-2.75s2.21,1.37,2.21,2.49c0,.24-.02.43-.04.55h-3.43ZM250.55,145.27c.01-.47-.2-1.25-1.06-1.25-.8,0-1.14.73-1.19,1.25h2.25Z"/>
      </g>
      <g class="st5">
        <path class="st3" d="M257.29,145.12v.89h-2.68v-.89h2.68Z"/>
      </g>
      <g class="st5">
        <path class="st3" d="M259.15,142.37h-2.02v-1.08h5.35v1.08h-2.04v6h-1.29v-6Z"/>
      </g>
      <g class="st5">
        <path class="st3" d="M262.73,144.9c0-.69-.01-1.2-.04-1.65h1.11l.05.97h.03c.25-.71.85-1.08,1.41-1.08.13,0,.2,0,.3.03v1.21c-.12-.02-.23-.03-.39-.03-.61,0-1.04.39-1.16.98-.02.12-.03.25-.03.39v2.66h-1.29v-3.47Z"/>
      </g>
      <g class="st5">
        <path class="st3" d="M267.31,146.17c.03.92.75,1.32,1.58,1.32.6,0,1.02-.09,1.42-.23l.19.88c-.44.19-1.05.33-1.79.33-1.66,0-2.64-1.02-2.64-2.59,0-1.42.86-2.75,2.5-2.75s2.21,1.37,2.21,2.49c0,.24-.02.43-.04.55h-3.43ZM269.56,145.27c.01-.47-.2-1.25-1.06-1.25-.8,0-1.14.73-1.19,1.25h2.25ZM270.14,141.03l-1.28,1.56h-.89l.91-1.56h1.26Z"/>
        <path class="st3" d="M271.76,147.17c.28.18.84.38,1.3.38.57,0,.82-.24.82-.58s-.21-.51-.84-.75c-1-.34-1.41-.88-1.41-1.49,0-.9.75-1.6,1.93-1.6.57,0,1.06.14,1.37.3l-.26.9c-.21-.13-.63-.29-1.08-.29s-.71.23-.71.55.24.47.89.71c.94.33,1.36.8,1.37,1.56,0,.94-.73,1.61-2.08,1.61-.62,0-1.18-.15-1.56-.36l.26-.95Z"/>
        <path class="st3" d="M281.07,145.76c0,1.88-1.32,2.72-2.63,2.72-1.44,0-2.56-.99-2.56-2.64s1.1-2.71,2.65-2.71,2.54,1.07,2.54,2.63ZM277.21,145.82c0,.99.49,1.73,1.27,1.73.74,0,1.25-.71,1.25-1.76,0-.8-.36-1.72-1.24-1.72s-1.28.89-1.28,1.75Z"/>
        <path class="st3" d="M282.13,144.9c0-.69-.01-1.2-.04-1.65h1.11l.05.97h.03c.25-.71.85-1.08,1.41-1.08.13,0,.2,0,.3.03v1.21c-.12-.02-.23-.03-.39-.03-.61,0-1.04.39-1.16.98-.02.12-.03.25-.03.39v2.66h-1.29v-3.47Z"/>
        <path class="st3" d="M287.25,141.82c0,.38-.28.69-.74.69s-.71-.32-.71-.69c0-.4.29-.7.73-.7s.71.3.73.7ZM285.87,148.37v-5.12h1.29v5.12h-1.29Z"/>
        <path class="st3" d="M289.47,146.17c.03.92.75,1.32,1.58,1.32.6,0,1.02-.09,1.42-.23l.19.88c-.44.19-1.05.33-1.79.33-1.66,0-2.64-1.02-2.64-2.59,0-1.42.86-2.75,2.5-2.75s2.21,1.37,2.21,2.49c0,.24-.02.43-.04.55h-3.43ZM291.72,145.27c.01-.47-.2-1.25-1.06-1.25-.8,0-1.14.73-1.19,1.25h2.25Z"/>
        <path class="st3" d="M293.98,144.9c0-.69-.01-1.2-.04-1.65h1.11l.05.97h.03c.25-.71.85-1.08,1.41-1.08.13,0,.2,0,.3.03v1.21c-.12-.02-.23-.03-.39-.03-.61,0-1.04.39-1.16.98-.02.12-.03.25-.03.39v2.66h-1.29v-3.47Z"/>
      </g>
    </g>
  </g>
  <g>
    <g>
      <line class="st0" x1="171.57" y1="196.68" x2="171.57" y2="165.65"/>
      <polyline class="st0" points="268.72 165.65 535.39 165.65 535.39 195.55"/>
      <line class="st0" x1="410.4" y1="190.94" x2="410.4" y2="165.65"/>
      <line class="st0" x1="295.81" y1="194.14" x2="295.81" y2="165.65"/>
      <polyline class="st0" points="268.72 165.65 56.22 165.65 56.22 185.3"/>
    </g>
    <g>
      <path class="st4" d="M37.53,194.13c0,10.36-8.4,18.77-18.77,18.77S0,204.49,0,194.13s8.4-18.77,18.76-18.77,18.77,8.4,18.77,18.77"/>
      <path class="st6" d="M99.22,210.83H21.17c-8.72,0-15.86-7.14-15.86-15.86v-1.69c0-8.72,7.14-15.86,15.86-15.86h78.05c8.72,0,15.86,7.14,15.86,15.86v1.69c0,8.72-7.14,15.86-15.86,15.86"/>
      <rect class="st1" x="5.31" y="177.42" width="109.77" height="33.41" rx="15.86" ry="15.86"/>
      <g class="st5">
        <g class="st5">
          <path class="st7" d="M36.73,189.87c-.05-.99-.1-2.17-.09-3.21h-.03c-.25.93-.57,1.96-.91,2.92l-1.12,3.3h-1.06l-1.02-3.26c-.29-.97-.57-2.02-.77-2.97h-.02c-.03,1-.08,2.21-.14,3.25l-.17,3.07h-1.3l.51-7.63h1.83l1,3.07c.27.89.51,1.8.7,2.65h.03c.2-.83.46-1.77.76-2.66l1.05-3.06h1.81l.44,7.63h-1.36l-.15-3.11Z"/>
          <path class="st7" d="M39.42,192.21c0-.52.36-.89.86-.89s.86.36.86.89-.34.89-.87.89c-.5,0-.85-.39-.85-.89Z"/>
          <path class="st7" d="M44.66,185.46c.44-.09,1.25-.17,2.04-.17,1.02,0,1.66.13,2.17.49.48.28.79.78.79,1.44,0,.7-.44,1.34-1.27,1.64v.03c.8.2,1.54.84,1.54,1.88,0,.68-.29,1.21-.72,1.59-.54.46-1.44.7-2.84.7-.77,0-1.35-.06-1.71-.1v-7.49ZM46.04,188.47h.71c.97,0,1.51-.45,1.51-1.1,0-.72-.54-1.05-1.43-1.05-.41,0-.65.02-.79.06v2.1ZM46.04,191.97c.18.03.42.03.74.03.89,0,1.7-.33,1.7-1.27s-.78-1.26-1.74-1.26h-.69v2.49Z"/>
          <path class="st7" d="M57.95,189.09c0,2.56-1.55,4.02-3.65,4.02s-3.52-1.65-3.52-3.88c0-2.36,1.48-4.01,3.63-4.01s3.53,1.69,3.53,3.87ZM52.26,189.19c0,1.56.78,2.8,2.12,2.8s2.11-1.26,2.11-2.85c0-1.44-.71-2.8-2.11-2.8s-2.12,1.28-2.12,2.85Z"/>
          <path class="st7" d="M59.15,185.46c.53-.1,1.3-.17,2.11-.17,1.1,0,1.83.18,2.35.61.42.35.66.88.66,1.54,0,.98-.67,1.65-1.39,1.9v.03c.55.21.88.74,1.06,1.47.25.95.45,1.83.6,2.13h-1.43c-.11-.23-.31-.85-.51-1.8-.23-1-.58-1.31-1.37-1.34h-.7v3.14h-1.38v-7.52ZM60.53,188.82h.83c.94,0,1.52-.5,1.52-1.26,0-.83-.58-1.22-1.48-1.22-.44,0-.72.03-.86.07v2.41Z"/>
          <path class="st7" d="M65.59,185.46c.53-.1,1.3-.17,2.11-.17,1.1,0,1.83.18,2.35.61.42.35.66.88.66,1.54,0,.98-.67,1.65-1.39,1.9v.03c.55.21.88.74,1.06,1.47.25.95.45,1.83.6,2.13h-1.43c-.11-.23-.31-.85-.51-1.8-.23-1-.58-1.31-1.37-1.34h-.7v3.14h-1.38v-7.52ZM66.97,188.82h.83c.94,0,1.52-.5,1.52-1.26,0-.83-.58-1.22-1.48-1.22-.44,0-.72.03-.86.07v2.41Z"/>
          <path class="st7" d="M78.8,189.09c0,2.56-1.55,4.02-3.65,4.02s-3.52-1.65-3.52-3.88c0-2.36,1.48-4.01,3.63-4.01s3.53,1.69,3.53,3.87ZM73.11,189.19c0,1.56.78,2.8,2.12,2.8s2.11-1.26,2.11-2.85c0-1.44-.71-2.8-2.11-2.8s-2.12,1.28-2.12,2.85Z"/>
          <path class="st7" d="M81.38,185.35v4.45c0,1.49.62,2.19,1.56,2.19,1.01,0,1.61-.69,1.61-2.19v-4.45h1.39v4.36c0,2.36-1.21,3.4-3.05,3.4s-2.91-.99-2.91-3.39v-4.37h1.39Z"/>
          <path class="st7" d="M87.52,191.46c.44.26,1.13.49,1.85.49.88,0,1.38-.42,1.38-1.04,0-.58-.38-.92-1.35-1.27-1.27-.45-2.07-1.12-2.07-2.22,0-1.26,1.04-2.2,2.71-2.2.83,0,1.43.18,1.82.38l-.33,1.12c-.28-.15-.81-.36-1.53-.36-.88,0-1.26.46-1.26.92,0,.59.44.86,1.46,1.26,1.32.5,1.96,1.17,1.96,2.27,0,1.23-.93,2.3-2.89,2.3-.81,0-1.65-.23-2.07-.49l.32-1.15Z"/>
        </g>
      </g>
      <g class="st5">
        <g class="st5">
          <path class="st3" d="M42.17,201.95c-.3.15-.98.32-1.84.32-2.25,0-3.62-1.41-3.62-3.57,0-2.33,1.63-3.74,3.79-3.74.85,0,1.45.18,1.71.32l-.27,1.03c-.34-.15-.81-.27-1.39-.27-1.44,0-2.48.9-2.48,2.61,0,1.57.9,2.55,2.47,2.55.52,0,1.06-.11,1.41-.25l.21,1.02Z"/>
        </g>
        <g class="st5">
          <path class="st3" d="M47.92,199.54c0,1.88-1.32,2.72-2.63,2.72-1.44,0-2.56-.99-2.56-2.64s1.1-2.71,2.65-2.71,2.54,1.07,2.54,2.63ZM44.06,199.6c0,.99.49,1.73,1.27,1.73.74,0,1.25-.71,1.25-1.76,0-.8-.36-1.72-1.24-1.72s-1.28.89-1.28,1.75Z"/>
          <path class="st3" d="M48.98,198.55c0-.59-.02-1.08-.04-1.52h1.12l.06.77h.03c.23-.4.79-.88,1.64-.88.89,0,1.82.58,1.82,2.2v3.04h-1.29v-2.89c0-.74-.27-1.29-.98-1.29-.52,0-.87.37-1.01.76-.04.11-.06.26-.06.41v3.02h-1.29v-3.6Z"/>
          <path class="st3" d="M54.94,200.95c.28.18.84.38,1.3.38.57,0,.82-.24.82-.58s-.21-.51-.84-.75c-1-.34-1.41-.88-1.41-1.49,0-.9.75-1.6,1.93-1.6.57,0,1.06.14,1.37.3l-.26.9c-.21-.13-.63-.29-1.08-.29s-.71.23-.71.55.24.47.89.71c.94.33,1.36.8,1.37,1.56,0,.94-.73,1.61-2.08,1.61-.62,0-1.18-.15-1.56-.36l.26-.95Z"/>
          <path class="st3" d="M60.29,199.95c.03.92.75,1.32,1.58,1.32.6,0,1.02-.09,1.42-.23l.19.88c-.44.19-1.05.33-1.79.33-1.66,0-2.64-1.02-2.64-2.59,0-1.42.86-2.75,2.5-2.75s2.21,1.37,2.21,2.49c0,.24-.02.43-.04.55h-3.43ZM62.54,199.05c.01-.47-.2-1.25-1.06-1.25-.8,0-1.14.73-1.19,1.25h2.25Z"/>
          <path class="st3" d="M66.18,195.6c0,.38-.28.69-.74.69s-.71-.32-.71-.69c0-.4.29-.7.73-.7s.71.3.73.7ZM64.8,202.15v-5.12h1.29v5.12h-1.29Z"/>
          <path class="st3" d="M67.49,194.69h1.29v7.46h-1.29v-7.46Z"/>
          <path class="st3" d="M70.19,194.69h1.29v7.46h-1.29v-7.46Z"/>
          <path class="st3" d="M73.81,199.95c.03.92.75,1.32,1.58,1.32.6,0,1.02-.09,1.42-.23l.19.88c-.44.19-1.05.33-1.79.33-1.66,0-2.64-1.02-2.64-2.59,0-1.42.86-2.75,2.5-2.75s2.21,1.37,2.21,2.49c0,.24-.02.43-.04.55h-3.43ZM76.06,199.05c.01-.47-.2-1.25-1.06-1.25-.8,0-1.14.73-1.19,1.25h2.25Z"/>
          <path class="st3" d="M78.31,198.68c0-.69-.01-1.2-.04-1.65h1.11l.05.97h.03c.25-.71.85-1.08,1.41-1.08.13,0,.2,0,.3.03v1.21c-.12-.02-.23-.03-.39-.03-.61,0-1.04.39-1.16.98-.02.12-.03.25-.03.39v2.66h-1.29v-3.47Z"/>
          <path class="st3" d="M82,200.95c.28.18.84.38,1.3.38.57,0,.82-.24.82-.58s-.21-.51-.84-.75c-1-.34-1.41-.88-1.41-1.49,0-.9.75-1.6,1.93-1.6.57,0,1.06.14,1.37.3l-.26.9c-.21-.13-.63-.29-1.08-.29s-.71.23-.71.55.24.47.89.71c.94.33,1.36.8,1.37,1.56,0,.94-.73,1.61-2.08,1.61-.62,0-1.18-.15-1.56-.36l.26-.95Z"/>
        </g>
      </g>
    </g>
    <g>
      <path class="st4" d="M196.46,194.13c0-10.36,8.4-18.77,18.77-18.77s18.76,8.4,18.76,18.77-8.4,18.77-18.76,18.77-18.77-8.4-18.77-18.77"/>
      <path class="st6" d="M134.77,177.42h78.05c8.72,0,15.86,7.14,15.86,15.86v1.69c0,8.72-7.14,15.86-15.86,15.86h-78.05c-8.72,0-15.86-7.14-15.86-15.86v-1.69c0-8.72,7.14-15.86,15.86-15.86"/>
      <rect class="st1" x="118.91" y="177.42" width="109.77" height="33.41" rx="15.86" ry="15.86"/>
      <g class="st5">
        <g class="st5">
          <path class="st7" d="M152.71,189.72c-.05-.99-.1-2.17-.09-3.2h-.03c-.25.93-.57,1.96-.91,2.92l-1.12,3.31h-1.06l-1.02-3.26c-.29-.97-.57-2.01-.77-2.97h-.02c-.03,1-.08,2.21-.14,3.25l-.17,3.07h-1.3l.51-7.63h1.83l1,3.07c.27.89.51,1.8.7,2.65h.03c.2-.83.46-1.77.76-2.66l1.05-3.06h1.81l.44,7.63h-1.36l-.15-3.11Z"/>
          <path class="st7" d="M155.4,192.06c0-.52.36-.89.86-.89s.86.36.86.89-.34.89-.87.89c-.5,0-.85-.39-.85-.89Z"/>
          <path class="st7" d="M164.91,189.44h-2.88v2.24h3.22v1.14h-4.61v-7.63h4.44v1.14h-3.05v1.97h2.88v1.13Z"/>
        </g>
        <g class="st5">
          <path class="st7" d="M166.46,185.2h1.39v6.46h3.14v1.17h-4.53v-7.63Z"/>
        </g>
        <g class="st5">
          <path class="st7" d="M174.14,189.33v.96h-2.89v-.96h2.89Z"/>
          <path class="st7" d="M175.28,185.31c.44-.09,1.25-.17,2.04-.17,1.02,0,1.66.14,2.17.49.48.28.79.78.79,1.44,0,.7-.44,1.34-1.27,1.64v.03c.8.2,1.54.84,1.54,1.88,0,.68-.29,1.21-.72,1.58-.54.46-1.44.7-2.84.7-.77,0-1.35-.06-1.71-.1v-7.5ZM176.66,188.32h.71c.97,0,1.51-.45,1.51-1.1,0-.72-.54-1.05-1.43-1.05-.41,0-.65.02-.79.06v2.09ZM176.66,191.82c.18.03.42.03.74.03.89,0,1.7-.33,1.7-1.27s-.78-1.26-1.74-1.26h-.69v2.49Z"/>
          <path class="st7" d="M188.57,188.94c0,2.56-1.55,4.02-3.65,4.02s-3.52-1.65-3.52-3.88c0-2.36,1.48-4.01,3.63-4.01s3.53,1.69,3.53,3.87ZM182.88,189.04c0,1.56.78,2.8,2.12,2.8s2.11-1.26,2.11-2.85c0-1.44-.71-2.8-2.11-2.8s-2.12,1.28-2.12,2.85Z"/>
          <path class="st7" d="M191.15,185.2v4.45c0,1.5.62,2.19,1.56,2.19,1.01,0,1.61-.69,1.61-2.19v-4.45h1.39v4.36c0,2.36-1.21,3.4-3.05,3.4s-2.91-.99-2.91-3.39v-4.37h1.39Z"/>
          <path class="st7" d="M196.8,192.06l3.89-5.67v-.03h-3.55v-1.15h5.37v.82l-3.85,5.63v.03h3.91v1.16h-5.76v-.77Z"/>
        </g>
      </g>
      <g class="st5">
        <g class="st5">
          <path class="st3" d="M155.31,201.71c-.3.15-.98.32-1.84.32-2.25,0-3.62-1.41-3.62-3.57,0-2.33,1.63-3.74,3.79-3.74.85,0,1.45.18,1.71.32l-.27,1.03c-.34-.15-.81-.27-1.39-.27-1.44,0-2.48.9-2.48,2.61,0,1.57.9,2.55,2.47,2.55.52,0,1.06-.11,1.41-.25l.21,1.02Z"/>
        </g>
        <g class="st5">
          <path class="st3" d="M161.06,199.3c0,1.88-1.32,2.72-2.63,2.72-1.44,0-2.56-.99-2.56-2.64s1.1-2.71,2.65-2.71,2.54,1.07,2.54,2.63ZM157.2,199.36c0,.99.49,1.73,1.27,1.73.74,0,1.25-.71,1.25-1.76,0-.8-.36-1.72-1.24-1.72s-1.28.89-1.28,1.75Z"/>
          <path class="st3" d="M162.12,198.31c0-.59-.02-1.08-.04-1.52h1.12l.06.77h.03c.23-.4.79-.88,1.64-.88.89,0,1.82.58,1.82,2.2v3.04h-1.29v-2.89c0-.74-.27-1.29-.98-1.29-.52,0-.87.37-1.01.76-.04.11-.06.26-.06.41v3.02h-1.29v-3.6Z"/>
          <path class="st3" d="M168.08,200.71c.28.18.84.38,1.3.38.57,0,.82-.24.82-.58s-.21-.51-.84-.75c-1-.34-1.41-.88-1.41-1.49,0-.9.75-1.6,1.93-1.6.57,0,1.06.14,1.37.3l-.26.9c-.21-.13-.63-.29-1.08-.29s-.71.23-.71.55.24.47.89.71c.94.33,1.36.8,1.37,1.56,0,.94-.73,1.61-2.08,1.61-.62,0-1.18-.15-1.56-.36l.26-.95Z"/>
          <path class="st3" d="M173.43,199.71c.03.92.75,1.32,1.58,1.32.6,0,1.02-.09,1.42-.23l.19.88c-.44.19-1.05.33-1.79.33-1.66,0-2.64-1.02-2.64-2.59,0-1.42.86-2.75,2.5-2.75s2.21,1.37,2.21,2.49c0,.24-.02.43-.04.55h-3.43ZM175.68,198.81c.01-.47-.2-1.25-1.06-1.25-.8,0-1.14.73-1.19,1.25h2.25Z"/>
          <path class="st3" d="M179.32,195.36c0,.38-.28.69-.74.69s-.71-.32-.71-.69c0-.4.29-.7.73-.7s.71.3.73.7ZM177.94,201.91v-5.12h1.29v5.12h-1.29Z"/>
          <path class="st3" d="M180.63,194.45h1.29v7.46h-1.29v-7.46Z"/>
          <path class="st3" d="M183.33,194.45h1.29v7.46h-1.29v-7.46Z"/>
          <path class="st3" d="M186.95,199.71c.03.92.75,1.32,1.58,1.32.6,0,1.02-.09,1.42-.23l.19.88c-.44.19-1.05.33-1.79.33-1.66,0-2.64-1.02-2.64-2.59,0-1.42.86-2.75,2.5-2.75s2.21,1.37,2.21,2.49c0,.24-.02.43-.04.55h-3.43ZM189.2,198.81c.01-.47-.2-1.25-1.06-1.25-.8,0-1.14.73-1.19,1.25h2.25Z"/>
          <path class="st3" d="M191.45,198.44c0-.69-.01-1.2-.04-1.65h1.11l.05.97h.03c.25-.71.85-1.08,1.41-1.08.13,0,.2,0,.3.03v1.21c-.12-.02-.23-.03-.39-.03-.61,0-1.04.39-1.16.98-.02.12-.03.25-.03.39v2.66h-1.29v-3.47Z"/>
          <path class="st3" d="M195.14,200.71c.28.18.84.38,1.3.38.57,0,.82-.24.82-.58s-.21-.51-.84-.75c-1-.34-1.41-.88-1.41-1.49,0-.9.75-1.6,1.93-1.6.57,0,1.06.14,1.37.3l-.26.9c-.21-.13-.63-.29-1.08-.29s-.71.23-.71.55.24.47.89.71c.94.33,1.36.8,1.37,1.56,0,.94-.73,1.61-2.08,1.61-.62,0-1.18-.15-1.56-.36l.26-.95Z"/>
        </g>
      </g>
    </g>
    <g>
      <path class="st4" d="M273.36,194.13c0,10.36-8.4,18.77-18.77,18.77s-18.76-8.4-18.76-18.77,8.4-18.77,18.76-18.77,18.77,8.4,18.77,18.77"/>
      <path class="st6" d="M335.04,210.83h-78.05c-8.72,0-15.86-7.14-15.86-15.86v-1.69c0-8.72,7.14-15.86,15.86-15.86h78.05c8.72,0,15.86,7.14,15.86,15.86v1.69c0,8.72-7.14,15.86-15.86,15.86"/>
      <rect class="st1" x="241.13" y="177.42" width="109.77" height="33.41" rx="15.86" ry="15.86"/>
      <g class="st5">
        <g class="st5">
          <path class="st7" d="M278.84,192.84v-3.18l-2.41-4.45h1.6l.91,1.96c.26.57.45,1,.67,1.52h.02c.18-.49.4-.96.66-1.52l.92-1.96h1.57l-2.54,4.42v3.22h-1.39Z"/>
        </g>
        <g class="st5">
          <path class="st7" d="M282.18,192.07c0-.52.36-.89.86-.89s.86.36.86.89-.34.89-.87.89c-.5,0-.85-.39-.85-.89Z"/>
          <path class="st7" d="M288.94,185.21h1.39v4.95c0,2.11-1.02,2.81-2.52,2.81-.4,0-.87-.07-1.18-.18l.17-1.12c.23.08.53.14.86.14.79,0,1.28-.36,1.28-1.69v-4.9Z"/>
          <path class="st7" d="M296.12,189.45h-2.88v2.24h3.22v1.14h-4.61v-7.63h4.44v1.14h-3.05v1.97h2.88v1.13Z"/>
          <path class="st7" d="M297.69,185.31c.62-.09,1.39-.16,2.22-.16,1.43,0,2.4.29,3.1.88.75.6,1.2,1.52,1.2,2.81,0,1.37-.46,2.38-1.19,3.04-.76.69-1.97,1.04-3.45,1.04-.8,0-1.42-.04-1.88-.1v-7.51ZM299.08,191.79c.19.03.49.03.77.03,1.81.01,2.89-1,2.89-2.93.01-1.68-.96-2.65-2.71-2.65-.44,0-.75.03-.95.08v5.47Z"/>
          <path class="st7" d="M305.42,185.31c.62-.09,1.39-.16,2.22-.16,1.43,0,2.4.29,3.1.88.75.6,1.2,1.52,1.2,2.81,0,1.37-.46,2.38-1.19,3.04-.76.69-1.97,1.04-3.45,1.04-.8,0-1.42-.04-1.88-.1v-7.51ZM306.81,191.79c.19.03.49.03.77.03,1.81.01,2.89-1,2.89-2.93.01-1.68-.96-2.65-2.71-2.65-.44,0-.75.03-.95.08v5.47Z"/>
          <path class="st7" d="M314.54,185.21v7.63h-1.39v-7.63h1.39Z"/>
        </g>
      </g>
      <g class="st5">
        <g class="st5">
          <path class="st3" d="M276.93,202.08c-.3.15-.98.32-1.84.32-2.25,0-3.62-1.41-3.62-3.57,0-2.33,1.63-3.74,3.79-3.74.85,0,1.45.18,1.71.32l-.27,1.03c-.34-.15-.81-.27-1.39-.27-1.44,0-2.48.9-2.48,2.61,0,1.57.9,2.55,2.47,2.55.52,0,1.06-.11,1.41-.25l.21,1.02Z"/>
        </g>
        <g class="st5">
          <path class="st3" d="M282.68,199.67c0,1.88-1.32,2.72-2.63,2.72-1.44,0-2.56-.99-2.56-2.64s1.1-2.71,2.65-2.71,2.54,1.07,2.54,2.63ZM278.82,199.73c0,.99.49,1.73,1.27,1.73.74,0,1.25-.71,1.25-1.76,0-.8-.36-1.72-1.24-1.72s-1.28.89-1.28,1.75Z"/>
          <path class="st3" d="M283.74,198.68c0-.59-.02-1.08-.04-1.52h1.12l.06.77h.03c.23-.4.79-.88,1.64-.88.89,0,1.82.58,1.82,2.2v3.04h-1.29v-2.89c0-.74-.27-1.29-.98-1.29-.52,0-.87.37-1.01.76-.04.11-.06.26-.06.41v3.02h-1.29v-3.6Z"/>
          <path class="st3" d="M289.7,201.08c.28.18.84.38,1.3.38.57,0,.82-.24.82-.58s-.21-.51-.84-.75c-1-.34-1.41-.88-1.41-1.49,0-.9.75-1.6,1.93-1.6.57,0,1.06.14,1.37.3l-.26.9c-.21-.13-.63-.29-1.08-.29s-.71.23-.71.55.24.47.89.71c.94.33,1.36.8,1.37,1.56,0,.94-.73,1.61-2.08,1.61-.62,0-1.18-.15-1.56-.36l.26-.95Z"/>
          <path class="st3" d="M295.05,200.08c.03.92.75,1.32,1.58,1.32.6,0,1.02-.09,1.42-.23l.19.88c-.44.19-1.05.33-1.79.33-1.66,0-2.64-1.02-2.64-2.59,0-1.42.86-2.75,2.5-2.75s2.21,1.37,2.21,2.49c0,.24-.02.43-.04.55h-3.43ZM297.3,199.18c.01-.47-.2-1.25-1.06-1.25-.8,0-1.14.73-1.19,1.25h2.25Z"/>
          <path class="st3" d="M300.94,195.73c0,.38-.28.69-.74.69s-.71-.32-.71-.69c0-.4.29-.7.73-.7s.71.3.73.7ZM299.56,202.28v-5.12h1.29v5.12h-1.29Z"/>
          <path class="st3" d="M302.25,194.82h1.29v7.46h-1.29v-7.46Z"/>
          <path class="st3" d="M304.95,194.82h1.29v7.46h-1.29v-7.46Z"/>
          <path class="st3" d="M308.57,200.08c.03.92.75,1.32,1.58,1.32.6,0,1.02-.09,1.42-.23l.19.88c-.44.19-1.05.33-1.79.33-1.66,0-2.64-1.02-2.64-2.59,0-1.42.86-2.75,2.5-2.75s2.21,1.37,2.21,2.49c0,.24-.02.43-.04.55h-3.43ZM310.82,199.18c.01-.47-.2-1.25-1.06-1.25-.8,0-1.14.73-1.19,1.25h2.25Z"/>
          <path class="st3" d="M313.07,198.81c0-.69-.01-1.2-.04-1.65h1.11l.05.97h.03c.25-.71.85-1.08,1.41-1.08.13,0,.2,0,.3.03v1.21c-.12-.02-.23-.03-.39-.03-.61,0-1.04.39-1.16.98-.02.12-.03.25-.03.39v2.66h-1.29v-3.47Z"/>
          <path class="st3" d="M316.76,201.08c.28.18.84.38,1.3.38.57,0,.82-.24.82-.58s-.21-.51-.84-.75c-1-.34-1.41-.88-1.41-1.49,0-.9.75-1.6,1.93-1.6.57,0,1.06.14,1.37.3l-.26.9c-.21-.13-.63-.29-1.08-.29s-.71.23-.71.55.24.47.89.71c.94.33,1.36.8,1.37,1.56,0,.94-.73,1.61-2.08,1.61-.62,0-1.18-.15-1.56-.36l.26-.95Z"/>
        </g>
      </g>
    </g>
    <g>
      <path class="st4" d="M432.29,194.13c0-10.36,8.4-18.77,18.77-18.77s18.76,8.4,18.76,18.77-8.4,18.77-18.76,18.77-18.77-8.4-18.77-18.77"/>
      <path class="st6" d="M370.6,177.42h78.05c8.72,0,15.86,7.14,15.86,15.86v1.69c0,8.72-7.14,15.86-15.86,15.86h-78.05c-8.72,0-15.86-7.14-15.86-15.86v-1.69c0-8.72,7.14-15.86,15.86-15.86"/>
      <rect class="st1" x="354.74" y="177.42" width="109.77" height="33.41" rx="15.86" ry="15.86"/>
      <g class="st5">
        <g class="st5">
          <path class="st7" d="M367.44,184.94h3.47v.9h-2.38v1.66h2.21v.89h-2.21v2.55h-1.09v-6Z"/>
          <path class="st7" d="M371.57,190.34l3.06-4.46v-.03h-2.79v-.91h4.22v.64l-3.02,4.42v.03h3.07v.91h-4.53v-.6Z"/>
          <path class="st7" d="M376.82,190.34c0-.41.28-.7.68-.7s.68.28.68.7-.27.7-.68.7c-.39,0-.67-.3-.67-.7Z"/>
          <path class="st7" d="M384.29,188.28h-2.26v1.76h2.53v.9h-3.62v-6h3.49v.9h-2.39v1.55h2.26v.89Z"/>
          <path class="st7" d="M385.51,184.94h1.09v5.08h2.46v.92h-3.56v-6Z"/>
        </g>
        <g class="st5">
          <path class="st7" d="M392.94,189.24l-.52,1.7h-1.13l1.92-6h1.4l1.95,6h-1.18l-.54-1.7h-1.9ZM394.66,188.41l-.47-1.48c-.12-.37-.21-.78-.3-1.12h-.02c-.09.35-.19.76-.29,1.12l-.46,1.48h1.54Z"/>
        </g>
        <g class="st5">
          <path class="st7" d="M402.44,188.49c-.04-.78-.08-1.71-.07-2.52h-.03c-.2.73-.45,1.54-.71,2.29l-.88,2.6h-.84l-.8-2.56c-.23-.77-.44-1.58-.6-2.33h-.02c-.03.78-.06,1.73-.11,2.55l-.13,2.41h-1.02l.4-6h1.44l.78,2.41c.21.7.4,1.41.55,2.08h.03c.16-.65.36-1.39.6-2.09l.83-2.4h1.42l.35,6h-1.07l-.12-2.45Z"/>
        </g>
        <g class="st5">
          <path class="st7" d="M404.73,185.03c.42-.08,1.02-.13,1.65-.13.86,0,1.44.14,1.85.48.33.28.52.69.52,1.21,0,.77-.52,1.3-1.09,1.49v.03c.44.16.69.58.84,1.16.2.75.36,1.44.47,1.67h-1.12c-.09-.18-.24-.67-.4-1.41-.18-.78-.45-1.03-1.08-1.05h-.55v2.46h-1.08v-5.91ZM405.82,187.68h.65c.74,0,1.19-.39,1.19-.99,0-.65-.45-.96-1.17-.96-.35,0-.57.03-.68.05v1.89Z"/>
        </g>
        <g class="st5">
          <path class="st7" d="M411.06,189.24l-.52,1.7h-1.13l1.92-6h1.4l1.95,6h-1.18l-.54-1.7h-1.89ZM412.78,188.41l-.47-1.48c-.12-.37-.21-.78-.3-1.12h-.02c-.09.35-.19.76-.29,1.12l-.46,1.48h1.54Z"/>
          <path class="st7" d="M415.51,190.94v-6h1.25l1.55,2.57c.39.67.75,1.36,1.02,2.01h.02c-.08-.8-.1-1.57-.1-2.49v-2.09h1.01v6h-1.14l-1.57-2.64c-.38-.66-.77-1.39-1.07-2.06h-.04c.04.78.06,1.57.06,2.56v2.14h-1.01Z"/>
          <path class="st7" d="M422.62,184.94v6h-1.09v-6h1.09Z"/>
          <path class="st7" d="M426.81,184.94v6h-1.09v-6h1.09Z"/>
          <path class="st7" d="M428.06,185.02c.49-.07,1.09-.12,1.74-.12,1.12,0,1.89.23,2.44.69.59.47.94,1.19.94,2.21,0,1.08-.37,1.87-.93,2.38-.6.54-1.55.82-2.71.82-.63,0-1.11-.04-1.48-.08v-5.9ZM429.15,190.11c.15.03.38.03.61.03,1.42,0,2.27-.78,2.27-2.3,0-1.32-.76-2.08-2.13-2.08-.35,0-.59.03-.75.06v4.3Z"/>
          <path class="st7" d="M434.13,185.03c.42-.08,1.02-.13,1.65-.13.86,0,1.44.14,1.85.48.33.28.52.69.52,1.21,0,.77-.52,1.3-1.09,1.49v.03c.44.16.7.58.84,1.16.2.75.36,1.44.47,1.67h-1.12c-.09-.18-.24-.67-.4-1.41-.18-.78-.45-1.03-1.08-1.05h-.55v2.46h-1.08v-5.91ZM435.22,187.68h.65c.74,0,1.19-.39,1.19-.99,0-.65-.45-.96-1.16-.96-.35,0-.57.03-.68.05v1.89Z"/>
          <path class="st7" d="M440.28,184.94v6h-1.09v-6h1.09Z"/>
          <path class="st7" d="M441.52,189.75c.35.21.89.38,1.45.38.69,0,1.08-.33,1.08-.82,0-.46-.3-.72-1.06-1-1-.36-1.63-.88-1.63-1.74,0-.99.82-1.73,2.13-1.73.65,0,1.12.14,1.43.3l-.26.88c-.22-.12-.64-.29-1.2-.29-.69,0-.99.37-.99.72,0,.46.35.68,1.15.99,1.04.39,1.54.92,1.54,1.78,0,.97-.73,1.8-2.27,1.8-.64,0-1.3-.18-1.63-.38l.25-.91Z"/>
          <path class="st7" d="M446.13,189.75c.35.21.89.38,1.45.38.69,0,1.08-.33,1.08-.82,0-.46-.3-.72-1.06-1-1-.36-1.63-.88-1.63-1.74,0-.99.82-1.73,2.13-1.73.65,0,1.12.14,1.43.3l-.26.88c-.22-.12-.64-.29-1.2-.29-.69,0-.99.37-.99.72,0,.46.35.68,1.15.99,1.04.39,1.54.92,1.54,1.78,0,.97-.73,1.8-2.27,1.8-.64,0-1.3-.18-1.63-.38l.25-.91Z"/>
          <path class="st7" d="M451.86,184.94v6h-1.09v-6h1.09Z"/>
        </g>
      </g>
      <g class="st5">
        <g class="st5">
          <path class="st3" d="M386.88,201.58c-.3.15-.98.32-1.84.32-2.25,0-3.62-1.41-3.62-3.57,0-2.33,1.63-3.74,3.79-3.74.85,0,1.45.18,1.71.32l-.27,1.03c-.34-.15-.81-.27-1.39-.27-1.44,0-2.48.9-2.48,2.61,0,1.57.9,2.55,2.47,2.55.52,0,1.06-.11,1.41-.25l.21,1.02Z"/>
        </g>
        <g class="st5">
          <path class="st3" d="M392.63,199.17c0,1.88-1.33,2.72-2.63,2.72-1.44,0-2.56-.99-2.56-2.64s1.1-2.71,2.65-2.71,2.54,1.07,2.54,2.63ZM388.77,199.23c0,.99.49,1.73,1.27,1.73.74,0,1.25-.71,1.25-1.76,0-.8-.36-1.72-1.24-1.72s-1.28.89-1.28,1.75Z"/>
          <path class="st3" d="M393.69,198.18c0-.59-.02-1.08-.04-1.52h1.12l.06.77h.03c.23-.4.79-.88,1.64-.88.89,0,1.82.58,1.82,2.2v3.04h-1.29v-2.89c0-.74-.27-1.29-.98-1.29-.52,0-.87.37-1.01.76-.04.11-.06.26-.06.41v3.02h-1.29v-3.6Z"/>
          <path class="st3" d="M399.65,200.58c.28.18.84.38,1.3.38.57,0,.82-.24.82-.58s-.21-.51-.84-.75c-1-.34-1.41-.88-1.41-1.49,0-.9.75-1.6,1.93-1.6.57,0,1.06.14,1.37.3l-.26.9c-.21-.13-.63-.29-1.08-.29s-.71.23-.71.55.24.47.89.71c.94.33,1.36.8,1.37,1.56,0,.94-.73,1.61-2.08,1.61-.62,0-1.18-.15-1.56-.36l.26-.95Z"/>
          <path class="st3" d="M405,199.58c.03.92.75,1.32,1.58,1.32.6,0,1.02-.09,1.42-.23l.19.88c-.44.19-1.05.33-1.79.33-1.66,0-2.64-1.02-2.64-2.59,0-1.42.86-2.75,2.5-2.75s2.21,1.37,2.21,2.49c0,.24-.02.43-.04.55h-3.43ZM407.25,198.68c.01-.47-.2-1.25-1.06-1.25-.8,0-1.14.73-1.19,1.25h2.25Z"/>
          <path class="st3" d="M410.89,195.23c0,.38-.28.69-.74.69s-.71-.32-.71-.69c0-.4.29-.7.73-.7s.71.3.73.7ZM409.51,201.78v-5.12h1.29v5.12h-1.29Z"/>
          <path class="st3" d="M412.2,194.32h1.29v7.46h-1.29v-7.46Z"/>
          <path class="st3" d="M414.9,194.32h1.29v7.46h-1.29v-7.46Z"/>
          <path class="st3" d="M418.52,199.58c.03.92.75,1.32,1.58,1.32.6,0,1.02-.09,1.42-.23l.19.88c-.44.19-1.05.33-1.79.33-1.66,0-2.64-1.02-2.64-2.59,0-1.42.86-2.75,2.5-2.75s2.21,1.37,2.21,2.49c0,.24-.02.43-.04.55h-3.43ZM420.77,198.68c.01-.47-.2-1.25-1.06-1.25-.8,0-1.14.73-1.19,1.25h2.25Z"/>
          <path class="st3" d="M423.02,198.31c0-.69-.01-1.2-.04-1.65h1.11l.05.97h.03c.25-.71.85-1.08,1.41-1.08.13,0,.2,0,.3.03v1.21c-.12-.02-.23-.03-.39-.03-.61,0-1.04.39-1.16.98-.02.12-.03.25-.03.39v2.66h-1.29v-3.47Z"/>
          <path class="st3" d="M426.71,200.58c.28.18.84.38,1.3.38.57,0,.82-.24.82-.58s-.21-.51-.84-.75c-1-.34-1.41-.88-1.41-1.49,0-.9.75-1.6,1.93-1.6.57,0,1.06.14,1.37.3l-.26.9c-.21-.13-.63-.29-1.08-.29s-.71.23-.71.55.24.47.89.71c.94.33,1.36.8,1.37,1.56,0,.94-.73,1.61-2.08,1.61-.62,0-1.18-.15-1.56-.36l.26-.95Z"/>
        </g>
      </g>
    </g>
    <g>
      <g>
        <path class="st4" d="M509.18,194.04c0,10.36-8.4,18.77-18.77,18.77s-18.76-8.4-18.76-18.77,8.4-18.77,18.76-18.77,18.77,8.4,18.77,18.77"/>
        <g>
          <path class="st6" d="M570.87,210.75h-78.05c-8.72,0-15.86-7.14-15.86-15.86v-1.69c0-8.72,7.14-15.86,15.86-15.86h78.05c8.72,0,15.86,7.14,15.86,15.86v1.69c0,8.72-7.14,15.86-15.86,15.86"/>
          <rect class="st1" x="476.96" y="177.34" width="109.77" height="33.41" rx="15.86" ry="15.86"/>
        </g>
      </g>
      <g>
        <g class="st5">
          <g class="st5">
            <path class="st3" d="M512.52,202.81c-.3.15-.98.32-1.84.32-2.25,0-3.62-1.41-3.62-3.57,0-2.33,1.63-3.74,3.79-3.74.85,0,1.45.18,1.71.32l-.27,1.03c-.34-.15-.81-.27-1.39-.27-1.44,0-2.48.9-2.48,2.61,0,1.57.9,2.55,2.47,2.55.52,0,1.06-.11,1.41-.25l.21,1.02Z"/>
          </g>
          <g class="st5">
            <path class="st3" d="M518.27,200.4c0,1.88-1.32,2.72-2.63,2.72-1.44,0-2.57-.99-2.57-2.64s1.1-2.71,2.65-2.71,2.54,1.07,2.54,2.63ZM514.41,200.46c0,.99.49,1.73,1.27,1.73.74,0,1.25-.71,1.25-1.76,0-.8-.36-1.72-1.24-1.72s-1.28.89-1.28,1.75Z"/>
            <path class="st3" d="M519.33,199.41c0-.59-.02-1.08-.04-1.52h1.12l.06.77h.03c.23-.4.79-.88,1.64-.88.89,0,1.82.58,1.82,2.2v3.04h-1.29v-2.89c0-.74-.27-1.29-.98-1.29-.51,0-.87.37-1.01.76-.04.11-.06.26-.06.41v3.02h-1.29v-3.6Z"/>
            <path class="st3" d="M525.29,201.81c.28.18.84.38,1.3.38.57,0,.82-.24.82-.58s-.21-.51-.84-.75c-1-.34-1.41-.88-1.41-1.49,0-.9.75-1.6,1.93-1.6.57,0,1.06.14,1.37.3l-.26.9c-.21-.13-.63-.29-1.08-.29s-.71.23-.71.55.24.47.89.71c.94.33,1.36.8,1.37,1.56,0,.94-.73,1.61-2.08,1.61-.62,0-1.18-.15-1.56-.36l.26-.95Z"/>
            <path class="st3" d="M530.64,200.81c.03.92.75,1.32,1.58,1.32.6,0,1.02-.09,1.42-.23l.19.88c-.44.19-1.05.33-1.79.33-1.66,0-2.64-1.02-2.64-2.59,0-1.42.86-2.75,2.5-2.75s2.21,1.37,2.21,2.49c0,.24-.02.43-.04.55h-3.43ZM532.89,199.91c0-.47-.2-1.25-1.06-1.25-.8,0-1.13.73-1.19,1.25h2.25Z"/>
            <path class="st3" d="M536.53,196.46c0,.38-.28.69-.74.69s-.71-.32-.71-.69c0-.4.29-.7.73-.7s.71.3.73.7ZM535.15,203.01v-5.12h1.29v5.12h-1.29Z"/>
            <path class="st3" d="M537.84,195.54h1.29v7.46h-1.29v-7.46Z"/>
            <path class="st3" d="M540.54,195.54h1.29v7.46h-1.29v-7.46Z"/>
            <path class="st3" d="M544.16,200.81c.03.92.75,1.32,1.58,1.32.6,0,1.02-.09,1.42-.23l.19.88c-.44.19-1.05.33-1.79.33-1.66,0-2.64-1.02-2.64-2.59,0-1.42.86-2.75,2.5-2.75s2.21,1.37,2.21,2.49c0,.24-.02.43-.04.55h-3.43ZM546.41,199.91c0-.47-.2-1.25-1.06-1.25-.8,0-1.13.73-1.19,1.25h2.25Z"/>
            <path class="st3" d="M548.66,199.54c0-.69,0-1.2-.04-1.65h1.11l.05.97h.03c.25-.71.85-1.08,1.41-1.08.13,0,.2,0,.3.03v1.21c-.12-.02-.23-.03-.39-.03-.61,0-1.04.39-1.16.98-.02.12-.03.25-.03.39v2.66h-1.29v-3.47Z"/>
            <path class="st3" d="M552.35,201.81c.28.18.84.38,1.3.38.57,0,.82-.24.82-.58s-.21-.51-.84-.75c-1-.34-1.41-.88-1.41-1.49,0-.9.75-1.6,1.93-1.6.57,0,1.06.14,1.37.3l-.26.9c-.21-.13-.63-.29-1.08-.29s-.71.23-.71.55.24.47.89.71c.94.33,1.36.8,1.37,1.56,0,.94-.73,1.61-2.08,1.61-.62,0-1.18-.15-1.56-.36l.26-.95Z"/>
          </g>
        </g>
        <g class="st5">
          <g class="st5">
            <path class="st7" d="M489.8,192.11v-7.63h1.6l1.97,3.27c.5.85.95,1.73,1.3,2.56h.02c-.1-1.02-.12-2-.12-3.17v-2.66h1.29v7.63h-1.45l-1.99-3.36c-.49-.84-.99-1.77-1.36-2.63h-.05c.06,1,.08,2,.08,3.26v2.73h-1.29Z"/>
            <path class="st7" d="M497.24,191.34c0-.52.36-.89.86-.89s.86.36.86.89-.34.89-.87.89c-.5,0-.85-.39-.85-.89Z"/>
            <path class="st7" d="M502.48,184.59c.44-.09,1.25-.17,2.04-.17,1.02,0,1.67.14,2.17.49.48.28.79.78.79,1.44,0,.7-.44,1.34-1.27,1.64v.03c.8.2,1.54.84,1.54,1.88,0,.68-.29,1.21-.72,1.58-.54.46-1.44.7-2.84.7-.77,0-1.35-.06-1.71-.1v-7.5ZM503.86,187.6h.71c.97,0,1.51-.45,1.51-1.1,0-.72-.54-1.05-1.43-1.05-.41,0-.64.02-.79.06v2.09ZM503.86,191.1c.18.03.42.03.74.03.89,0,1.7-.33,1.7-1.27s-.78-1.26-1.74-1.26h-.69v2.49Z"/>
            <path class="st7" d="M513.27,188.72h-2.88v2.24h3.22v1.14h-4.61v-7.63h4.44v1.14h-3.05v1.97h2.88v1.13Z"/>
            <path class="st7" d="M514.82,192.11v-7.63h1.6l1.97,3.27c.5.85.95,1.73,1.3,2.56h.02c-.1-1.02-.12-2-.12-3.17v-2.66h1.29v7.63h-1.45l-1.99-3.36c-.49-.84-.99-1.77-1.36-2.63h-.05c.06,1,.08,2,.08,3.26v2.73h-1.29Z"/>
            <path class="st7" d="M522.48,184.59c.44-.09,1.25-.17,2.04-.17,1.02,0,1.67.14,2.17.49.48.28.79.78.79,1.44,0,.7-.44,1.34-1.27,1.64v.03c.8.2,1.54.84,1.54,1.88,0,.68-.29,1.21-.72,1.58-.54.46-1.44.7-2.84.7-.77,0-1.35-.06-1.71-.1v-7.5ZM523.86,187.6h.71c.97,0,1.51-.45,1.51-1.1,0-.72-.54-1.05-1.43-1.05-.41,0-.64.02-.79.06v2.09ZM523.86,191.1c.18.03.42.03.74.03.89,0,1.7-.33,1.7-1.27s-.78-1.26-1.74-1.26h-.69v2.49Z"/>
            <path class="st7" d="M535.77,188.22c0,2.56-1.55,4.02-3.65,4.02s-3.52-1.65-3.52-3.88c0-2.36,1.48-4.01,3.63-4.01s3.53,1.69,3.53,3.87ZM530.08,188.32c0,1.56.78,2.8,2.12,2.8s2.11-1.26,2.11-2.85c0-1.44-.71-2.8-2.11-2.8s-2.12,1.28-2.12,2.85Z"/>
            <path class="st7" d="M538.35,184.48v4.45c0,1.5.62,2.19,1.56,2.19,1.01,0,1.61-.69,1.61-2.19v-4.45h1.39v4.36c0,2.36-1.21,3.4-3.05,3.4s-2.91-.99-2.91-3.39v-4.37h1.39Z"/>
            <path class="st7" d="M544,191.34l3.89-5.67v-.03h-3.56v-1.15h5.37v.82l-3.85,5.63v.03h3.91v1.16h-5.76v-.77Z"/>
            <path class="st7" d="M552.31,184.48v7.63h-1.39v-7.63h1.39Z"/>
            <path class="st7" d="M555.44,189.95l-.66,2.16h-1.44l2.45-7.63h1.78l2.48,7.63h-1.51l-.69-2.16h-2.41ZM557.62,188.89l-.6-1.88c-.15-.46-.27-.99-.39-1.43h-.02c-.11.44-.24.97-.36,1.43l-.59,1.88h1.96Z"/>
            <path class="st7" d="M561.09,192.11v-7.63h1.6l1.97,3.27c.5.85.95,1.73,1.3,2.56h.02c-.1-1.02-.12-2-.12-3.17v-2.66h1.29v7.63h-1.45l-1.99-3.36c-.49-.84-.99-1.77-1.36-2.63h-.05c.06,1,.08,2,.08,3.26v2.73h-1.29Z"/>
            <path class="st7" d="M573.03,188.72h-2.88v2.24h3.22v1.14h-4.61v-7.63h4.44v1.14h-3.05v1.97h2.88v1.13Z"/>
          </g>
        </g>
      </g>
    </g>
  </g>
  <g>
    <g class="st5">
      <g class="st5">
        <path class="st7" d="M233.71,16.49l-1.87-7.63h1.48l.72,3.46c.19.93.37,1.9.5,2.66h.02c.12-.8.34-1.71.55-2.67l.83-3.45h1.46l.76,3.51c.18.91.35,1.75.46,2.58h.02c.14-.84.32-1.71.52-2.65l.79-3.44h1.42l-2.06,7.63h-1.48l-.79-3.59c-.19-.87-.33-1.6-.43-2.42h-.02c-.12.81-.27,1.55-.5,2.42l-.88,3.59h-1.51Z"/>
      </g>
      <g class="st5">
        <path class="st7" d="M241.38,15.72c0-.52.36-.89.86-.89s.86.36.86.89-.34.89-.87.89c-.5,0-.85-.39-.85-.89Z"/>
        <path class="st7" d="M252.73,16.14c-.49.18-1.44.43-2.45.43-1.29,0-2.28-.33-3-1.02-.68-.65-1.06-1.65-1.06-2.81.01-2.42,1.72-3.96,4.25-3.96.94,0,1.68.19,2.03.36l-.31,1.12c-.42-.19-.93-.33-1.73-.33-1.63,0-2.77.96-2.77,2.74s1.06,2.76,2.65,2.76c.51,0,.87-.07,1.05-.15v-1.91h-1.35v-1.1h2.69v3.86Z"/>
        <path class="st7" d="M255.54,8.86v4.45c0,1.5.62,2.19,1.56,2.19,1.01,0,1.61-.69,1.61-2.19v-4.45h1.39v4.36c0,2.36-1.21,3.4-3.05,3.4s-2.91-.99-2.91-3.39v-4.37h1.39Z"/>
        <path class="st7" d="M265.96,13.1h-2.88v2.24h3.22v1.14h-4.61v-7.63h4.44v1.14h-3.05v1.97h2.88v1.13Z"/>
        <path class="st7" d="M267.53,8.96c.62-.09,1.39-.16,2.22-.16,1.43,0,2.4.29,3.1.88.75.6,1.2,1.52,1.2,2.81,0,1.37-.46,2.38-1.19,3.04-.76.69-1.97,1.04-3.45,1.04-.8,0-1.42-.04-1.88-.1v-7.51ZM268.92,15.44c.19.03.49.03.77.03,1.81.01,2.89-1,2.89-2.93.01-1.68-.96-2.65-2.71-2.65-.44,0-.75.03-.95.08v5.47Z"/>
      </g>
      <g class="st5">
        <path class="st7" d="M275.25,8.96c.62-.09,1.39-.16,2.22-.16,1.43,0,2.4.29,3.1.88.75.6,1.2,1.52,1.2,2.81,0,1.37-.46,2.38-1.19,3.04-.76.69-1.97,1.04-3.45,1.04-.8,0-1.42-.04-1.88-.1v-7.51ZM276.65,15.44c.19.03.49.03.77.03,1.81.01,2.89-1,2.89-2.93.01-1.68-.96-2.65-2.71-2.65-.44,0-.75.03-.95.08v5.47Z"/>
      </g>
      <g class="st5">
        <path class="st7" d="M284.34,14.33l-.66,2.16h-1.44l2.45-7.63h1.78l2.48,7.63h-1.51l-.69-2.16h-2.41ZM286.53,13.27l-.6-1.88c-.15-.46-.27-.99-.39-1.43h-.02c-.11.44-.24.97-.36,1.43l-.59,1.88h1.96Z"/>
        <path class="st7" d="M290.01,8.97c.53-.1,1.3-.17,2.11-.17,1.1,0,1.83.18,2.35.61.42.35.66.88.66,1.54,0,.98-.67,1.65-1.39,1.9v.03c.55.2.88.74,1.06,1.47.25.95.45,1.83.6,2.13h-1.43c-.11-.23-.31-.85-.51-1.8-.23-1-.58-1.31-1.37-1.34h-.7v3.14h-1.38v-7.52ZM291.39,12.33h.83c.94,0,1.52-.5,1.52-1.26,0-.83-.58-1.22-1.48-1.22-.44,0-.72.03-.86.07v2.41Z"/>
        <path class="st7" d="M297.85,8.86v7.63h-1.39v-7.63h1.39Z"/>
      </g>
    </g>
    <g class="st5">
      <g class="st5">
        <path class="st3" d="M238.07,19.41c.55-.1,1.29-.17,2.28-.17,1.09,0,1.88.23,2.4.67.48.4.8,1.04.8,1.81s-.24,1.41-.69,1.84c-.61.59-1.53.89-2.58.89-.28,0-.52-.01-.73-.06v3.09h-1.48v-8.07ZM239.55,23.21c.19.06.42.07.73.07,1.12,0,1.8-.56,1.8-1.5s-.63-1.38-1.66-1.38c-.41,0-.7.04-.86.07v2.74Z"/>
      </g>
      <g class="st5">
        <path class="st3" d="M244.65,23.48c0-.8-.01-1.38-.05-1.9h1.29l.06,1.12h.04c.29-.82.98-1.25,1.63-1.25.15,0,.23.01.35.04v1.4c-.13-.02-.27-.04-.45-.04-.7,0-1.2.45-1.33,1.13-.02.13-.04.29-.04.45v3.07h-1.49v-4Z"/>
      </g>
      <g class="st5">
        <path class="st3" d="M249.93,24.94c.04,1.07.86,1.53,1.82,1.53.69,0,1.18-.11,1.64-.27l.22,1.02c-.51.22-1.21.38-2.06.38-1.92,0-3.04-1.18-3.04-2.98,0-1.64.99-3.18,2.89-3.18s2.55,1.58,2.55,2.88c0,.28-.02.5-.05.63h-3.95ZM252.52,23.9c.01-.55-.23-1.44-1.23-1.44-.92,0-1.31.84-1.37,1.44h2.6ZM253.19,19.01l-1.48,1.79h-1.03l1.06-1.79h1.46Z"/>
        <path class="st3" d="M255.07,26.1c.33.21.97.44,1.5.44.66,0,.95-.28.95-.67s-.24-.59-.97-.86c-1.15-.39-1.63-1.02-1.63-1.72,0-1.04.86-1.84,2.23-1.84.65,0,1.23.16,1.58.35l-.3,1.04c-.24-.15-.73-.34-1.25-.34s-.82.27-.82.63.28.55,1.03.82c1.08.38,1.56.92,1.58,1.8,0,1.08-.84,1.86-2.4,1.86-.72,0-1.36-.17-1.8-.41l.3-1.09Z"/>
        <path class="st3" d="M261.78,19.92c0,.44-.33.8-.85.8s-.82-.36-.82-.8c0-.46.34-.81.84-.81s.82.35.84.81ZM260.19,27.48v-5.91h1.49v5.91h-1.49Z"/>
        <path class="st3" d="M268.74,18.87v6.95c0,.61.02,1.26.05,1.66h-1.32l-.07-.93h-.02c-.35.65-1.07,1.07-1.92,1.07-1.42,0-2.54-1.2-2.54-3.02-.01-1.98,1.23-3.15,2.64-3.15.81,0,1.4.33,1.66.76h.02v-3.34h1.49ZM267.25,24.03c0-.12-.01-.28-.04-.4-.13-.57-.61-1.04-1.29-1.04-.96,0-1.49.85-1.49,1.94s.53,1.88,1.48,1.88c.61,0,1.14-.41,1.29-1.06.04-.13.05-.28.05-.44v-.89Z"/>
        <path class="st3" d="M271.4,24.94c.04,1.07.86,1.53,1.82,1.53.69,0,1.18-.11,1.64-.27l.22,1.02c-.51.22-1.21.38-2.06.38-1.92,0-3.04-1.18-3.04-2.98,0-1.64.99-3.18,2.89-3.18s2.55,1.58,2.55,2.88c0,.28-.02.5-.05.63h-3.95ZM273.99,23.9c.01-.55-.23-1.44-1.23-1.44-.92,0-1.31.84-1.37,1.44h2.6Z"/>
      </g>
      <g class="st5">
        <path class="st3" d="M276.59,23.33c0-.68-.02-1.25-.05-1.76h1.3l.07.88h.04c.27-.46.91-1.02,1.89-1.02,1.03,0,2.1.67,2.1,2.54v3.51h-1.49v-3.34c0-.85-.32-1.49-1.13-1.49-.59,0-1.01.42-1.16.87-.05.12-.07.3-.07.47v3.48h-1.49v-4.15Z"/>
      </g>
      <g class="st5">
        <path class="st3" d="M285.19,20.06v1.52h1.42v1.12h-1.42v2.61c0,.73.19,1.09.76,1.09.27,0,.41-.01.58-.06l.02,1.13c-.22.08-.62.16-1.08.16-.56,0-1.01-.18-1.29-.49-.33-.34-.47-.89-.47-1.66v-2.78h-.84v-1.12h.84v-1.1l1.47-.41Z"/>
      </g>
      <g class="st5">
        <path class="st3" d="M288.74,24.94c.04,1.07.86,1.53,1.82,1.53.69,0,1.18-.11,1.64-.27l.22,1.02c-.51.22-1.21.38-2.06.38-1.92,0-3.04-1.18-3.04-2.98,0-1.64.99-3.18,2.89-3.18s2.55,1.58,2.55,2.88c0,.28-.02.5-.05.63h-3.95ZM291.33,23.9c.01-.55-.23-1.44-1.23-1.44-.92,0-1.31.84-1.37,1.44h2.6Z"/>
      </g>
    </g>
  </g>
</svg>