<?xml version="1.0" encoding="UTF-8"?>
<svg id="Calque_1" xmlns="http://www.w3.org/2000/svg" version="1.1" viewBox="0 0 150.35 22.61">
  <!-- Generator: Adobe Illustrator 30.2.1, SVG Export Plug-In . SVG Version: 2.1.1 Build 1)  -->
  <defs>
    <style>
      .st0 {
        fill: #1a8c93;
      }

      .st1 {
        opacity: .91;
      }
    </style>
  </defs>
  <g class="st1">
    <path class="st0" d="M150.35,10.11c-27.56.31-71.07.43-98.96.48,0,0-.33,0-.33,0l-.12-.31-3.36-8.56.92-.05-5.2,19.36-.42,1.57c-.03-.23-5.15-14.96-5.37-15.69,0,0,.88.11.88.11l-4.84,7.44-.5.77-.36-.85-2.05-4.84.45.3c-10.04-.03-21.02-.14-31.09-.49,10.09-.34,21.03-.46,31.09-.49,0,0,.32,0,.32,0l.13.3,2.06,4.83-.86-.08,4.84-7.45.55-.85.33.96,4.84,14.15-.95.03L47.57,1.43l.38-1.43.54,1.37,3.35,8.56-.45-.31c27.97.05,71.28.17,98.96.48h0Z"/>
  </g>
</svg>