<?xml version="1.0" encoding="UTF-8"?>
<svg id="Calque_1" xmlns="http://www.w3.org/2000/svg" version="1.1" viewBox="0 0 512 512">
  <!-- Generator: Adobe Illustrator 30.2.1, SVG Export Plug-In . SVG Version: 2.1.1 Build 1)  -->
  <defs>
    <style>
      .st0, .st1, .st2 {
        isolation: isolate;
      }

      .st1 {
        font-size: 48.76px;
      }

      .st1, .st3, .st2 {
        fill: #fff;
      }

      .st1, .st2 {
        font-family: Calibri-Bold, Calibri;
        font-weight: 700;
      }

      .st4 {
        fill: #158c93;
      }

      .st5 {
        fill: #eb5c65;
      }

      .st2 {
        font-size: 49px;
      }

      .st6 {
        fill: #1e3259;
      }
    </style>
  </defs>
  <path class="st6" d="M512,256c0,141.38-114.62,256-256,256S0,397.38,0,256,114.62,0,256,0s256,114.62,256,256"/>
  <path class="st4" d="M478.52,256c0,122.9-99.63,222.52-222.52,222.52S33.48,378.9,33.48,256,133.11,33.48,256,33.48s222.52,99.62,222.52,222.52"/>
  <path class="st5" d="M439.57,256c0,101.39-82.19,183.57-183.57,183.57s-183.57-82.19-183.57-183.57S154.63,72.43,256,72.43s183.57,82.19,183.57,183.57"/>
  <path class="st3" d="M143.24,337.94h87.34s16.75,3.59,2.99,14.37c-43.07,0-95.72,2.4-95.72,2.4,0,0-69.39-47.85,30.51-111.87-11.36-20.93-40.68-67,24.53-111.27,10.77-5.39,93.32-14.37,93.93,61.61.6,17.95-3.6,31.11-13.16,37.09-3.59,1.19-13.16,1.19-10.77-11.97,2.4-13.16,14.95-50.25-25.13-69.99-4.78-3.59-65.2-13.16-70.59,48.45-.6,6.58,7.77,34.7,25.12,44.87-1.19,6.58-4.18,8.98-4.18,8.98,0,0-55.04,17.35-58.63,64.61,1.19,7.77,4.18,20.34,13.76,22.73"/>
  <g class="st0">
    <text class="st2" transform="translate(361.22 170.59)"><tspan x="0" y="0">G</tspan></text>
  </g>
  <g class="st0">
    <text class="st2" transform="translate(355.43 226.25)"><tspan x="0" y="0">M</tspan></text>
  </g>
  <g class="st0">
    <text class="st2" transform="translate(363.81 360.38)"><tspan x="0" y="0">P</tspan></text>
  </g>
  <g class="st0">
    <text class="st1" transform="translate(360.87 286.39)"><tspan x="0" y="0">U</tspan></text>
  </g>
  <path class="st3" d="M409.75,299.49h-16.98c-9.11,0-18.22.04-27.33.01-2.07,0-3.59.56-4.35,2.75-.68,1.92-1.72,3.72-2.83,6.08-.3-1.74-.53-2.92-.72-4.1-2.31-14.54-4.64-29.07-6.93-43.6-.25-1.55-1.38-2.5-2.55-2.83-3.85-1.09-6.48.67-6.95,4.65-.43,3.51-.61,7.05-.72,10.58-.4,11.72-.71,23.46-1.09,35.19-.04.96-.19,1.94-.44,2.88-4.04,14.46-8.11,28.91-12.18,43.35-.11.39-.28.76-.56,1.5-.09-.77-.15-1.12-.19-1.48-1.47-17.78-2.98-35.56-4.39-53.35-1.59-19.98-3.3-39.95-4.58-59.95-1.41-21.83-3.21-43.62-5.93-65.33-.33-2.61-1.39-3.32-4.91-3.19-1.82.07-3.49,1.75-3.6,3.6-.12,1.88-.23,3.75-.4,5.62-.6,7-1.24,13.99-1.8,20.98-.32,3.93-.5,7.88-.79,11.79-.14,1.81-.37,3.6-.57,5.41-.4,3.54-.82,7.08-1.17,10.62-.19,1.87-.26,3.75-.37,5.62-.74,12.2-1.47,24.41-2.22,36.61-.25,4-.5,8.01-.76,12-.5.12-.79.2-1.09.25-2.86.4-3.94,1.34-4.61,4.07-.54,2.19-1.06,4.39-1.62,6.57-1.23,4.71-2.48,9.42-3.72,14.12-.61-2.85-.83-5.7-1.02-8.54-.88-12.97-1.73-25.97-2.62-38.96-.23-3.35-3.81-4.93-6.67-3.2-2.3,1.4-3,3.55-3.54,5.93-2.37,10.54-4.79,21.07-7.14,31.63-.27,1.22-.7,1.66-2.02,1.66-11.98-.07-23.96-.02-35.94-.08-8.37-.04-15.25-.11-23.62-.19,0,0-3.41.89-3.47,4.96-.06,3.9,2.14,5.6,6.01,5.58,6.91-.04,13.8-.16,20.7-.22,12.04-.12,24.08-.22,36.12-.35,2.08-.02,4.16-.07,6.23-.22,2.3-.18,4.06-1.72,4.65-3.95.57-2.07,1.13-4.14,1.68-6.21.9,8.85,1.4,17.64,2.02,26.4.57,8.23,1.24,16.45,1.96,24.66.25,2.62,2.43,4.52,4.75,4.52,2.17,0,4.5-2.07,4.93-4.41,1.73-9.55,3.45-19.09,5.19-28.62.43-2.37.9-4.72,1.37-7.2.65.29,1.04.44,1.43.63,3.09,1.47,6.1-.19,6.43-3.65.55-5.65.99-11.31,1.48-16.97,1.17-13.57,2.35-27.15,3.53-40.72.4-4.61.81-9.21,1.2-13.82h.22c3.86,52.63,7.71,105.27,11.57,157.9.06.94.14,1.86.2,2.78h.02c.04.65.07,1.32.13,1.98.16,1.88.28,3.75.4,5.62.11,1.86,1.78,3.54,3.6,3.6,3.51.13,4.57-.58,4.91-3.19.32-2.61.63-5.2.94-7.81,0-.07.01-.14.02-.22.11-.92.22-1.85.32-2.78h-.04c.06-.42.13-.84.19-1.22,1.6-9.7,3.37-19.36,4.91-29.07,2.35-14.84,4.85-29.63,10.16-43.77,1.95-5.19,2.92-10.55,3.04-16.11.05-2.35.29-4.7.44-7.06.65,2.56,1.06,5.14,1.43,7.73,1.19,8.45,2.37,16.91,3.59,25.36.07.5.2,1.18.55,1.43,1.24.86,4.71-.25,5.32-1.62,3.19-7.34,6.39-14.66,9.49-22.02.53-1.23,1.17-1.58,2.43-1.55,12.97.13,25.94.27,38.9.36h3.14v-9.42l-3.14-.02v.04ZM203.02,302.43c-1.26.04-1.94.14-2.21.55.2-.5.78-.5,2.21-.55M200.81,303c-.12.19-.13.46-.07.81-.01-.36,0-.62.07-.81M200.74,303.86c.07.37.23.84.46,1.43-.11,0-.23-.01-.32-.01-.06-.6-.12-1.04-.14-1.41"/>
</svg>