<?xml version="1.0" encoding="UTF-8"?>
<svg id="Calque_1" xmlns="http://www.w3.org/2000/svg" version="1.1" viewBox="0 0 275.45 31.51">
  <!-- Generator: Adobe Illustrator 30.2.1, SVG Export Plug-In . SVG Version: 2.1.1 Build 1)  -->
  <defs>
    <style>
      .st0 {
        fill: #1f3358;
      }

      .st1 {
        isolation: isolate;
      }
    </style>
  </defs>
  <g>
    <path class="st0" d="M5.17,19.6c0-.24.14-.65.41-1.22s.51-.93.69-1.09c0,.48.27.84.82,1.07.45.17,1.13.43,2.02.76l-1.02,2.03c-.15-.02-.3-.03-.45-.05l.42,4.87c.03.27-.08.74-.33,1.39-.23.58-.43,1.02-.62,1.32-.42.63-1.01,1.14-1.78,1.52-.76.38-1.53.57-2.31.57-.87,0-1.58-.2-2.12-.61C.3,29.71,0,29.06,0,28.22,0,27.58.24,26.74.71,25.7c.44-.95.91-1.7,1.41-2.23l.02.28c-.66,1.31-.99,2.23-.99,2.76,0,.57.26,1.05.77,1.43.47.35,1.01.52,1.6.52.47,0,1.08-.1,1.83-.29.94-.25,1.41-.53,1.41-.85l-.77-6.31c-.05-.39-.2-.69-.46-.9s-.39-.38-.39-.52h.03Z"/>
    <path class="st0" d="M10.65,19.29c.31-.44.77-1.06,1.4-1.86.06.67.13,1.56.23,2.66l.32,3.36c.04.48.08.97.12,1.46.04.25.17.38.39.41h1.38v2.32h-3.13s-.11-.81-.24-2.35l-.47-6.01h0Z"/>
    <path class="st0" d="M21.73,27.66h-8.46l.02-2.34h1.86c.02-.38.07-.66.15-.82.05-.1.23-.34.54-.74.47-.56,1.04-1.09,1.73-1.57.82-.57,1.51-.86,2.08-.86.41,0,.72.26.95.77.18.4.27.84.27,1.29,0,.35-.05.61-.15.78l-.69,1.15h1.71v2.34h-.01ZM14.01,18.51c0-.11.27-.42.81-.92.54-.51.86-.76.97-.76.06,0,.38.26.97.79.59.52.88.81.88.86,0,.13-.27.4-.81.82-.54.42-.89.63-1.03.63-.11,0-.43-.22-.97-.65s-.81-.69-.81-.77h0ZM18.05,25.31c.5,0,.86-.13,1.09-.39,0-.33-.08-.62-.25-.88-.19-.28-.44-.43-.76-.43-.19,0-.49.09-.9.28-.44.21-.66.39-.66.55,0,.21.2.41.59.6.35.17.65.26.89.26h0Z"/>
    <path class="st0" d="M21.42,19.17c0-.18.18-.53.54-1.03.34-.48.61-.78.8-.92.03.16.16.44.39.83.23.4.88.85,1.94,1.35-.28.63-.46,1.01-.54,1.15-.29.47-.6.7-.93.7.07.51.11.94.11,1.32,0,.3-.16.97-.47,2.02.46-.35,1.35-.85,2.68-1.51.44-.22,1.01-.46,1.71-.74.87-.33,1.44-.5,1.71-.5.45,0,1.02.34,1.71,1.02.69.68,1.03,1.24,1.03,1.69l-.82,3.09-10.57.02v-2.34h1.07c.44,0,.66-.17.66-.51l-.39-3.54c-.03-.28-.07-.57-.12-.87-.05-.29-.15-.54-.32-.74-.13-.14-.19-.31-.19-.51v.02ZM28.02,23.79c-1.11,0-2.38.52-3.82,1.55.06.01.24.02.52.02l5.41-.03c-.14-.36-.43-.7-.87-1.03s-.86-.5-1.24-.5h0Z"/>
    <path class="st0" d="M32.9,16.22c0-.39.15-.75.47-1.05.31-.31.66-.46,1.06-.46.1,0,.2.04.31.13.11.08.16.18.16.28l-.36.51c-.31-.23-.5-.34-.59-.34-.13,0-.33.1-.61.31.19.21.54.33,1.04.38.38.02.77.03,1.17.06-.06.12-.2.32-.42.61-.48-.05-1.21.23-2.16.82.09-.2.2-.35.33-.46.21-.14.39-.26.55-.36-.64-.16-.96-.3-.96-.43h0ZM40,19.42c0-.07.5-.82,1.49-2.23,0,.32.04.56.13.71s.27.31.56.46c.93.49,1.39.79,1.39.89l-1.15,1.68c-.16,0-.29-.02-.38-.06-.13-.06-.21-.1-.25-.11,0,.73-.36,1.54-1.07,2.44-.08.11-.17.19-.24.27.21.47.44,1.12.71,1.93.03.2.05.4.05.61,0,.26-.06.81-.17,1.64h-5.55c.02-.06.16-.45.43-1.17l.41-1.15c.37,0,.83-.17,1.38-.51.48-.32.84-.62,1.06-.91,0-.14-.25-.45-.75-.93s-.83-.71-.97-.71c-.02,0-.09.1-.22.3-.13.2-.23.3-.31.3-.56-.38-.93-.62-1.11-.73-.45-.26-.85-.46-1.18-.59-.28-.11-.54-.3-.77-.57s-.35-.55-.35-.84c0-.46.29-1.27.88-2.44.59,0,1.7.68,3.32,2.05.8.66,1.68,1.63,2.63,2.91.37-.68.55-1.34.55-1.98,0-.36-.05-.63-.16-.81-.13-.15-.25-.31-.36-.46h0ZM39.43,24.59c-.34.41-.7.73-1.08.99.14.04.43.06.88.06.33,0,.57-.01.73-.04-.08-.37-.25-.71-.52-1.01h0Z"/>
    <path class="st0" d="M44.37,20.91c0-.14.22-.59.65-1.37.41-.73.69-1.19.85-1.4.09,0,.25,1.15.48,3.45.09.9.13,1.76.13,2.58,0,1.43-.4,2.66-1.2,3.67l-.92-6.94h0Z"/>
    <path class="st0" d="M59.75,27.64h-6.43c-.63,0-1.13-.22-1.5-.65-.35-.4-.52-.93-.52-1.56,0-.46.16-1.23.48-2.31.36-1.2.69-1.8.99-1.8-.17.65-.26,1.23-.26,1.74,0,.63.17,1.14.5,1.52.43.49.96.73,1.6.73h5.71c.08-.16.15-.78.19-1.87,0-.04.23-.33.68-.88s.72-.85.79-.9v.28c0,.06.02.11.02.15,0,.6-.05,1.33-.19,2.18-.04.28.05.52.28.73.23.2.49.31.77.31h.76v2.32h-1.45c-.45,0-.81-.13-1.06-.4-.19-.22-.37-.56-.52-1.04l-.82,1.44h-.02ZM55.76,29.66c0-.07.21-.31.63-.71.42-.4.67-.6.75-.6.05,0,.3.21.77.62.46.41.69.63.69.67,0,.11-.21.32-.64.66-.43.33-.7.5-.82.5-.08,0-.33-.17-.75-.52s-.63-.55-.63-.6v-.02Z"/>
    <path class="st0" d="M63.15,19.17c0-.18.18-.53.54-1.03.34-.48.61-.78.8-.92.03.16.16.44.39.83.23.4.88.85,1.94,1.35-.28.63-.46,1.01-.54,1.15-.29.47-.6.7-.93.7.07.51.11.94.11,1.32,0,.3-.16.97-.47,2.02.46-.35,1.35-.85,2.68-1.51.44-.22,1.01-.46,1.71-.74.87-.33,1.44-.5,1.71-.5.45,0,1.02.34,1.71,1.02s1.03,1.24,1.03,1.69l-.82,3.09-10.57.02v-2.34h1.07c.44,0,.66-.17.66-.51l-.39-3.54c-.03-.28-.07-.57-.12-.87-.05-.29-.15-.54-.32-.74-.13-.14-.19-.31-.19-.51v.02ZM69.75,23.79c-1.11,0-2.38.52-3.82,1.55.06.01.24.02.52.02l5.41-.03c-.14-.36-.43-.7-.87-1.03s-.86-.5-1.24-.5h0Z"/>
    <path class="st0" d="M88.66,25.49c-.11.27-.28.64-.53,1.12-.27.55-.47.89-.6,1.03h-7.64c-.63,0-1.12-.22-1.49-.65-.35-.4-.53-.93-.53-1.56,0-.46.16-1.23.48-2.31.36-1.2.69-1.8.99-1.8-.17.65-.25,1.23-.25,1.74,0,.63.16,1.14.48,1.52.43.49.97.73,1.6.73h6.21l-.03-.37c-.13-.48-.41-.98-.82-1.51l1.19-2.25c.78,1.05,1.17,1.9,1.17,2.56,0,.48-.08,1.06-.23,1.74h0ZM83.49,18.17c.06,0,.24-.14.53-.43.34-.32.54-.49.59-.53l1.86,1.03c-.73.94-1.18,1.41-1.33,1.41-.05,0-.34-.14-.88-.43-.54-.28-.86-.46-.96-.53-.31.28-.62.6-.95.93-.22-.06-.54-.21-.97-.43-.45-.23-.74-.42-.88-.57.53-.58.97-1.05,1.34-1.39.13.13.4.31.83.56s.7.37.83.37h-.01Z"/>
    <path class="st0" d="M90.17,20.28c-.01-.11-.02-.21-.02-.32,0-.32.05-.79.15-1.41.09-.68.2-1.13.31-1.35.38.12,1.09.58,2.13,1.37.41.32.85.75,1.3,1.32.46.56.8,1.07,1.03,1.54.39.82.59,1.89.59,3.21,0,.35-.03.73-.09,1.12.14-.03.25-.27.35-.73.07-.37.11-.67.11-.89.41-.46.74-1.18,1-2.16.12-.48.17-1.05.17-1.7v-1c0-.31.05-.56.16-.77.03-.06.17-.28.43-.65.26-.37.42-.55.48-.55l.77,7.27c-.01.17-.02.29-.02.36,0,.19.18.32.53.36h.74v2.32h-2.46c-.05-1.09-.08-1.8-.11-2.13-.09-1.05-.22-1.7-.38-1.97-.38,1.26-.64,2.02-.77,2.29-.37.79-.9,1.37-1.56,1.75-1.3.72-3.38,1.08-6.26,1.08.31-.24,1.08-.64,2.33-1.2l2.19-1c1.04-.55,1.59-1.04,1.63-1.46.03-.02.04-.06.04-.12,0-.31-.16-.79-.49-1.44-.45-.9-.97-1.57-1.56-2.01-.07.07-.12.18-.14.32-.04.19-.07.3-.09.34l-1.62-.96c-.18-.11-.37-.22-.56-.35s-.29-.3-.31-.51v.03Z"/>
    <path class="st0" d="M110.74,25.32v2.32h-5.28c-.07-.38-.11-.76-.11-1.12,0-.18,0-.47.02-.86-.26,0-.56.15-.9.44-.08.06-.32.31-.73.74-.33.33-.51.52-.54.55-.21.16-.44.24-.7.24h-3.1v-2.32h3.75c.22,0,.51-.1.86-.29.36-.19.61-.38.75-.56-.12-.09-.55-.24-1.28-.45-.73-.21-1.19-.32-1.38-.32-.35,0-.71.08-1.09.24-.43.18-.71.41-.85.68.29-1.1.55-1.82.75-2.15.41-.68,1.02-1.02,1.85-1.02.51,0,1.24.16,2.19.48,1.27.43,2.01.67,2.21.73.45.1,1.17.15,2.16.15h.51c-.11.3-.42.91-.93,1.83-.65,0-1.3.13-1.97.39-.21.08-.41.17-.61.28h4.4l.02.02ZM104.03,28.53c1.26.92,1.9,1.41,1.9,1.49,0,.05-.25.31-.75.78-.5.47-.79.71-.86.71-.16,0-.5-.2-1-.59s-.77-.66-.79-.82c.84-1.05,1.34-1.57,1.5-1.57Z"/>
    <path class="st0" d="M109.57,25.32h3.6c-.16-.28-.4-.52-.72-.72s-.64-.29-.98-.29c.04,0-.22.03-.78.09,0-.19.35-.87,1.05-2.02.07-.18.41-.35,1.02-.51.53-.15.94-.22,1.22-.22.6,0,1.18.19,1.75.58.63.43.94.93.94,1.51,0,.22-.12.5-.35.84-.25.38-.39.62-.4.73h1.63v2.34h-2.87c-.2-.28-.42-.67-.66-1.16l-.33.59c-.12.2-.25.39-.38.57l-3.73-.02v-2.32h0Z"/>
    <path class="st0" d="M116.65,25.32h3.88c.07-.15.14-.78.19-1.87.01-.04.25-.33.71-.89s.72-.85.76-.89v.28c.01.06.02.11.02.15,0,.6-.06,1.33-.19,2.18-.05.28.04.52.27.73.23.2.49.31.78.31h.76v2.32h-1.46c-.45,0-.8-.13-1.05-.4-.19-.22-.37-.56-.52-1.04l-.83,1.44h-3.31v-2.32h0ZM120.1,18.33c.06,0,.23-.14.52-.43.34-.32.54-.49.59-.52l1.86,1.02c-.73.94-1.18,1.41-1.33,1.41-.05,0-.34-.14-.88-.42s-.86-.46-.96-.53c-.31.29-.62.6-.95.93-.22-.06-.54-.21-.96-.43-.45-.23-.75-.42-.89-.56.53-.58.98-1.05,1.35-1.39.13.13.4.31.83.56s.7.37.83.37h-.01Z"/>
    <path class="st0" d="M124.76,27.26c-.18.25-.41.38-.69.38h-.93v-2.32h1.41c.25,0,.38-.26.38-.79.37-.63.58-.99.65-1.09.34-.54.59-.84.75-.91,0,.48-.22,1.41-.65,2.79h2.42c.23,0,.34-.19.34-.56,0-.05,0-.11-.02-.17v-.11c.65-1.07,1.16-1.71,1.52-1.93,0,.14,0,.36-.02.65,0,.29-.02.51-.02.65,0,.31-.08.79-.24,1.47h1.44c.09,0,.14-.16.14-.47v-.45c.64-1.09,1.07-1.64,1.3-1.64l.13,1.67c.02.18.1.37.24.58.14.2.29.31.46.31h.69v2.32h-1.66c-.06-.14-.16-.34-.28-.62l-.42.62h-2.69c-.18-.26-.32-.39-.43-.39-.03,0-.11.06-.23.19-.12.13-.21.19-.27.19h-2.9c-.18-.25-.32-.38-.42-.38h0Z"/>
    <path class="st0" d="M135.93,23.92c.27-.38.73-.75,1.38-1.11.65-.36,1.2-.54,1.65-.54.36,0,.57.14.63.43s.1.58.15.87c.1.28.29.62.59,1.03.34.48.61.73.82.73h.9v2.32h-1.93c-.09,0-.2.16-.32.49-.13.32-.26.5-.41.54l-4.05-2.34c-.07.05-.15.19-.23.43-.09.28-.18.47-.28.58-.17.2-.43.3-.76.3h-.98v-2.32h1.95c.13,0,.29-.2.49-.59.14-.27.28-.54.42-.81h-.02ZM138.03,24.29c-.53,0-.89.08-1.08.24.23.17.59.38,1.09.65.22.12.35.16.41.13v-.17c0-.57-.14-.86-.43-.86h0Z"/>
    <path class="st0" d="M142.08,19.77c.85-1.64,1.39-2.46,1.62-2.46,0,.34.03.58.08.71.07.17.24.35.49.53,1.16.8,1.84,1.2,2.05,1.2l-1.67,2.04c0,.36.09,1.33.26,2.91,0,.26-.06.63-.17,1.12l-.28,1.21c-.12.49-.41.7-.87.61h-2.46v-2.32h2.29s.06-.1.06-.28c0-.54-.09-1.32-.27-2.34-.15-.78-.3-1.56-.45-2.35-.21-.15-.43-.35-.67-.59h0Z"/>
    <path class="st0" d="M153.67,18.55c.09,0,.29-.16.61-.48.35-.36.56-.56.63-.6l2.02,1.15c-.15.2-.39.49-.71.87-.41.48-.66.72-.74.72-.12,0-.79-.36-2.02-1.08-.33.31-.68.65-1.05,1.04-.24-.07-.6-.24-1.08-.49-.51-.27-.83-.47-.95-.62.36-.42.85-.93,1.47-1.55.14.13.44.34.91.62s.78.42.92.42h0ZM150.73,23.22c0,.52.14,1.28.43,2.28.33,1.17.68,1.76,1.03,1.76.65,0,1.29-.41,1.92-1.24.36-.52.91-1.29,1.64-2.31.61-.83,1.21-1.24,1.8-1.24.4,0,.68.16.84.48.08.34.17.68.26,1.02s.22.63.4.88c.23.31.5.47.8.47h.98v2.32h-.99c-.55,0-1.01-.24-1.39-.71-.23-.29-.46-.74-.69-1.35-.19-.48-.33-.72-.42-.72-.69,0-1.36.43-2.02,1.29l-1.55,2.46c-.53.83-1.03,1.24-1.49,1.24-1.25,0-1.87-1.82-1.87-5.45v-.56c.1-.15.2-.36.31-.62h.01Z"/>
    <path class="st0" d="M160.33,25.32h3.88c.07-.15.14-.78.19-1.87,0-.04.25-.33.71-.89s.72-.85.76-.89v.28c0,.06,0,.11,0,.15,0,.6-.06,1.33-.19,2.18-.05.28.04.52.27.73.23.2.49.31.78.31h.76v2.32h-1.46c-.45,0-.8-.13-1.05-.4-.19-.22-.37-.56-.52-1.04l-.83,1.44h-3.31v-2.32h0ZM163.83,29.57s.2-.14.47-.43c.3-.32.48-.5.53-.54l1.68,1.04c-.12.18-.31.44-.59.78-.34.43-.55.64-.62.64-.04,0-.59-.32-1.66-.96-.27.27-.56.58-.86.92-.22-.07-.51-.21-.88-.43-.42-.24-.67-.43-.77-.57.39-.48.66-.8.8-.96l.4-.43c.11.12.36.3.76.55.39.25.64.38.75.38h0Z"/>
    <path class="st0" d="M169.96,22.82c.11-.24.53-.97,1.26-2.19.24.21.52.58.84,1.13.3.51.5.93.62,1.28.14.41.21.82.21,1.26,0,.55-.13,1.33-.4,2.36-.14.48-.24.82-.32.99h-5.55v-2.32h4.7c-.22-1.07-.66-1.9-1.33-2.5h-.03ZM167.68,30.07c0-.1.24-.38.73-.83s.78-.68.88-.68c.05,0,.34.24.86.71.53.48.79.73.79.77,0,.11-.24.35-.73.73-.49.38-.8.57-.93.57-.09,0-.38-.2-.87-.59s-.73-.62-.73-.69h0Z"/>
    <path class="st0" d="M177.18,22.71c.67,1.02,1.07,1.59,1.18,1.71.53.6,1.11.9,1.74.9h1.2v2.32h-1.79c-.52-.05-.86-.15-1.01-.31-.3.79-.76,1.55-1.37,2.27-.74.88-1.46,1.32-2.14,1.32-.43,0-1.26-.27-2.48-.81-1.27-.56-1.94-.99-2-1.31.05,0,.32.11.81.32.49.22.95.32,1.4.32.3,0,.75-.1,1.33-.31.45-.16,1-.51,1.67-1.03.18-.12.52-.39,1.03-.82.34-.3.51-.58.51-.84,0-.3-.42-.91-1.27-1.83.3-.53.7-1.17,1.2-1.92v.02Z"/>
    <path class="st0" d="M179.77,25.32h3.41c-.31-.58-.8-.87-1.49-.87-.08,0-.25.01-.51.04-.14,0-.21-.06-.21-.17,0-.04.13-.32.39-.84.24-.49.41-.81.49-.93.13-.24.49-.46,1.07-.65.49-.16.91-.24,1.26-.24.6,0,1.18.19,1.75.58.63.43.94.93.94,1.51,0,.17-.2.69-.62,1.57h1.49v2.34h-2.49c-.24,0-.42-.09-.54-.27s-.22-.27-.31-.27c-.06,0-.15.08-.27.25-.12.17-.23.27-.34.29l-4.03-.02v-2.32h0ZM182.31,18.74c0-.11.27-.42.81-.92s.86-.76.97-.76c.05,0,.38.26.96.79s.88.81.88.86c0,.13-.27.4-.82.82-.54.42-.89.63-1.03.63-.11,0-.43-.22-.97-.65s-.81-.69-.81-.77h0Z"/>
    <path class="st0" d="M189.55,23.92c.27-.38.73-.75,1.38-1.11.65-.36,1.2-.54,1.65-.54.36,0,.57.14.63.43.05.29.1.58.15.87.09.28.29.62.58,1.03.34.48.62.73.82.73h.9v2.32h-1.93c-.09,0-.2.16-.32.49s-.26.5-.41.54l-4.05-2.34c-.07.05-.15.19-.23.43-.09.28-.18.47-.28.58-.17.2-.43.3-.76.3h-.98v-2.32h1.95c.13,0,.29-.2.49-.59.14-.27.28-.54.42-.81h-.01ZM191.65,24.29c-.53,0-.89.08-1.08.24.23.17.59.38,1.09.65.22.12.35.16.41.13v-.17c0-.57-.14-.86-.43-.86h0Z"/>
    <path class="st0" d="M195.7,19.77c.85-1.64,1.39-2.46,1.62-2.46,0,.34.03.58.08.71.07.17.24.35.49.53,1.16.8,1.84,1.2,2.05,1.2l-1.67,2.04c0,.36.09,1.33.26,2.91,0,.26-.06.63-.17,1.12l-.28,1.21c-.12.49-.41.7-.87.61h-2.46v-2.32h2.29s.06-.1.06-.28c0-.54-.09-1.32-.27-2.34-.15-.78-.3-1.56-.45-2.35-.21-.15-.43-.35-.67-.59h0Z"/>
    <path class="st0" d="M200.98,20.91c0-.14.22-.59.65-1.37.41-.73.69-1.19.85-1.4.09,0,.25,1.15.48,3.45.09.9.13,1.76.13,2.58,0,1.43-.4,2.66-1.2,3.67l-.92-6.94h0Z"/>
    <path class="st0" d="M211.25,18.55c.09,0,.29-.16.61-.48.35-.36.56-.56.63-.6l2.02,1.15c-.15.2-.39.49-.71.87-.41.48-.66.72-.74.72-.12,0-.79-.36-2.02-1.08-.33.31-.68.65-1.05,1.04-.24-.07-.6-.24-1.08-.49-.51-.27-.83-.47-.95-.62.36-.42.85-.93,1.47-1.55.14.13.44.34.91.62s.78.42.92.42h0ZM208.32,23.22c0,.52.14,1.28.43,2.28.33,1.17.68,1.76,1.03,1.76.65,0,1.29-.41,1.92-1.24.36-.52.91-1.29,1.64-2.31.61-.83,1.21-1.24,1.8-1.24.4,0,.68.16.84.48.08.34.17.68.26,1.02s.22.63.4.88c.23.31.5.47.8.47h.98v2.32h-.99c-.55,0-1.01-.24-1.39-.71-.23-.29-.46-.74-.69-1.35-.19-.48-.33-.72-.42-.72-.69,0-1.36.43-2.02,1.29l-1.55,2.46c-.53.83-1.03,1.24-1.49,1.24-1.25,0-1.87-1.82-1.87-5.45v-.56c.1-.15.2-.36.31-.62h.01Z"/>
    <path class="st0" d="M226.73,27.64h-8.7v-2.32h1.55v-.62c0-.45.2-.87.61-1.28.25-.49.79-1.02,1.6-1.57.82-.55,1.49-.83,2.02-.83.67,0,1.37.36,2.08,1.09.71.72,1.04,1.41.98,2.07-.51-.46-1.02-.76-1.52-.9-.41-.13-1-.19-1.78-.19-.35,0-.76.03-1.24.1-.68.08-1.02.19-1.02.35,0,.1.24.37.73.8.43.39.74.64.93.74.28.18.6.26.96.25,2.58-.06,3.97-.09,4.18-.09l-1.37,2.41h0Z"/>
    <path class="st0" d="M231.38,28.61c.47-.32.87-.65,1.2-1-1.96,0-2.94-.53-2.94-1.58,0-.38.17-.98.5-1.78.3-.68.58-1.24.86-1.66.42-.62.86-.93,1.34-.93.56,0,1.04.49,1.46,1.47.28.69.48,1.42.58,2.18h.91v2.32h-1.32c-.76,2.16-1.74,3.25-2.94,3.25-.57,0-1.35-.08-2.34-.25-1.14-.19-1.86-.4-2.16-.63.31-.01.79-.04,1.45-.09,1.03-.07,2.16-.5,3.4-1.3h0ZM231.63,23.69c-.26,0-.54.25-.82.74,0,.29.19.53.56.7.3.13.62.2.96.2.28,0,.43-.05.43-.15-.27-.99-.64-1.49-1.13-1.49h0Z"/>
    <path class="st0" d="M237.76,23.92c.27-.38.73-.75,1.38-1.11.65-.36,1.2-.54,1.65-.54.36,0,.57.14.63.43.05.29.1.58.15.87.09.28.29.62.58,1.03.34.48.62.73.82.73h.9v2.32h-1.93c-.09,0-.2.16-.32.49s-.26.5-.41.54l-4.05-2.34c-.07.05-.15.19-.23.43-.09.28-.18.47-.28.58-.17.2-.43.3-.76.3h-.98v-2.32h1.95c.13,0,.29-.2.49-.59.14-.27.28-.54.42-.81h-.01ZM239.86,24.29c-.53,0-.89.08-1.08.24.23.17.59.38,1.09.65.22.12.35.16.41.13v-.17c0-.57-.14-.86-.43-.86h0Z"/>
    <path class="st0" d="M254.33,25.32v2.32h-5.28c-.07-.38-.11-.76-.11-1.12,0-.18,0-.47.02-.86-.26,0-.56.15-.9.44-.08.06-.32.31-.73.74-.33.33-.51.52-.54.55-.21.16-.44.24-.7.24h-3.1v-2.32h3.75c.22,0,.51-.1.86-.29s.61-.38.75-.56c-.12-.09-.55-.24-1.28-.45-.73-.21-1.19-.32-1.38-.32-.35,0-.71.08-1.09.24-.43.18-.71.41-.84.68.3-1.1.55-1.82.75-2.15.41-.68,1.02-1.02,1.85-1.02.51,0,1.24.16,2.19.48,1.27.43,2.01.67,2.21.73.45.1,1.16.15,2.16.15h.51c-.11.3-.42.91-.93,1.83-.65,0-1.3.13-1.97.39-.21.08-.41.17-.61.28h4.4v.02ZM247.62,28.53c1.26.92,1.9,1.41,1.9,1.49,0,.05-.25.31-.75.78-.5.47-.79.71-.86.71-.16,0-.5-.2-1-.59s-.76-.66-.79-.82c.84-1.05,1.34-1.57,1.5-1.57Z"/>
    <path class="st0" d="M256.03,23.92c.27-.38.73-.75,1.38-1.11s1.2-.54,1.65-.54c.36,0,.57.14.63.43.05.29.1.58.15.87.09.28.29.62.58,1.03.34.48.62.73.82.73h.9v2.32h-1.93c-.09,0-.2.16-.32.49s-.26.5-.41.54l-4.05-2.34c-.07.05-.15.19-.23.43-.09.28-.18.47-.28.58-.17.2-.43.3-.76.3h-.98v-2.32h1.95c.13,0,.29-.2.49-.59.14-.27.28-.54.42-.81h-.01ZM258.13,24.29c-.53,0-.89.08-1.08.24.23.17.59.38,1.09.65.22.12.35.16.41.13v-.17c0-.57-.14-.86-.43-.86h0Z"/>
    <path class="st0" d="M262.19,19.77c.85-1.64,1.39-2.46,1.62-2.46,0,.34.03.58.08.71.07.17.24.35.49.53,1.16.8,1.84,1.2,2.05,1.2l-1.67,2.04c0,.36.09,1.33.26,2.91,0,.26-.06.63-.17,1.12l-.28,1.21c-.12.49-.41.7-.87.61h-2.46v-2.32h2.29s.06-.1.06-.28c0-.54-.09-1.32-.27-2.34-.15-.78-.3-1.56-.45-2.35-.21-.15-.43-.35-.67-.59h0Z"/>
    <path class="st0" d="M267.47,20.91c0-.14.22-.59.65-1.37.41-.73.69-1.19.85-1.4.09,0,.25,1.15.48,3.45.09.9.13,1.76.13,2.58,0,1.43-.4,2.66-1.2,3.67l-.92-6.94h.01Z"/>
  </g>
  <g class="st1">
    <g class="st1">
      <path class="st0" d="M8.81,11.29c-.66.22-1.9.53-3.15.53-1.72,0-2.97-.43-3.84-1.26-.85-.83-1.33-2.06-1.33-3.45.01-3.14,2.3-4.93,5.39-4.93,1.22,0,2.16.24,2.62.45l-.45,1.72c-.52-.24-1.15-.41-2.19-.41-1.78,0-3.14,1-3.14,3.05s1.23,3.1,2.98,3.1c.48,0,.87-.06,1.04-.13v-1.99h-1.46v-1.67h3.52v4.97Z"/>
      <path class="st0" d="M10.44,7.13c0-1.01-.01-1.67-.06-2.25h1.82l.08,1.26h.06c.35-1.01,1.18-1.43,1.85-1.43.2,0,.29.01.45.04v2c-.17-.03-.34-.06-.57-.06-.78,0-1.32.42-1.46,1.08-.03.14-.04.31-.04.48v3.47h-2.13v-4.59Z"/>
      <path class="st0" d="M22.42,8.22c0,2.51-1.78,3.66-3.61,3.66-2,0-3.54-1.32-3.54-3.53s1.46-3.64,3.67-3.64c2.09,0,3.49,1.44,3.49,3.52ZM17.46,8.29c0,1.18.49,2.06,1.4,2.06.84,0,1.36-.83,1.36-2.07,0-1.01-.39-2.04-1.36-2.04s-1.4,1.05-1.4,2.06Z"/>
      <path class="st0" d="M30.19,9.52c0,.9.03,1.62.06,2.2h-1.85l-.1-.97h-.04c-.27.42-.91,1.12-2.14,1.12-1.4,0-2.41-.87-2.41-2.98v-4.02h2.13v3.68c0,1,.32,1.6,1.08,1.6.59,0,.94-.41,1.06-.74.06-.13.08-.28.08-.46v-4.08h2.13v4.65Z"/>
      <path class="st0" d="M31.89,7.17c0-.9-.03-1.65-.06-2.3h1.85l.1.95h.03c.5-.71,1.29-1.11,2.28-1.11,1.5,0,2.84,1.3,2.84,3.49,0,2.49-1.58,3.67-3.11,3.67-.83,0-1.47-.34-1.78-.78h-.03v3.4h-2.13v-7.33ZM34.02,8.78c0,.17.01.31.04.45.14.57.63,1.01,1.25,1.01.92,0,1.47-.77,1.47-1.93,0-1.09-.49-1.92-1.44-1.92-.6,0-1.13.45-1.27,1.08-.03.11-.04.25-.04.38v.94Z"/>
      <path class="st0" d="M41.94,8.97c.06.88.94,1.3,1.93,1.3.73,0,1.32-.1,1.89-.29l.28,1.44c-.7.29-1.55.43-2.48.43-2.33,0-3.66-1.34-3.66-3.49,0-1.74,1.08-3.66,3.46-3.66,2.21,0,3.05,1.72,3.05,3.42,0,.36-.04.69-.07.84h-4.41ZM44.45,7.52c0-.52-.22-1.39-1.2-1.39-.9,0-1.26.83-1.32,1.39h2.52Z"/>
      <path class="st0" d="M58.58,8.11c-.04-1.13-.08-2.51-.08-3.88h-.03c-.31,1.21-.7,2.55-1.06,3.66l-1.15,3.68h-1.67l-1.01-3.64c-.31-1.12-.62-2.47-.85-3.7h-.03c-.04,1.27-.1,2.73-.15,3.91l-.18,3.59h-1.98l.6-9.44h2.84l.92,3.15c.31,1.09.59,2.27.8,3.38h.06c.25-1.09.57-2.34.9-3.39l.99-3.14h2.8l.5,9.44h-2.07l-.15-3.61Z"/>
      <path class="st0" d="M68.11,10.07c0,.64.03,1.28.11,1.65h-1.92l-.13-.69h-.04c-.45.55-1.15.84-1.96.84-1.39,0-2.21-1.01-2.21-2.1,0-1.78,1.6-2.62,4.02-2.62v-.08c0-.38-.2-.9-1.25-.9-.7,0-1.44.24-1.89.52l-.39-1.37c.48-.27,1.41-.62,2.66-.62,2.28,0,3,1.34,3,2.97v2.39ZM66.05,8.48c-1.12,0-1.99.27-1.99,1.08,0,.55.36.81.84.81.52,0,.97-.35,1.11-.78.03-.11.04-.24.04-.36v-.74Z"/>
      <path class="st0" d="M69.8,7.13c0-1.01-.01-1.67-.06-2.25h1.82l.08,1.26h.06c.35-1.01,1.18-1.43,1.85-1.43.2,0,.29.01.45.04v2c-.17-.03-.34-.06-.57-.06-.78,0-1.32.42-1.46,1.08-.03.14-.04.31-.04.48v3.47h-2.13v-4.59Z"/>
      <path class="st0" d="M81.78,8.22c0,2.51-1.78,3.66-3.61,3.66-2,0-3.54-1.32-3.54-3.53s1.46-3.64,3.67-3.64c2.09,0,3.49,1.44,3.49,3.52ZM76.82,8.29c0,1.18.49,2.06,1.4,2.06.84,0,1.36-.83,1.36-2.07,0-1.01-.39-2.04-1.36-2.04s-1.4,1.05-1.4,2.06Z"/>
      <path class="st0" d="M88.27,11.54c-.38.18-1.09.32-1.9.32-2.21,0-3.63-1.36-3.63-3.5,0-2,1.37-3.64,3.92-3.64.56,0,1.18.1,1.62.27l-.34,1.58c-.25-.11-.63-.21-1.19-.21-1.12,0-1.85.8-1.83,1.92,0,1.25.84,1.92,1.88,1.92.5,0,.9-.08,1.22-.22l.25,1.57Z"/>
      <path class="st0" d="M95.2,10.07c0,.64.03,1.28.11,1.65h-1.92l-.13-.69h-.04c-.45.55-1.15.84-1.96.84-1.39,0-2.21-1.01-2.21-2.1,0-1.78,1.6-2.62,4.02-2.62v-.08c0-.38-.2-.9-1.25-.9-.7,0-1.44.24-1.89.52l-.39-1.37c.48-.27,1.41-.62,2.66-.62,2.28,0,3,1.34,3,2.97v2.39ZM93.14,8.48c-1.12,0-1.99.27-1.99,1.08,0,.55.36.81.84.81.52,0,.97-.35,1.11-.78.03-.11.04-.24.04-.36v-.74Z"/>
      <path class="st0" d="M99.09,2.97c0,.59-.43,1.06-1.15,1.06-.67,0-1.11-.48-1.11-1.06s.45-1.06,1.13-1.06,1.11.46,1.12,1.06ZM96.89,11.72v-6.85h2.13v6.85h-2.13Z"/>
      <path class="st0" d="M100.73,7.06c0-.85-.03-1.57-.06-2.19h1.85l.1.95h.04c.28-.45.97-1.11,2.12-1.11,1.4,0,2.45.94,2.45,2.96v4.05h-2.13v-3.8c0-.88-.31-1.49-1.08-1.49-.59,0-.94.41-1.09.8-.06.14-.07.34-.07.53v3.95h-2.13v-4.66Z"/>
      <path class="st0" d="M118.4,1.77v7.9c0,.77.03,1.58.06,2.04h-1.89l-.08-.99h-.04c-.42.76-1.26,1.15-2.14,1.15-1.62,0-2.93-1.39-2.93-3.52-.01-2.31,1.43-3.66,3.07-3.66.85,0,1.5.31,1.81.77h.03V1.77h2.13ZM116.27,7.77c0-.11,0-.27-.03-.39-.13-.56-.59-1.04-1.25-1.04-.98,0-1.47.87-1.47,1.95,0,1.16.57,1.89,1.46,1.89.62,0,1.12-.42,1.25-1.02.03-.15.04-.32.04-.49v-.9Z"/>
      <path class="st0" d="M121.74,8.97c.06.88.94,1.3,1.93,1.3.73,0,1.32-.1,1.89-.29l.28,1.44c-.7.29-1.55.43-2.48.43-2.33,0-3.66-1.34-3.66-3.49,0-1.74,1.08-3.66,3.46-3.66,2.21,0,3.05,1.72,3.05,3.42,0,.36-.04.69-.07.84h-4.41ZM124.25,7.52c0-.52-.22-1.39-1.21-1.39-.9,0-1.26.83-1.32,1.39h2.52Z"/>
      <path class="st0" d="M127.48,9.87c.39.24,1.2.5,1.83.5s.91-.21.91-.56-.21-.53-.99-.8c-1.43-.48-1.98-1.25-1.96-2.06,0-1.29,1.09-2.25,2.79-2.25.8,0,1.5.2,1.92.41l-.36,1.47c-.31-.17-.91-.39-1.48-.39-.52,0-.81.21-.81.55s.27.5,1.11.8c1.3.45,1.83,1.12,1.85,2.12,0,1.29-.99,2.23-2.96,2.23-.9,0-1.7-.21-2.21-.49l.38-1.51Z"/>
      <path class="st0" d="M138.6,2.28v5.42c0,1.64.63,2.47,1.71,2.47s1.74-.78,1.74-2.47V2.28h2.13v5.29c0,2.91-1.47,4.3-3.94,4.3s-3.77-1.33-3.77-4.33V2.28h2.13Z"/>
      <path class="st0" d="M145.95,7.13c0-1.01-.01-1.67-.06-2.25h1.82l.08,1.26h.06c.35-1.01,1.18-1.43,1.85-1.43.2,0,.29.01.45.04v2c-.17-.03-.34-.06-.57-.06-.78,0-1.32.42-1.46,1.08-.03.14-.04.31-.04.48v3.47h-2.13v-4.59Z"/>
      <path class="st0" d="M157.64,10.73c0,1.32-.27,2.39-1.05,3.08-.74.64-1.76.84-2.77.84-.91,0-1.85-.18-2.46-.52l.42-1.62c.43.25,1.18.52,1.99.52,1.01,0,1.78-.53,1.78-1.81v-.43h-.03c-.41.56-1.06.88-1.85.88-1.7,0-2.9-1.37-2.9-3.33,0-2.21,1.42-3.61,3.11-3.61.94,0,1.53.41,1.88.98h.03l.07-.83h1.85c-.03.45-.06,1.02-.06,2.04v3.81ZM155.51,7.66c0-.13-.01-.27-.04-.39-.15-.56-.56-.94-1.15-.94-.79,0-1.4.7-1.4,1.95,0,1.02.5,1.82,1.39,1.82.56,0,1-.36,1.13-.85.06-.17.07-.39.07-.57v-1.01Z"/>
      <path class="st0" d="M160.98,8.97c.06.88.94,1.3,1.93,1.3.73,0,1.32-.1,1.89-.29l.28,1.44c-.7.29-1.55.43-2.48.43-2.33,0-3.66-1.34-3.66-3.49,0-1.74,1.08-3.66,3.46-3.66,2.21,0,3.05,1.72,3.05,3.42,0,.36-.04.69-.07.84h-4.41ZM163.49,7.52c0-.52-.22-1.39-1.21-1.39-.9,0-1.26.83-1.32,1.39h2.52Z"/>
      <path class="st0" d="M166.74,7.06c0-.85-.03-1.57-.06-2.19h1.85l.1.95h.04c.28-.45.97-1.11,2.12-1.11,1.4,0,2.45.94,2.45,2.96v4.05h-2.13v-3.8c0-.88-.31-1.49-1.08-1.49-.59,0-.94.41-1.09.8-.06.14-.07.34-.07.53v3.95h-2.13v-4.66Z"/>
      <path class="st0" d="M180.08,11.54c-.38.18-1.09.32-1.91.32-2.21,0-3.63-1.36-3.63-3.5,0-2,1.37-3.64,3.92-3.64.56,0,1.18.1,1.62.27l-.34,1.58c-.25-.11-.63-.21-1.19-.21-1.12,0-1.85.8-1.83,1.92,0,1.25.84,1.92,1.88,1.92.5,0,.9-.08,1.22-.22l.25,1.57Z"/>
      <path class="st0" d="M182.74,8.97c.06.88.94,1.3,1.93,1.3.73,0,1.32-.1,1.89-.29l.28,1.44c-.7.29-1.55.43-2.48.43-2.33,0-3.66-1.34-3.66-3.49,0-1.74,1.08-3.66,3.46-3.66,2.21,0,3.05,1.72,3.05,3.42,0,.36-.04.69-.07.84h-4.41ZM185.25,7.52c0-.52-.22-1.39-1.21-1.39-.9,0-1.26.83-1.32,1.39h2.52Z"/>
      <path class="st0" d="M188.48,9.87c.39.24,1.2.5,1.83.5s.91-.21.91-.56-.21-.53-.99-.8c-1.43-.48-1.98-1.25-1.96-2.06,0-1.29,1.09-2.25,2.79-2.25.8,0,1.5.2,1.92.41l-.36,1.47c-.31-.17-.91-.39-1.48-.39-.52,0-.81.21-.81.55s.27.5,1.11.8c1.3.45,1.83,1.12,1.85,2.12,0,1.29-.99,2.23-2.96,2.23-.9,0-1.7-.21-2.21-.49l.38-1.51Z"/>
      <path class="st0" d="M197.47,2.4c.66-.11,1.58-.2,2.89-.2s2.25.25,2.88.76c.62.48,1.01,1.26,1.01,2.19s-.29,1.72-.87,2.24c-.73.67-1.81.99-3.07.99-.28,0-.53-.01-.73-.06v3.39h-2.12V2.4ZM199.58,6.69c.18.04.39.06.71.06,1.13,0,1.83-.57,1.83-1.53,0-.87-.6-1.39-1.68-1.39-.42,0-.71.03-.87.07v2.79Z"/>
      <path class="st0" d="M206.83,8.97c.06.88.94,1.3,1.93,1.3.73,0,1.32-.1,1.89-.29l.28,1.44c-.7.29-1.55.43-2.48.43-2.33,0-3.66-1.34-3.66-3.49,0-1.74,1.08-3.66,3.46-3.66,2.21,0,3.05,1.72,3.05,3.42,0,.36-.04.69-.07.84h-4.41ZM209.34,7.52c0-.52-.22-1.39-1.21-1.39-.9,0-1.26.83-1.32,1.39h2.52ZM210.5,1.89l-1.71,2.13h-1.46l1.2-2.13h1.96Z"/>
      <path class="st0" d="M219.23,1.77v7.9c0,.77.03,1.58.06,2.04h-1.89l-.08-.99h-.04c-.42.76-1.26,1.15-2.14,1.15-1.62,0-2.93-1.39-2.93-3.52-.01-2.31,1.43-3.66,3.07-3.66.85,0,1.5.31,1.81.77h.03V1.77h2.13ZM217.1,7.77c0-.11,0-.27-.03-.39-.13-.56-.59-1.04-1.25-1.04-.98,0-1.47.87-1.47,1.95,0,1.16.57,1.89,1.46,1.89.62,0,1.12-.42,1.25-1.02.03-.15.04-.32.04-.49v-.9Z"/>
      <path class="st0" d="M223.13,2.97c0,.59-.43,1.06-1.15,1.06-.67,0-1.11-.48-1.11-1.06s.45-1.06,1.13-1.06,1.11.46,1.12,1.06ZM220.93,11.72v-6.85h2.13v6.85h-2.13Z"/>
      <path class="st0" d="M230.47,10.07c0,.64.03,1.28.11,1.65h-1.92l-.13-.69h-.04c-.45.55-1.15.84-1.96.84-1.39,0-2.21-1.01-2.21-2.1,0-1.78,1.6-2.62,4.02-2.62v-.08c0-.38-.2-.9-1.25-.9-.7,0-1.44.24-1.89.52l-.39-1.37c.48-.27,1.42-.62,2.66-.62,2.28,0,3,1.34,3,2.97v2.39ZM228.41,8.48c-1.12,0-1.99.27-1.99,1.08,0,.55.36.81.84.81.52,0,.97-.35,1.11-.78.03-.11.04-.24.04-.36v-.74Z"/>
      <path class="st0" d="M234.43,3.02v1.85h1.53v1.57h-1.53v2.48c0,.83.21,1.21.84,1.21.29,0,.43-.01.63-.06v1.61c-.25.1-.77.18-1.36.18-.69,0-1.26-.24-1.61-.59-.39-.41-.59-1.06-.59-2.03v-2.8h-.91v-1.57h.91v-1.27l2.09-.57Z"/>
      <path class="st0" d="M237.19,7.13c0-1.01-.01-1.67-.06-2.25h1.82l.08,1.26h.06c.35-1.01,1.18-1.43,1.85-1.43.2,0,.29.01.45.04v2c-.17-.03-.34-.06-.57-.06-.78,0-1.32.42-1.46,1.08-.03.14-.04.31-.04.48v3.47h-2.13v-4.59Z"/>
      <path class="st0" d="M244.71,2.97c0,.59-.43,1.06-1.15,1.06-.67,0-1.11-.48-1.11-1.06s.45-1.06,1.13-1.06,1.11.46,1.12,1.06ZM242.51,11.72v-6.85h2.13v6.85h-2.13Z"/>
      <path class="st0" d="M250.85,10.85h-.03c-.43.66-1.12,1.02-2.04,1.02-1.49,0-2.83-1.32-2.83-3.49,0-2.46,1.55-3.68,3.03-3.68.88,0,1.53.32,1.92.97h.03s.06-.8.06-.8h2.04c-.01.67-.04,1.34-.04,2.06v7.56h-2.13v-3.64ZM250.85,7.74c0-.13-.01-.24-.04-.35-.11-.55-.57-1.02-1.23-1.02-.97,0-1.47.83-1.47,1.93s.56,1.89,1.46,1.89c.6,0,1.09-.41,1.23-.97.04-.14.06-.32.06-.46v-1.02Z"/>
      <path class="st0" d="M261.13,9.52c0,.9.03,1.62.06,2.2h-1.85l-.1-.97h-.04c-.27.42-.91,1.12-2.14,1.12-1.4,0-2.41-.87-2.41-2.98v-4.02h2.13v3.68c0,1,.32,1.6,1.08,1.6.59,0,.94-.41,1.06-.74.06-.13.08-.28.08-.46v-4.08h2.13v4.65Z"/>
      <path class="st0" d="M264.47,8.97c.06.88.94,1.3,1.93,1.3.73,0,1.32-.1,1.89-.29l.28,1.44c-.7.29-1.55.43-2.48.43-2.33,0-3.66-1.34-3.66-3.49,0-1.74,1.08-3.66,3.46-3.66,2.21,0,3.05,1.72,3.05,3.42,0,.36-.04.69-.07.84h-4.41ZM266.98,7.52c0-.52-.22-1.39-1.21-1.39-.9,0-1.26.83-1.32,1.39h2.52Z"/>
      <path class="st0" d="M270.21,9.87c.39.24,1.2.5,1.83.5s.91-.21.91-.56-.21-.53-.99-.8c-1.43-.48-1.98-1.25-1.96-2.06,0-1.29,1.09-2.25,2.79-2.25.8,0,1.5.2,1.92.41l-.36,1.47c-.31-.17-.91-.39-1.48-.39-.52,0-.81.21-.81.55s.27.5,1.11.8c1.3.45,1.83,1.12,1.85,2.12,0,1.29-.99,2.23-2.96,2.23-.9,0-1.7-.21-2.21-.49l.38-1.51Z"/>
    </g>
  </g>
</svg>